<?xml version="1.0" encoding="UTF-8" standalone="no"?><svg xmlns="http://www.w3.org/2000/svg" xmlns:xlink="http://www.w3.org/1999/xlink" contentStyleType="text/css" height="1058px" preserveAspectRatio="none" style="width:1889px;height:1058px;background:#FFFFFF;" version="1.1" viewBox="0 0 1889 1058" width="1889px" zoomAndPan="magnify"><defs/><g><!--MD5=[3bd817c1526d01a4e9c17d9a45a66e08]
cluster analyzer--><g id="cluster_analyzer"><path d="M8.5,6.602 L67.5,6.602 A3.75,3.75 0 0 1 70,9.102 L77,31.6699 L1537.5,31.6699 A2.5,2.5 0 0 1 1540,34.1699 L1540,1049.102 A2.5,2.5 0 0 1 1537.5,1051.602 L8.5,1051.602 A2.5,2.5 0 0 1 6,1049.102 L6,9.102 A2.5,2.5 0 0 1 8.5,6.602 " fill="none" style="stroke:#000000;stroke-width:1.5;"/><line style="stroke:#000000;stroke-width:1.5;" x1="6" x2="77" y1="31.6699" y2="31.6699"/><text fill="#000000" font-family="sans-serif" font-size="14" font-weight="bold" lengthAdjust="spacing" textLength="58" x="10" y="23.5679">analyzer</text></g><!--MD5=[10ea673caf457862023e152271927b45]
cluster controller--><g id="cluster_controller"><path d="M32.5,52.602 L101.5,52.602 A3.75,3.75 0 0 1 104,55.102 L111,77.6699 L1513.5,77.6699 A2.5,2.5 0 0 1 1516,80.1699 L1516,678.102 A2.5,2.5 0 0 1 1513.5,680.602 L32.5,680.602 A2.5,2.5 0 0 1 30,678.102 L30,55.102 A2.5,2.5 0 0 1 32.5,52.602 " fill="none" style="stroke:#000000;stroke-width:1.5;"/><line style="stroke:#000000;stroke-width:1.5;" x1="30" x2="111" y1="77.6699" y2="77.6699"/><text fill="#000000" font-family="sans-serif" font-size="14" font-weight="bold" lengthAdjust="spacing" textLength="68" x="34" y="69.5679">controller</text></g><!--MD5=[72fae8e1779ba7dedab19f6352fd74e8]
cluster parser--><g id="cluster_parser"><path d="M335.5,98.602 L380.5,98.602 A3.75,3.75 0 0 1 383,101.102 L390,123.6699 L1489.5,123.6699 A2.5,2.5 0 0 1 1492,126.1699 L1492,654.102 A2.5,2.5 0 0 1 1489.5,656.602 L335.5,656.602 A2.5,2.5 0 0 1 333,654.102 L333,101.102 A2.5,2.5 0 0 1 335.5,98.602 " fill="none" style="stroke:#000000;stroke-width:1.5;"/><line style="stroke:#000000;stroke-width:1.5;" x1="333" x2="390" y1="123.6699" y2="123.6699"/><text fill="#000000" font-family="sans-serif" font-size="14" font-weight="bold" lengthAdjust="spacing" textLength="44" x="337" y="115.5679">parser</text></g><!--MD5=[c82a1b5aca53c5d5a37804beaa0eb5b8]
cluster jssparsercontroller--><g id="cluster_jssparsercontroller"><path d="M359.5,288.602 L490.5,288.602 A3.75,3.75 0 0 1 493,291.102 L500,313.6699 L1465.5,313.6699 A2.5,2.5 0 0 1 1468,316.1699 L1468,630.102 A2.5,2.5 0 0 1 1465.5,632.602 L359.5,632.602 A2.5,2.5 0 0 1 357,630.102 L357,291.102 A2.5,2.5 0 0 1 359.5,288.602 " fill="none" style="stroke:#000000;stroke-width:1.5;"/><line style="stroke:#000000;stroke-width:1.5;" x1="357" x2="500" y1="313.6699" y2="313.6699"/><text fill="#000000" font-family="sans-serif" font-size="14" font-weight="bold" lengthAdjust="spacing" textLength="130" x="361" y="305.5679">jssparsercontroller</text></g><!--MD5=[5d4cd377749310b66bf14896f5cd8d9b]
cluster model--><g id="cluster_model"><path d="M695.5,713.602 L740.5,713.602 A3.75,3.75 0 0 1 743,716.102 L750,738.6699 L1486.5,738.6699 A2.5,2.5 0 0 1 1489,741.1699 L1489,1025.102 A2.5,2.5 0 0 1 1486.5,1027.602 L695.5,1027.602 A2.5,2.5 0 0 1 693,1025.102 L693,716.102 A2.5,2.5 0 0 1 695.5,713.602 " fill="none" style="stroke:#000000;stroke-width:1.5;"/><line style="stroke:#000000;stroke-width:1.5;" x1="693" x2="750" y1="738.6699" y2="738.6699"/><text fill="#000000" font-family="sans-serif" font-size="14" font-weight="bold" lengthAdjust="spacing" textLength="44" x="697" y="730.5679">model</text></g><!--MD5=[d87a68d062599fa0bc28914d210baaba]
cluster jssparser--><g id="cluster_jssparser"><path d="M719.5,759.602 L782.5,759.602 A3.75,3.75 0 0 1 785,762.102 L792,784.6699 L1280.5,784.6699 A2.5,2.5 0 0 1 1283,787.1699 L1283,897.102 A2.5,2.5 0 0 1 1280.5,899.602 L719.5,899.602 A2.5,2.5 0 0 1 717,897.102 L717,762.102 A2.5,2.5 0 0 1 719.5,759.602 " fill="none" style="stroke:#000000;stroke-width:1.5;"/><line style="stroke:#000000;stroke-width:1.5;" x1="717" x2="792" y1="784.6699" y2="784.6699"/><text fill="#000000" font-family="sans-serif" font-size="14" font-weight="bold" lengthAdjust="spacing" textLength="62" x="721" y="776.5679">jssparser</text></g><!--MD5=[c52f45833d539af9e29a9d34b8b7302b]
cluster utils--><g id="cluster_utils"><path d="M1566.5,326.602 L1597.5,326.602 A3.75,3.75 0 0 1 1600,329.102 L1607,351.6699 L1879.5,351.6699 A2.5,2.5 0 0 1 1882,354.1699 L1882,445.102 A2.5,2.5 0 0 1 1879.5,447.602 L1566.5,447.602 A2.5,2.5 0 0 1 1564,445.102 L1564,329.102 A2.5,2.5 0 0 1 1566.5,326.602 " fill="none" style="stroke:#000000;stroke-width:1.5;"/><line style="stroke:#000000;stroke-width:1.5;" x1="1564" x2="1607" y1="351.6699" y2="351.6699"/><text fill="#000000" font-family="sans-serif" font-size="14" font-weight="bold" lengthAdjust="spacing" textLength="30" x="1568" y="343.5679">utils</text></g><!--MD5=[078efc812ec3517f16515a0cc8bfe76c]
class ErrorController--><g id="elem_ErrorController"><rect codeLine="9" fill="#F1F1F1" height="67.0679" id="ErrorController" rx="2.5" ry="2.5" style="stroke:#181818;stroke-width:0.5;" width="133" x="46.5" y="155.602"/><ellipse cx="61.5" cy="171.602" fill="#ADD1B2" rx="11" ry="11" style="stroke:#181818;stroke-width:1.0;"/><path d="M60.9688,178.5239 Q59.2188,178.5239 58.0781,177.7895 Q56.9531,177.0395 56.3906,175.6957 Q55.8438,174.3364 55.8438,172.5395 Q55.8438,170.5082 56.5,169.0551 Q57.1563,167.602 58.4375,166.8207 Q59.7188,166.0395 61.5938,166.0395 Q62.4844,166.0395 63.1563,166.227 Q63.8281,166.3989 64.5156,166.7426 L63.7031,168.7582 Q63.0781,168.4457 62.5313,168.3207 Q62,168.1957 61.5156,168.1957 Q60.3438,168.1957 59.6406,168.727 Q58.9375,169.2582 58.6406,170.2114 Q58.3438,171.1645 58.3438,172.4301 Q58.3438,174.4457 59.0625,175.4145 Q59.7813,176.3676 61.375,176.3676 Q61.9688,176.3676 62.5938,176.2114 Q63.2188,176.0551 64.0469,175.6801 L64.0469,177.8989 Q63.3125,178.2114 62.5156,178.3676 Q61.7344,178.5239 60.9688,178.5239 Z " fill="#000000"/><text fill="#000000" font-family="sans-serif" font-size="14" lengthAdjust="spacing" textLength="101" x="75.5" y="177.034">ErrorController</text><line style="stroke:#181818;stroke-width:0.5;" x1="47.5" x2="178.5" y1="187.602" y2="187.602"/><rect fill="none" height="6" style="stroke:#C82930;stroke-width:1.0;" width="6" x="54.5" y="199.6359"/><text fill="#000000" font-family="sans-serif" font-size="14" lengthAdjust="spacing" textLength="72" x="66.5" y="206.5679">Error error</text><line style="stroke:#181818;stroke-width:0.5;" x1="47.5" x2="178.5" y1="214.6699" y2="214.6699"/></g><!--MD5=[50ebd45f45accd13d980f986bd8af47d]
class Scannable--><g id="elem_Scannable"><rect fill="#F1F1F1" height="48" id="Scannable" rx="2.5" ry="2.5" style="stroke:#181818;stroke-width:0.5;" width="102" x="215" y="165.102"/><ellipse cx="230" cy="181.102" fill="#ADD1B2" rx="11" ry="11" style="stroke:#181818;stroke-width:1.0;"/><path d="M229.4688,188.0239 Q227.7188,188.0239 226.5781,187.2895 Q225.4531,186.5395 224.8906,185.1957 Q224.3438,183.8364 224.3438,182.0395 Q224.3438,180.0082 225,178.5551 Q225.6563,177.102 226.9375,176.3207 Q228.2188,175.5395 230.0938,175.5395 Q230.9844,175.5395 231.6563,175.727 Q232.3281,175.8989 233.0156,176.2426 L232.2031,178.2582 Q231.5781,177.9457 231.0313,177.8207 Q230.5,177.6957 230.0156,177.6957 Q228.8438,177.6957 228.1406,178.227 Q227.4375,178.7582 227.1406,179.7114 Q226.8438,180.6645 226.8438,181.9301 Q226.8438,183.9457 227.5625,184.9145 Q228.2813,185.8676 229.875,185.8676 Q230.4688,185.8676 231.0938,185.7114 Q231.7188,185.5551 232.5469,185.1801 L232.5469,187.3989 Q231.8125,187.7114 231.0156,187.8676 Q230.2344,188.0239 229.4688,188.0239 Z " fill="#000000"/><text fill="#000000" font-family="sans-serif" font-size="14" lengthAdjust="spacing" textLength="70" x="244" y="186.534">Scannable</text><line style="stroke:#181818;stroke-width:0.5;" x1="216" x2="316" y1="197.102" y2="197.102"/><line style="stroke:#181818;stroke-width:0.5;" x1="216" x2="316" y1="205.102" y2="205.102"/></g><!--MD5=[0478eee3cab6329f179af95997d0a1c7]
class ParserFactory--><g id="elem_ParserFactory"><rect codeLine="18" fill="#F1F1F1" height="67.0679" id="ParserFactory" rx="2.5" ry="2.5" style="stroke:#181818;stroke-width:0.5;" width="173" x="1181.5" y="155.602"/><ellipse cx="1219" cy="171.602" fill="#EB937F" rx="11" ry="11" style="stroke:#181818;stroke-width:1.0;"/><path d="M1215.3594,178.102 L1215.3594,165.9614 L1223.0156,165.9614 L1223.0156,168.0864 L1217.7344,168.0864 L1217.7344,170.7426 L1222.75,170.7426 L1222.75,172.8676 L1217.7344,172.8676 L1217.7344,175.977 L1223.0156,175.977 L1223.0156,178.102 L1215.3594,178.102 Z " fill="#000000"/><text fill="#000000" font-family="sans-serif" font-size="14" lengthAdjust="spacing" textLength="91" x="1238" y="177.034">ParserFactory</text><line style="stroke:#181818;stroke-width:0.5;" x1="1182.5" x2="1353.5" y1="187.602" y2="187.602"/><line style="stroke:#181818;stroke-width:0.5;" x1="1182.5" x2="1353.5" y1="195.602" y2="195.602"/><ellipse cx="1192.5" cy="210.6359" fill="#84BE84" rx="3" ry="3" style="stroke:#038048;stroke-width:1.0;"/><text fill="#000000" font-family="sans-serif" font-size="14" lengthAdjust="spacing" textLength="147" x="1201.5" y="214.5679">getParser(): Parseable</text></g><!--MD5=[d88cac1ca16930b80ad72f4d801b81da]
class Parseable--><g id="elem_Parseable"><rect codeLine="22" fill="#F1F1F1" height="105.2038" id="Parseable" rx="2.5" ry="2.5" style="stroke:#181818;stroke-width:0.5;" width="172" x="974" y="136.602"/><ellipse cx="1024.75" cy="152.602" fill="#B4A7E5" rx="11" ry="11" style="stroke:#181818;stroke-width:1.0;"/><path d="M1020.7813,159.102 L1020.7813,157.3989 L1023.1406,157.1332 L1023.1406,148.9301 L1020.7813,148.6645 L1020.7813,146.9614 L1027.9219,146.9614 L1027.9219,148.6645 L1025.5,148.9301 L1025.5,157.1332 L1027.9219,157.3989 L1027.9219,159.102 L1020.7813,159.102 Z " fill="#000000"/><text fill="#000000" font-family="sans-serif" font-size="14" font-style="italic" lengthAdjust="spacing" textLength="62" x="1045.25" y="158.034">Parseable</text><line style="stroke:#181818;stroke-width:0.5;" x1="975" x2="1145" y1="168.602" y2="168.602"/><line style="stroke:#181818;stroke-width:0.5;" x1="975" x2="1145" y1="176.602" y2="176.602"/><ellipse cx="985" cy="191.6359" fill="#84BE84" rx="3" ry="3" style="stroke:#038048;stroke-width:1.0;"/><text fill="#000000" font-family="sans-serif" font-size="14" lengthAdjust="spacing" textLength="118" x="994" y="195.5679">getToken(): Token</text><ellipse cx="985" cy="210.7039" fill="#84BE84" rx="3" ry="3" style="stroke:#038048;stroke-width:1.0;"/><text fill="#000000" font-family="sans-serif" font-size="14" lengthAdjust="spacing" textLength="146" x="994" y="214.6358">isEndOfFile(): boolean</text><ellipse cx="985" cy="229.7718" fill="#84BE84" rx="3" ry="3" style="stroke:#038048;stroke-width:1.0;"/><text fill="#000000" font-family="sans-serif" font-size="14" lengthAdjust="spacing" textLength="120" x="994" y="233.7038">readFile():boolean</text></g><!--MD5=[eac9f740f28b663857d6b3913ef5fd92]
class JSSParser--><g id="elem_JSSParser"><rect codeLine="29" fill="#F1F1F1" height="143.3396" id="JSSParser" rx="2.5" ry="2.5" style="stroke:#181818;stroke-width:0.5;" width="346" x="822" y="326.602"/><ellipse cx="959.25" cy="342.602" fill="#ADD1B2" rx="11" ry="11" style="stroke:#181818;stroke-width:1.0;"/><path d="M958.7188,349.5239 Q956.9688,349.5239 955.8281,348.7895 Q954.7031,348.0395 954.1406,346.6957 Q953.5938,345.3364 953.5938,343.5395 Q953.5938,341.5082 954.25,340.0551 Q954.9063,338.602 956.1875,337.8207 Q957.4688,337.0395 959.3438,337.0395 Q960.2344,337.0395 960.9063,337.227 Q961.5781,337.3989 962.2656,337.7426 L961.4531,339.7582 Q960.8281,339.4457 960.2813,339.3207 Q959.75,339.1957 959.2656,339.1957 Q958.0938,339.1957 957.3906,339.727 Q956.6875,340.2582 956.3906,341.2114 Q956.0938,342.1645 956.0938,343.4301 Q956.0938,345.4457 956.8125,346.4145 Q957.5313,347.3676 959.125,347.3676 Q959.7188,347.3676 960.3438,347.2114 Q960.9688,347.0551 961.7969,346.6801 L961.7969,348.8989 Q961.0625,349.2114 960.2656,349.3676 Q959.4844,349.5239 958.7188,349.5239 Z " fill="#000000"/><text fill="#000000" font-family="sans-serif" font-size="14" lengthAdjust="spacing" textLength="63" x="979.75" y="348.034">JSSParser</text><line style="stroke:#181818;stroke-width:0.5;" x1="823" x2="1167" y1="358.602" y2="358.602"/><rect fill="none" height="6" style="stroke:#C82930;stroke-width:1.0;" width="6" x="830" y="370.6359"/><text fill="#000000" font-family="sans-serif" font-size="14" lengthAdjust="spacing" textLength="320" x="842" y="377.5679">TransitionFunctionController transitionFunction</text><rect fill="none" height="6" style="stroke:#C82930;stroke-width:1.0;" width="6" x="830" y="389.7039"/><text fill="#000000" font-family="sans-serif" font-size="14" lengthAdjust="spacing" textLength="47" x="842" y="396.6358">int line</text><rect fill="none" height="6" style="stroke:#C82930;stroke-width:1.0;" width="6" x="830" y="408.7718"/><text fill="#000000" font-family="sans-serif" font-size="14" lengthAdjust="spacing" textLength="72" x="842" y="415.7038">int column</text><rect fill="none" height="6" style="stroke:#C82930;stroke-width:1.0;" width="6" x="830" y="427.8397"/><text fill="#000000" font-family="sans-serif" font-size="14" lengthAdjust="spacing" textLength="76" x="842" y="434.7717">String path</text><rect fill="none" height="6" style="stroke:#C82930;stroke-width:1.0;" width="6" x="830" y="446.9076"/><text fill="#000000" font-family="sans-serif" font-size="14" lengthAdjust="spacing" textLength="96" x="842" y="453.8396">String content</text><line style="stroke:#181818;stroke-width:0.5;" x1="823" x2="1167" y1="461.9416" y2="461.9416"/></g><!--MD5=[b97990143cc4bd87f12ec7243efaed92]
class AccecptanceStatesController--><g id="elem_AccecptanceStatesController"><rect codeLine="37" fill="#F1F1F1" height="67.0679" id="AccecptanceStatesController" rx="2.5" ry="2.5" style="stroke:#181818;stroke-width:0.5;" width="314" x="1138" y="540.102"/><ellipse cx="1194.75" cy="556.102" fill="#ADD1B2" rx="11" ry="11" style="stroke:#181818;stroke-width:1.0;"/><path d="M1194.2188,563.0239 Q1192.4688,563.0239 1191.3281,562.2895 Q1190.2031,561.5395 1189.6406,560.1957 Q1189.0938,558.8364 1189.0938,557.0395 Q1189.0938,555.0082 1189.75,553.5551 Q1190.4063,552.102 1191.6875,551.3207 Q1192.9688,550.5395 1194.8438,550.5395 Q1195.7344,550.5395 1196.4063,550.727 Q1197.0781,550.8989 1197.7656,551.2426 L1196.9531,553.2582 Q1196.3281,552.9457 1195.7813,552.8207 Q1195.25,552.6957 1194.7656,552.6957 Q1193.5938,552.6957 1192.8906,553.227 Q1192.1875,553.7582 1191.8906,554.7114 Q1191.5938,555.6645 1191.5938,556.9301 Q1191.5938,558.9457 1192.3125,559.9145 Q1193.0313,560.8676 1194.625,560.8676 Q1195.2188,560.8676 1195.8438,560.7114 Q1196.4688,560.5551 1197.2969,560.1801 L1197.2969,562.3989 Q1196.5625,562.7114 1195.7656,562.8676 Q1194.9844,563.0239 1194.2188,563.0239 Z " fill="#000000"/><text fill="#000000" font-family="sans-serif" font-size="14" lengthAdjust="spacing" textLength="192" x="1215.25" y="561.534">AccecptanceStatesController</text><line style="stroke:#181818;stroke-width:0.5;" x1="1139" x2="1451" y1="572.102" y2="572.102"/><line style="stroke:#181818;stroke-width:0.5;" x1="1139" x2="1451" y1="580.102" y2="580.102"/><ellipse cx="1149" cy="595.1359" fill="#84BE84" rx="3" ry="3" style="stroke:#038048;stroke-width:1.0;"/><text fill="#000000" font-family="sans-serif" font-size="14" lengthAdjust="spacing" textLength="288" x="1158" y="599.0679">getAcceptanceState(State state):TypeToken</text></g><!--MD5=[31861b41c4647b9f96692c6621f34f8c]
class TransitionFunctionController--><g id="elem_TransitionFunctionController"><rect codeLine="41" fill="#F1F1F1" height="86.1358" id="TransitionFunctionController" rx="2.5" ry="2.5" style="stroke:#181818;stroke-width:0.5;" width="351" x="373.5" y="530.602"/><ellipse cx="448.25" cy="546.602" fill="#ADD1B2" rx="11" ry="11" style="stroke:#181818;stroke-width:1.0;"/><path d="M447.7188,553.5239 Q445.9688,553.5239 444.8281,552.7895 Q443.7031,552.0395 443.1406,550.6957 Q442.5938,549.3364 442.5938,547.5395 Q442.5938,545.5082 443.25,544.0551 Q443.9063,542.602 445.1875,541.8207 Q446.4688,541.0395 448.3438,541.0395 Q449.2344,541.0395 449.9063,541.227 Q450.5781,541.3989 451.2656,541.7426 L450.4531,543.7582 Q449.8281,543.4457 449.2813,543.3207 Q448.75,543.1957 448.2656,543.1957 Q447.0938,543.1957 446.3906,543.727 Q445.6875,544.2582 445.3906,545.2114 Q445.0938,546.1645 445.0938,547.4301 Q445.0938,549.4457 445.8125,550.4145 Q446.5313,551.3676 448.125,551.3676 Q448.7188,551.3676 449.3438,551.2114 Q449.9688,551.0551 450.7969,550.6801 L450.7969,552.8989 Q450.0625,553.2114 449.2656,553.3676 Q448.4844,553.5239 447.7188,553.5239 Z " fill="#000000"/><text fill="#000000" font-family="sans-serif" font-size="14" lengthAdjust="spacing" textLength="193" x="468.75" y="552.034">TransitionFunctionController</text><line style="stroke:#181818;stroke-width:0.5;" x1="374.5" x2="723.5" y1="562.602" y2="562.602"/><rect fill="none" height="6" style="stroke:#C82930;stroke-width:1.0;" width="6" x="381.5" y="574.6359"/><text fill="#000000" font-family="sans-serif" font-size="14" lengthAdjust="spacing" textLength="141" x="393.5" y="581.5679">State[][] statesMatrix</text><line style="stroke:#181818;stroke-width:0.5;" x1="374.5" x2="723.5" y1="589.6699" y2="589.6699"/><ellipse cx="384.5" cy="604.7039" fill="#84BE84" rx="3" ry="3" style="stroke:#038048;stroke-width:1.0;"/><text fill="#000000" font-family="sans-serif" font-size="14" lengthAdjust="spacing" textLength="325" x="393.5" y="608.6358">delta(State state, AlphabetSymbol symbol): State</text></g><!--MD5=[f86968636a56cc71b3c72d857537c52d]
class AlphabetSymbolController--><g id="elem_AlphabetSymbolController"><rect codeLine="46" fill="#F1F1F1" height="86.1358" id="AlphabetSymbolController" rx="2.5" ry="2.5" style="stroke:#181818;stroke-width:0.5;" width="343" x="759.5" y="530.602"/><ellipse cx="838.25" cy="546.602" fill="#ADD1B2" rx="11" ry="11" style="stroke:#181818;stroke-width:1.0;"/><path d="M837.7188,553.5239 Q835.9688,553.5239 834.8281,552.7895 Q833.7031,552.0395 833.1406,550.6957 Q832.5938,549.3364 832.5938,547.5395 Q832.5938,545.5082 833.25,544.0551 Q833.9063,542.602 835.1875,541.8207 Q836.4688,541.0395 838.3438,541.0395 Q839.2344,541.0395 839.9063,541.227 Q840.5781,541.3989 841.2656,541.7426 L840.4531,543.7582 Q839.8281,543.4457 839.2813,543.3207 Q838.75,543.1957 838.2656,543.1957 Q837.0938,543.1957 836.3906,543.727 Q835.6875,544.2582 835.3906,545.2114 Q835.0938,546.1645 835.0938,547.4301 Q835.0938,549.4457 835.8125,550.4145 Q836.5313,551.3676 838.125,551.3676 Q838.7188,551.3676 839.3438,551.2114 Q839.9688,551.0551 840.7969,550.6801 L840.7969,552.8989 Q840.0625,553.2114 839.2656,553.3676 Q838.4844,553.5239 837.7188,553.5239 Z " fill="#000000"/><text fill="#000000" font-family="sans-serif" font-size="14" lengthAdjust="spacing" textLength="177" x="858.75" y="552.034">AlphabetSymbolController</text><line style="stroke:#181818;stroke-width:0.5;" x1="760.5" x2="1101.5" y1="562.602" y2="562.602"/><line style="stroke:#181818;stroke-width:0.5;" x1="760.5" x2="1101.5" y1="570.602" y2="570.602"/><ellipse cx="770.5" cy="585.6359" fill="#84BE84" rx="3" ry="3" style="stroke:#038048;stroke-width:1.0;"/><text fill="#000000" font-family="sans-serif" font-size="14" lengthAdjust="spacing" textLength="222" x="779.5" y="589.5679">isCharacterTerminator(): boolean</text><ellipse cx="770.5" cy="604.7039" fill="#84BE84" rx="3" ry="3" style="stroke:#038048;stroke-width:1.0;"/><text fill="#000000" font-family="sans-serif" font-size="14" lengthAdjust="spacing" textLength="317" x="779.5" y="608.6358">getAlphabetSymbol(char test): AlphabetSymbol</text></g><!--MD5=[d8c8cfd5ca149094f5b67f9f607a5ec7]
class Token--><g id="elem_Token"><rect codeLine="78" fill="#F1F1F1" height="124.2717" id="Token" rx="2.5" ry="2.5" style="stroke:#181818;stroke-width:0.5;" width="171" x="1301.5" y="778.602"/><ellipse cx="1362.75" cy="794.602" fill="#ADD1B2" rx="11" ry="11" style="stroke:#181818;stroke-width:1.0;"/><path d="M1362.2188,801.5239 Q1360.4688,801.5239 1359.3281,800.7895 Q1358.2031,800.0395 1357.6406,798.6957 Q1357.0938,797.3364 1357.0938,795.5395 Q1357.0938,793.5082 1357.75,792.0551 Q1358.4063,790.602 1359.6875,789.8207 Q1360.9688,789.0395 1362.8438,789.0395 Q1363.7344,789.0395 1364.4063,789.227 Q1365.0781,789.3989 1365.7656,789.7426 L1364.9531,791.7582 Q1364.3281,791.4457 1363.7813,791.3207 Q1363.25,791.1957 1362.7656,791.1957 Q1361.5938,791.1957 1360.8906,791.727 Q1360.1875,792.2582 1359.8906,793.2114 Q1359.5938,794.1645 1359.5938,795.4301 Q1359.5938,797.4457 1360.3125,798.4145 Q1361.0313,799.3676 1362.625,799.3676 Q1363.2188,799.3676 1363.8438,799.2114 Q1364.4688,799.0551 1365.2969,798.6801 L1365.2969,800.8989 Q1364.5625,801.2114 1363.7656,801.3676 Q1362.9844,801.5239 1362.2188,801.5239 Z " fill="#000000"/><text fill="#000000" font-family="sans-serif" font-size="14" lengthAdjust="spacing" textLength="40" x="1383.25" y="800.034">Token</text><line style="stroke:#181818;stroke-width:0.5;" x1="1302.5" x2="1471.5" y1="810.602" y2="810.602"/><rect fill="none" height="6" style="stroke:#C82930;stroke-width:1.0;" width="6" x="1309.5" y="822.6359"/><text fill="#000000" font-family="sans-serif" font-size="14" lengthAdjust="spacing" textLength="145" x="1321.5" y="829.5679">TypeToken typeToken</text><rect fill="none" height="6" style="stroke:#C82930;stroke-width:1.0;" width="6" x="1309.5" y="841.7039"/><text fill="#000000" font-family="sans-serif" font-size="14" lengthAdjust="spacing" textLength="47" x="1321.5" y="848.6358">int line</text><rect fill="none" height="6" style="stroke:#C82930;stroke-width:1.0;" width="6" x="1309.5" y="860.7718"/><text fill="#000000" font-family="sans-serif" font-size="14" lengthAdjust="spacing" textLength="72" x="1321.5" y="867.7038">int column</text><rect fill="none" height="6" style="stroke:#C82930;stroke-width:1.0;" width="6" x="1309.5" y="879.8397"/><text fill="#000000" font-family="sans-serif" font-size="14" lengthAdjust="spacing" textLength="76" x="1321.5" y="886.7717">String path</text><line style="stroke:#181818;stroke-width:0.5;" x1="1302.5" x2="1471.5" y1="894.8736" y2="894.8736"/></g><!--MD5=[1147ad1d3bd68c3cc5ba8629663b3aad]
class TypeToken--><g id="elem_TypeToken"><rect codeLine="85" fill="#F1F1F1" height="48" id="TypeToken" rx="2.5" ry="2.5" style="stroke:#181818;stroke-width:0.5;" width="104" x="1352" y="963.602"/><ellipse cx="1367" cy="979.602" fill="#EB937F" rx="11" ry="11" style="stroke:#181818;stroke-width:1.0;"/><path d="M1363.3594,986.102 L1363.3594,973.9614 L1371.0156,973.9614 L1371.0156,976.0864 L1365.7344,976.0864 L1365.7344,978.7426 L1370.75,978.7426 L1370.75,980.8676 L1365.7344,980.8676 L1365.7344,983.977 L1371.0156,983.977 L1371.0156,986.102 L1363.3594,986.102 Z " fill="#000000"/><text fill="#000000" font-family="sans-serif" font-size="14" lengthAdjust="spacing" textLength="72" x="1381" y="985.034">TypeToken</text><line style="stroke:#181818;stroke-width:0.5;" x1="1353" x2="1455" y1="995.602" y2="995.602"/><line style="stroke:#181818;stroke-width:0.5;" x1="1353" x2="1455" y1="1003.602" y2="1003.602"/></g><!--MD5=[60d6b92408f98aed8df94d5c6e04aa63]
class State--><g id="elem_State"><rect codeLine="90" fill="#F1F1F1" height="86.1358" id="State" rx="2.5" ry="2.5" style="stroke:#181818;stroke-width:0.5;" width="66" x="910" y="797.602"/><ellipse cx="925" cy="813.602" fill="#EB937F" rx="11" ry="11" style="stroke:#181818;stroke-width:1.0;"/><path d="M921.3594,820.102 L921.3594,807.9614 L929.0156,807.9614 L929.0156,810.0864 L923.7344,810.0864 L923.7344,812.7426 L928.75,812.7426 L928.75,814.8676 L923.7344,814.8676 L923.7344,817.977 L929.0156,817.977 L929.0156,820.102 L921.3594,820.102 Z " fill="#000000"/><text fill="#000000" font-family="sans-serif" font-size="14" lengthAdjust="spacing" textLength="34" x="939" y="819.034">State</text><line style="stroke:#181818;stroke-width:0.5;" x1="911" x2="975" y1="829.602" y2="829.602"/><ellipse cx="921" cy="844.6359" fill="none" rx="3" ry="3" style="stroke:#038048;stroke-width:1.0;"/><text fill="#000000" font-family="sans-serif" font-size="14" lengthAdjust="spacing" textLength="24" x="930" y="848.5679">ST0</text><ellipse cx="921" cy="863.7039" fill="none" rx="3" ry="3" style="stroke:#038048;stroke-width:1.0;"/><text fill="#000000" font-family="sans-serif" font-size="14" lengthAdjust="spacing" textLength="24" x="930" y="867.6358">ST1</text><line style="stroke:#181818;stroke-width:0.5;" x1="911" x2="975" y1="875.7378" y2="875.7378"/></g><!--MD5=[ee7eac268c8c0ebc40a11ea4a12dc29f]
class AccecptanceStates--><g id="elem_AccecptanceStates"><rect codeLine="95" fill="#F1F1F1" height="86.1358" id="AccecptanceStates" rx="2.5" ry="2.5" style="stroke:#181818;stroke-width:0.5;" width="255" x="1011.5" y="797.602"/><ellipse cx="1072.25" cy="813.602" fill="#ADD1B2" rx="11" ry="11" style="stroke:#181818;stroke-width:1.0;"/><path d="M1071.7188,820.5239 Q1069.9688,820.5239 1068.8281,819.7895 Q1067.7031,819.0395 1067.1406,817.6957 Q1066.5938,816.3364 1066.5938,814.5395 Q1066.5938,812.5082 1067.25,811.0551 Q1067.9063,809.602 1069.1875,808.8207 Q1070.4688,808.0395 1072.3438,808.0395 Q1073.2344,808.0395 1073.9063,808.227 Q1074.5781,808.3989 1075.2656,808.7426 L1074.4531,810.7582 Q1073.8281,810.4457 1073.2813,810.3207 Q1072.75,810.1957 1072.2656,810.1957 Q1071.0938,810.1957 1070.3906,810.727 Q1069.6875,811.2582 1069.3906,812.2114 Q1069.0938,813.1645 1069.0938,814.4301 Q1069.0938,816.4457 1069.8125,817.4145 Q1070.5313,818.3676 1072.125,818.3676 Q1072.7188,818.3676 1073.3438,818.2114 Q1073.9688,818.0551 1074.7969,817.6801 L1074.7969,819.8989 Q1074.0625,820.2114 1073.2656,820.3676 Q1072.4844,820.5239 1071.7188,820.5239 Z " fill="#000000"/><text fill="#000000" font-family="sans-serif" font-size="14" lengthAdjust="spacing" textLength="125" x="1092.75" y="819.034">AccecptanceStates</text><line style="stroke:#181818;stroke-width:0.5;" x1="1012.5" x2="1265.5" y1="829.602" y2="829.602"/><rect fill="none" height="6" style="stroke:#C82930;stroke-width:1.0;" width="6" x="1019.5" y="841.6359"/><text fill="#000000" font-family="sans-serif" font-size="14" lengthAdjust="spacing" textLength="194" x="1031.5" y="848.5679">List&lt;State&gt; acceptanceStates</text><line style="stroke:#181818;stroke-width:0.5;" x1="1012.5" x2="1265.5" y1="856.6699" y2="856.6699"/><ellipse cx="1022.5" cy="871.7039" fill="#84BE84" rx="3" ry="3" style="stroke:#038048;stroke-width:1.0;"/><text fill="#000000" font-family="sans-serif" font-size="14" lengthAdjust="spacing" textLength="229" x="1031.5" y="875.6358">getAcceptanceStates(): List&lt;State&gt;</text></g><!--MD5=[6472481ed12ac8a721dfea62ea108537]
class AlphabetSymbol--><g id="elem_AlphabetSymbol"><rect codeLine="102" fill="#F1F1F1" height="86.1358" id="AlphabetSymbol" rx="2.5" ry="2.5" style="stroke:#181818;stroke-width:0.5;" width="142" x="733" y="797.602"/><ellipse cx="748" cy="813.602" fill="#EB937F" rx="11" ry="11" style="stroke:#181818;stroke-width:1.0;"/><path d="M744.3594,820.102 L744.3594,807.9614 L752.0156,807.9614 L752.0156,810.0864 L746.7344,810.0864 L746.7344,812.7426 L751.75,812.7426 L751.75,814.8676 L746.7344,814.8676 L746.7344,817.977 L752.0156,817.977 L752.0156,820.102 L744.3594,820.102 Z " fill="#000000"/><text fill="#000000" font-family="sans-serif" font-size="14" lengthAdjust="spacing" textLength="110" x="762" y="819.034">AlphabetSymbol</text><line style="stroke:#181818;stroke-width:0.5;" x1="734" x2="874" y1="829.602" y2="829.602"/><ellipse cx="744" cy="844.6359" fill="none" rx="3" ry="3" style="stroke:#038048;stroke-width:1.0;"/><text fill="#000000" font-family="sans-serif" font-size="14" lengthAdjust="spacing" textLength="38" x="753" y="848.5679">DIGIT</text><ellipse cx="744" cy="863.7039" fill="none" rx="3" ry="3" style="stroke:#038048;stroke-width:1.0;"/><text fill="#000000" font-family="sans-serif" font-size="14" lengthAdjust="spacing" textLength="48" x="753" y="867.6358">LETTER</text><line style="stroke:#181818;stroke-width:0.5;" x1="734" x2="874" y1="875.7378" y2="875.7378"/></g><!--MD5=[4dfdd06a2f1ad6c99d1b1849ac7e2a12]
class ManageFiles--><g id="elem_ManageFiles"><rect codeLine="125" fill="#F1F1F1" height="67.0679" id="ManageFiles" rx="2.5" ry="2.5" style="stroke:#181818;stroke-width:0.5;" width="286" x="1580" y="364.602"/><ellipse cx="1676.25" cy="380.602" fill="#ADD1B2" rx="11" ry="11" style="stroke:#181818;stroke-width:1.0;"/><path d="M1675.7188,387.5239 Q1673.9688,387.5239 1672.8281,386.7895 Q1671.7031,386.0395 1671.1406,384.6957 Q1670.5938,383.3364 1670.5938,381.5395 Q1670.5938,379.5082 1671.25,378.0551 Q1671.9063,376.602 1673.1875,375.8207 Q1674.4688,375.0395 1676.3438,375.0395 Q1677.2344,375.0395 1677.9063,375.227 Q1678.5781,375.3989 1679.2656,375.7426 L1678.4531,377.7582 Q1677.8281,377.4457 1677.2813,377.3207 Q1676.75,377.1957 1676.2656,377.1957 Q1675.0938,377.1957 1674.3906,377.727 Q1673.6875,378.2582 1673.3906,379.2114 Q1673.0938,380.1645 1673.0938,381.4301 Q1673.0938,383.4457 1673.8125,384.4145 Q1674.5313,385.3676 1676.125,385.3676 Q1676.7188,385.3676 1677.3438,385.2114 Q1677.9688,385.0551 1678.7969,384.6801 L1678.7969,386.8989 Q1678.0625,387.2114 1677.2656,387.3676 Q1676.4844,387.5239 1675.7188,387.5239 Z " fill="#000000"/><text fill="#000000" font-family="sans-serif" font-size="14" lengthAdjust="spacing" textLength="85" x="1696.75" y="386.034">ManageFiles</text><line style="stroke:#181818;stroke-width:0.5;" x1="1581" x2="1865" y1="396.602" y2="396.602"/><line style="stroke:#181818;stroke-width:0.5;" x1="1581" x2="1865" y1="404.602" y2="404.602"/><ellipse cx="1591" cy="419.6359" fill="#84BE84" rx="3" ry="3" style="stroke:#038048;stroke-width:1.0;"/><text fill="#000000" font-family="sans-serif" font-size="14" lengthAdjust="spacing" textLength="260" x="1600" y="423.5679">String readTextFile(String path): String</text></g><!--MD5=[1c3451a090f5635e98def74b3b058b0b]
reverse link JSSParser to TransitionFunctionController--><g id="link_JSSParser_TransitionFunctionController"><path codeLine="51" d="M809.51,471.262 C757.65,491.432 702.99,512.692 657.21,530.502 " fill="none" id="JSSParser-backto-TransitionFunctionController" style="stroke:#181818;stroke-width:1.0;"/><polygon fill="#181818" points="821.93,466.432,814.8878,464.8802,810.7469,470.7839,817.7891,472.3356,821.93,466.432" style="stroke:#181818;stroke-width:1.0;"/></g><!--MD5=[f4bf65d07ae40cecca9e22fce103c089]
link JSSParser to AccecptanceStatesController--><g id="link_JSSParser_AccecptanceStatesController"><path codeLine="52" d="M1117.02,469.672 C1157.39,493.012 1200.55,517.982 1234.27,537.482 " fill="none" id="JSSParser-to-AccecptanceStatesController" style="stroke:#181818;stroke-width:1.0;"/><polygon fill="#181818" points="1238.75,540.072,1232.9767,532.0927,1234.4265,537.5606,1228.9585,539.0104,1238.75,540.072" style="stroke:#181818;stroke-width:1.0;"/></g><!--MD5=[89e7be71549d46089099f9b483e87f65]
link JSSParser to AlphabetSymbolController--><g id="link_JSSParser_AlphabetSymbolController"><path codeLine="53" d="M968.97,469.672 C962.01,488.542 954.66,508.462 948.3,525.702 " fill="none" id="JSSParser-to-AlphabetSymbolController" style="stroke:#181818;stroke-width:1.0;"/><polygon fill="#181818" points="946.53,530.492,953.3907,523.4258,948.2559,525.7993,945.8824,520.6644,946.53,530.492" style="stroke:#181818;stroke-width:1.0;"/></g><!--MD5=[9f498e688cfa9190767d180e4c53e7ac]
reverse link Parseable to ParserFactory--><g id="link_Parseable_ParserFactory"><path codeLine="58" d="M1151.35,189.102 C1161.35,189.102 1171.35,189.102 1181.35,189.102 " fill="none" id="Parseable-backto-ParserFactory" style="stroke:#181818;stroke-width:1.0;stroke-dasharray:7.0,7.0;"/><polygon fill="#181818" points="1146.12,189.102,1155.1314,193.0763,1151.12,189.0877,1155.1085,185.0763,1146.12,189.102" style="stroke:#181818;stroke-width:1.0;"/></g><!--MD5=[95584712e84bcd80f2992bb9b13fc454]
reverse link Parseable to JSSParser--><g id="link_Parseable_JSSParser"><path codeLine="60" d="M1037.75,260.972 C1031.09,282.162 1023.8,305.392 1017.15,326.562 " fill="none" id="Parseable-backto-JSSParser" style="stroke:#181818;stroke-width:1.0;"/><polygon fill="none" points="1031.1,258.792,1043.77,241.802,1044.45,262.982,1031.1,258.792" style="stroke:#181818;stroke-width:1.0;"/></g><!--MD5=[41ec22335e8039bd08e708d24e562171]
link Scannable to Parseable--><g id="link_Scannable_Parseable"><path codeLine="70" d="M317.18,189.102 C448.82,189.102 800.56,189.102 968.41,189.102 " fill="none" id="Scannable-to-Parseable" style="stroke:#181818;stroke-width:1.0;"/><polygon fill="#181818" points="973.81,189.102,964.81,185.102,968.81,189.102,964.81,193.102,973.81,189.102" style="stroke:#181818;stroke-width:1.0;"/><text fill="#000000" font-family="sans-serif" font-size="13" lengthAdjust="spacing" textLength="57" x="617" y="181.999">getToken</text></g><!--MD5=[88f8ae98fe0f0b6effa2e70597d5c710]
reverse link Token to TypeToken--><g id="link_Token_TypeToken"><path codeLine="108" d="M1395.68,915.632 C1397.72,933.052 1399.75,950.362 1401.29,963.522 " fill="none" id="Token-backto-TypeToken" style="stroke:#181818;stroke-width:1.0;"/><polygon fill="#181818" points="1394.16,902.672,1390.8868,909.0974,1395.559,914.5901,1398.8322,908.1647,1394.16,902.672" style="stroke:#181818;stroke-width:1.0;"/></g><!--MD5=[de50302e1424c64d168114d37cacf060]
link Parseable to Token--><g id="link_Parseable_Token"><path codeLine="116" d="M1146.23,235.442 C1152.16,237.732 1158.12,239.822 1164,241.602 C1229.19,261.322 1423.01,229.472 1468,280.602 C1587.79,416.742 1512.19,512.732 1468,688.602 C1460.53,718.332 1445.95,748.592 1431.2,774.142 " fill="none" id="Parseable-to-Token" style="stroke:#181818;stroke-width:1.0;stroke-dasharray:7.0,7.0;"/><polygon fill="#181818" points="1428.63,778.522,1436.6235,772.7684,1431.152,774.2046,1429.7157,768.7332,1428.63,778.522" style="stroke:#181818;stroke-width:1.0;"/></g><!--MD5=[ce40d134d3fa51f76fdb42267b2fff79]
link AccecptanceStatesController to AccecptanceStates--><g id="link_AccecptanceStatesController_AccecptanceStates"><path codeLine="117" d="M1275.71,607.362 C1248.28,653.962 1197.84,739.642 1166.5,792.892 " fill="none" id="AccecptanceStatesController-to-AccecptanceStates" style="stroke:#181818;stroke-width:1.0;"/><polygon fill="#181818" points="1163.9,797.302,1171.9101,791.5715,1166.4345,792.9919,1165.014,787.5163,1163.9,797.302" style="stroke:#181818;stroke-width:1.0;"/></g><!--MD5=[755290b8afaf81d1f05cb04bd2507221]
link AccecptanceStatesController to TypeToken--><g id="link_AccecptanceStatesController_TypeToken"><path codeLine="118" d="M1377.34,607.192 C1419.16,628.452 1466.07,660.702 1490,705.602 C1532.22,784.832 1526.11,825.402 1490,907.602 C1480.75,928.652 1462.83,946.552 1445.72,959.962 " fill="none" id="AccecptanceStatesController-to-TypeToken" style="stroke:#181818;stroke-width:1.0;stroke-dasharray:7.0,7.0;"/><polygon fill="#181818" points="1441.4,963.272,1450.9769,960.9734,1445.369,960.231,1446.1113,954.6231,1441.4,963.272" style="stroke:#181818;stroke-width:1.0;"/></g><!--MD5=[71b9ee338a01b6c331eccda502e43cd8]
reverse link TransitionFunctionController to State--><g id="link_TransitionFunctionController_State"><path codeLine="119" d="M616.63,624.122 C652.19,647.612 697.54,673.732 742,688.602 C774.02,699.312 866.38,684.822 893,705.602 C921.09,727.532 933.4,766.982 938.79,797.412 " fill="none" id="TransitionFunctionController-backto-State" style="stroke:#181818;stroke-width:1.0;"/><polygon fill="#181818" points="605.44,616.612,608.1851,623.2802,615.3961,623.3109,612.651,616.6428,605.44,616.612" style="stroke:#181818;stroke-width:1.0;"/></g><!--MD5=[7f4f0c099f8951fcb7bacb634892bd84]
link TransitionFunctionController to AlphabetSymbol--><g id="link_TransitionFunctionController_AlphabetSymbol"><path codeLine="120" d="M589.69,616.882 C636.14,665.162 711.89,743.872 759.77,793.642 " fill="none" id="TransitionFunctionController-to-AlphabetSymbol" style="stroke:#181818;stroke-width:1.0;stroke-dasharray:7.0,7.0;"/><polygon fill="#181818" points="763.46,797.472,760.0922,788.2168,759.9893,793.8728,754.3334,793.7699,763.46,797.472" style="stroke:#181818;stroke-width:1.0;"/></g><!--MD5=[828b9bdb7fb5bcaf2a57fecaea150330]
link AlphabetSymbolController to AlphabetSymbol--><g id="link_AlphabetSymbolController_AlphabetSymbol"><path codeLine="121" d="M910.74,616.882 C887.74,664.872 850.33,742.932 826.46,792.742 " fill="none" id="AlphabetSymbolController-to-AlphabetSymbol" style="stroke:#181818;stroke-width:1.0;stroke-dasharray:7.0,7.0;"/><polygon fill="#181818" points="824.19,797.472,831.6795,791.0761,826.3458,792.9606,824.4613,787.6269,824.19,797.472" style="stroke:#181818;stroke-width:1.0;"/></g><!--MD5=[b65148df010d6faa056b7ac70130f4eb]
link Parseable to ManageFiles--><g id="link_Parseable_ManageFiles"><path codeLine="131" d="M1146.16,235.702 C1152.1,237.932 1158.09,239.932 1164,241.602 C1307.02,281.932 1354.97,227.922 1497,271.602 C1562.04,291.602 1629.3,331.932 1673.35,361.492 " fill="none" id="Parseable-to-ManageFiles" style="stroke:#181818;stroke-width:1.0;stroke-dasharray:7.0,7.0;"/><polygon fill="#181818" points="1677.54,364.322,1672.3232,355.9682,1673.3974,361.5222,1667.8435,362.5964,1677.54,364.322" style="stroke:#181818;stroke-width:1.0;"/></g><!--MD5=[941744dba035741a38541ac00491c678]
@startuml parserclassdiagram



package analyzer{

    package controller{

    
        class ErrorController{
            -Error error

        } 


    
        package parser{

            enum ParserFactory{
                +getParser(): Parseable
            }

            interface Parseable{
                +getToken(): Token
                +isEndOfFile(): boolean
                +readFile():boolean
            }

            package jssparsercontroller{
                class JSSParser{
                    -TransitionFunctionController transitionFunction
                    -int line
                    -int column
                    -String path
                    -String content
                }

                class AccecptanceStatesController{
                    +getAcceptanceState(State state):TypeToken
                }

                class TransitionFunctionController{
                    -State[][] statesMatrix
                    +delta(State state, AlphabetSymbol symbol): State
                }

                class AlphabetSymbolController{
                    +isCharacterTerminator(): boolean
                    +getAlphabetSymbol(char test): AlphabetSymbol
                }

                JSSParser *- - TransitionFunctionController
                JSSParser - -> AccecptanceStatesController
                JSSParser - -> AlphabetSymbolController

            }

            
            ParserFactory .left.> Parseable

            JSSParser -up-|> Parseable
            

        }



        

        
        Scannable -right-> Parseable: getToken

    }


    package model{


        class Token{
            -TypeToken typeToken
            -int line
            -int column 
            -String path
        }

        enum TypeToken{

        }

        package jssparser{
            enum State{
                +ST0
                +ST1
            }

            class AccecptanceStates{
                -List<State> acceptanceStates
                +getAcceptanceStates(): List<State>
            }

            

            enum AlphabetSymbol{
                +DIGIT
                +LETTER
            }
        }

        Token *- - TypeToken

    }

    

    

    Parseable ..> Token
    AccecptanceStatesController - -> AccecptanceStates
    AccecptanceStatesController ..> TypeToken
    TransitionFunctionController *- - State
    TransitionFunctionController ..> AlphabetSymbol
    AlphabetSymbolController ..> AlphabetSymbol
}

package utils{
        class ManageFiles{
            +String readTextFile(String path): String
        }
    }


Parseable ..> ManageFiles

@enduml

PlantUML version 1.2022.7(Mon Aug 22 11:01:30 CST 2022)
(GPL source distribution)
Java Runtime: OpenJDK Runtime Environment
JVM: OpenJDK 64-Bit Server VM
Default Encoding: UTF-8
Language: en
Country: US
--></g></svg>