<?xml version="1.0" encoding="UTF-8" standalone="no"?><svg xmlns="http://www.w3.org/2000/svg" xmlns:xlink="http://www.w3.org/1999/xlink" contentStyleType="text/css" height="857px" preserveAspectRatio="none" style="width:1045px;height:857px;background:#FFFFFF;" version="1.1" viewBox="0 0 1045 857" width="1045px" zoomAndPan="magnify"><defs/><g><!--MD5=[3bd817c1526d01a4e9c17d9a45a66e08]
cluster analyzer--><g id="cluster_analyzer"><path d="M8.5,71 L67.5,71 A3.75,3.75 0 0 1 70,73.5 L77,96.0679 L1035.5,96.0679 A2.5,2.5 0 0 1 1038,98.5679 L1038,847.5 A2.5,2.5 0 0 1 1035.5,850 L8.5,850 A2.5,2.5 0 0 1 6,847.5 L6,73.5 A2.5,2.5 0 0 1 8.5,71 " fill="none" style="stroke:#000000;stroke-width:1.5;"/><line style="stroke:#000000;stroke-width:1.5;" x1="6" x2="77" y1="96.0679" y2="96.0679"/><text fill="#000000" font-family="sans-serif" font-size="14" font-weight="bold" lengthAdjust="spacing" textLength="58" x="10" y="87.9659">analyzer</text></g><!--MD5=[10ea673caf457862023e152271927b45]
cluster controller--><g id="cluster_controller"><path d="M32.5,117 L101.5,117 A3.75,3.75 0 0 1 104,119.5 L111,142.0679 L1011.5,142.0679 A2.5,2.5 0 0 1 1014,144.5679 L1014,570.5 A2.5,2.5 0 0 1 1011.5,573 L32.5,573 A2.5,2.5 0 0 1 30,570.5 L30,119.5 A2.5,2.5 0 0 1 32.5,117 " fill="none" style="stroke:#000000;stroke-width:1.5;"/><line style="stroke:#000000;stroke-width:1.5;" x1="30" x2="111" y1="142.0679" y2="142.0679"/><text fill="#000000" font-family="sans-serif" font-size="14" font-weight="bold" lengthAdjust="spacing" textLength="68" x="34" y="133.9659">controller</text></g><!--MD5=[a43a0602824909ee7cb5f4554cd4a453]
cluster scanner--><g id="cluster_scanner"><path d="M56.5,310.5 L111.5,310.5 A3.75,3.75 0 0 1 114,313 L121,335.5679 L431.5,335.5679 A2.5,2.5 0 0 1 434,338.0679 L434,546.5 A2.5,2.5 0 0 1 431.5,549 L56.5,549 A2.5,2.5 0 0 1 54,546.5 L54,313 A2.5,2.5 0 0 1 56.5,310.5 " fill="none" style="stroke:#000000;stroke-width:1.5;"/><line style="stroke:#000000;stroke-width:1.5;" x1="54" x2="121" y1="335.5679" y2="335.5679"/><text fill="#000000" font-family="sans-serif" font-size="14" font-weight="bold" lengthAdjust="spacing" textLength="54" x="58" y="327.4659">scanner</text></g><!--MD5=[72fae8e1779ba7dedab19f6352fd74e8]
cluster parser--><g id="cluster_parser"><path d="M460.5,310.5 L505.5,310.5 A3.75,3.75 0 0 1 508,313 L515,335.5679 L609.5,335.5679 A2.5,2.5 0 0 1 612,338.0679 L612,537 A2.5,2.5 0 0 1 609.5,539.5 L460.5,539.5 A2.5,2.5 0 0 1 458,537 L458,313 A2.5,2.5 0 0 1 460.5,310.5 " fill="none" style="stroke:#000000;stroke-width:1.5;"/><line style="stroke:#000000;stroke-width:1.5;" x1="458" x2="515" y1="335.5679" y2="335.5679"/><text fill="#000000" font-family="sans-serif" font-size="14" font-weight="bold" lengthAdjust="spacing" textLength="44" x="462" y="327.4659">parser</text></g><!--MD5=[5d4cd377749310b66bf14896f5cd8d9b]
cluster model--><g id="cluster_model"><path d="M308.5,597 L353.5,597 A3.75,3.75 0 0 1 356,599.5 L363,622.0679 L902.5,622.0679 A2.5,2.5 0 0 1 905,624.5679 L905,823.5 A2.5,2.5 0 0 1 902.5,826 L308.5,826 A2.5,2.5 0 0 1 306,823.5 L306,599.5 A2.5,2.5 0 0 1 308.5,597 " fill="none" style="stroke:#000000;stroke-width:1.5;"/><line style="stroke:#000000;stroke-width:1.5;" x1="306" x2="363" y1="622.0679" y2="622.0679"/><text fill="#000000" font-family="sans-serif" font-size="14" font-weight="bold" lengthAdjust="spacing" textLength="44" x="310" y="613.9659">model</text></g><!--MD5=[30d8c28322589f84137aabb448e962ca]
class AnalyzerController--><g id="elem_AnalyzerController"><rect codeLine="11" fill="#F1F1F1" height="124.2717" id="AnalyzerController" rx="2.5" ry="2.5" style="stroke:#181818;stroke-width:0.5;" width="268" x="498" y="155"/><ellipse cx="565.25" cy="171" fill="#ADD1B2" rx="11" ry="11" style="stroke:#181818;stroke-width:1.0;"/><path d="M564.7188,177.9219 Q562.9688,177.9219 561.8281,177.1875 Q560.7031,176.4375 560.1406,175.0938 Q559.5938,173.7344 559.5938,171.9375 Q559.5938,169.9063 560.25,168.4531 Q560.9063,167 562.1875,166.2188 Q563.4688,165.4375 565.3438,165.4375 Q566.2344,165.4375 566.9063,165.625 Q567.5781,165.7969 568.2656,166.1406 L567.4531,168.1563 Q566.8281,167.8438 566.2813,167.7188 Q565.75,167.5938 565.2656,167.5938 Q564.0938,167.5938 563.3906,168.125 Q562.6875,168.6563 562.3906,169.6094 Q562.0938,170.5625 562.0938,171.8281 Q562.0938,173.8438 562.8125,174.8125 Q563.5313,175.7656 565.125,175.7656 Q565.7188,175.7656 566.3438,175.6094 Q566.9688,175.4531 567.7969,175.0781 L567.7969,177.2969 Q567.0625,177.6094 566.2656,177.7656 Q565.4844,177.9219 564.7188,177.9219 Z " fill="#000000"/><text fill="#000000" font-family="sans-serif" font-size="14" lengthAdjust="spacing" textLength="125" x="585.75" y="176.432">AnalyzerController</text><line style="stroke:#181818;stroke-width:0.5;" x1="499" x2="765" y1="187" y2="187"/><rect fill="none" height="6" style="stroke:#C82930;stroke-width:1.0;" width="6" x="506" y="199.034"/><text fill="#000000" font-family="sans-serif" font-size="14" lengthAdjust="spacing" textLength="135" x="518" y="205.9659">scanneable scanner</text><rect fill="none" height="6" style="stroke:#C82930;stroke-width:1.0;" width="6" x="506" y="218.1019"/><text fill="#000000" font-family="sans-serif" font-size="14" lengthAdjust="spacing" textLength="115" x="518" y="225.0339">parseable parser</text><rect fill="none" height="6" style="stroke:#C82930;stroke-width:1.0;" width="6" x="506" y="237.1698"/><text fill="#000000" font-family="sans-serif" font-size="14" lengthAdjust="spacing" textLength="242" x="518" y="244.1018">SymbolTableController symbolTable</text><rect fill="none" height="6" style="stroke:#C82930;stroke-width:1.0;" width="6" x="506" y="256.2377"/><text fill="#000000" font-family="sans-serif" font-size="14" lengthAdjust="spacing" textLength="139" x="518" y="263.1697">ErrorController error</text><line style="stroke:#181818;stroke-width:0.5;" x1="499" x2="765" y1="271.2717" y2="271.2717"/></g><!--MD5=[2bb698562f3043c7db240a641fae6128]
class SymbolTableController--><g id="elem_SymbolTableController"><rect codeLine="18" fill="#F1F1F1" height="67.0679" id="SymbolTableController" rx="2.5" ry="2.5" style="stroke:#181818;stroke-width:0.5;" width="201" x="628.5" y="339"/><ellipse cx="650.7" cy="355" fill="#ADD1B2" rx="11" ry="11" style="stroke:#181818;stroke-width:1.0;"/><path d="M650.1688,361.9219 Q648.4188,361.9219 647.2781,361.1875 Q646.1531,360.4375 645.5906,359.0938 Q645.0438,357.7344 645.0438,355.9375 Q645.0438,353.9063 645.7,352.4531 Q646.3563,351 647.6375,350.2188 Q648.9188,349.4375 650.7938,349.4375 Q651.6844,349.4375 652.3563,349.625 Q653.0281,349.7969 653.7156,350.1406 L652.9031,352.1563 Q652.2781,351.8438 651.7313,351.7188 Q651.2,351.5938 650.7156,351.5938 Q649.5438,351.5938 648.8406,352.125 Q648.1375,352.6563 647.8406,353.6094 Q647.5438,354.5625 647.5438,355.8281 Q647.5438,357.8438 648.2625,358.8125 Q648.9813,359.7656 650.575,359.7656 Q651.1688,359.7656 651.7938,359.6094 Q652.4188,359.4531 653.2469,359.0781 L653.2469,361.2969 Q652.5125,361.6094 651.7156,361.7656 Q650.9344,361.9219 650.1688,361.9219 Z " fill="#000000"/><text fill="#000000" font-family="sans-serif" font-size="14" lengthAdjust="spacing" textLength="153" x="666.3" y="360.432">SymbolTableController</text><line style="stroke:#181818;stroke-width:0.5;" x1="629.5" x2="828.5" y1="371" y2="371"/><rect fill="none" height="6" style="stroke:#C82930;stroke-width:1.0;" width="6" x="636.5" y="383.034"/><text fill="#000000" font-family="sans-serif" font-size="14" lengthAdjust="spacing" textLength="175" x="648.5" y="389.9659">SymbolTable symbolTable</text><line style="stroke:#181818;stroke-width:0.5;" x1="629.5" x2="828.5" y1="398.0679" y2="398.0679"/></g><!--MD5=[078efc812ec3517f16515a0cc8bfe76c]
class ErrorController--><g id="elem_ErrorController"><rect codeLine="23" fill="#F1F1F1" height="67.0679" id="ErrorController" rx="2.5" ry="2.5" style="stroke:#181818;stroke-width:0.5;" width="133" x="864.5" y="339"/><ellipse cx="879.5" cy="355" fill="#ADD1B2" rx="11" ry="11" style="stroke:#181818;stroke-width:1.0;"/><path d="M878.9688,361.9219 Q877.2188,361.9219 876.0781,361.1875 Q874.9531,360.4375 874.3906,359.0938 Q873.8438,357.7344 873.8438,355.9375 Q873.8438,353.9063 874.5,352.4531 Q875.1563,351 876.4375,350.2188 Q877.7188,349.4375 879.5938,349.4375 Q880.4844,349.4375 881.1563,349.625 Q881.8281,349.7969 882.5156,350.1406 L881.7031,352.1563 Q881.0781,351.8438 880.5313,351.7188 Q880,351.5938 879.5156,351.5938 Q878.3438,351.5938 877.6406,352.125 Q876.9375,352.6563 876.6406,353.6094 Q876.3438,354.5625 876.3438,355.8281 Q876.3438,357.8438 877.0625,358.8125 Q877.7813,359.7656 879.375,359.7656 Q879.9688,359.7656 880.5938,359.6094 Q881.2188,359.4531 882.0469,359.0781 L882.0469,361.2969 Q881.3125,361.6094 880.5156,361.7656 Q879.7344,361.9219 878.9688,361.9219 Z " fill="#000000"/><text fill="#000000" font-family="sans-serif" font-size="14" lengthAdjust="spacing" textLength="101" x="893.5" y="360.432">ErrorController</text><line style="stroke:#181818;stroke-width:0.5;" x1="865.5" x2="996.5" y1="371" y2="371"/><rect fill="none" height="6" style="stroke:#C82930;stroke-width:1.0;" width="6" x="872.5" y="383.034"/><text fill="#000000" font-family="sans-serif" font-size="14" lengthAdjust="spacing" textLength="72" x="884.5" y="389.9659">Error error</text><line style="stroke:#181818;stroke-width:0.5;" x1="865.5" x2="996.5" y1="398.0679" y2="398.0679"/></g><!--MD5=[e0ef22b899b65320c18f22c727ea3624]
class SyntaxTreeController--><g id="elem_SyntaxTreeController"><rect codeLine="33" fill="#F1F1F1" height="67.0679" id="SyntaxTreeController" rx="2.5" ry="2.5" style="stroke:#181818;stroke-width:0.5;" width="177" x="69.5" y="466"/><ellipse cx="86.3" cy="482" fill="#ADD1B2" rx="11" ry="11" style="stroke:#181818;stroke-width:1.0;"/><path d="M85.7688,488.9219 Q84.0188,488.9219 82.8781,488.1875 Q81.7531,487.4375 81.1906,486.0938 Q80.6438,484.7344 80.6438,482.9375 Q80.6438,480.9063 81.3,479.4531 Q81.9563,478 83.2375,477.2188 Q84.5188,476.4375 86.3938,476.4375 Q87.2844,476.4375 87.9563,476.625 Q88.6281,476.7969 89.3156,477.1406 L88.5031,479.1563 Q87.8781,478.8438 87.3313,478.7188 Q86.8,478.5938 86.3156,478.5938 Q85.1438,478.5938 84.4406,479.125 Q83.7375,479.6563 83.4406,480.6094 Q83.1438,481.5625 83.1438,482.8281 Q83.1438,484.8438 83.8625,485.8125 Q84.5813,486.7656 86.175,486.7656 Q86.7688,486.7656 87.3938,486.6094 Q88.0188,486.4531 88.8469,486.0781 L88.8469,488.2969 Q88.1125,488.6094 87.3156,488.7656 Q86.5344,488.9219 85.7688,488.9219 Z " fill="#000000"/><text fill="#000000" font-family="sans-serif" font-size="14" lengthAdjust="spacing" textLength="141" x="100.7" y="487.432">SyntaxTreeController</text><line style="stroke:#181818;stroke-width:0.5;" x1="70.5" x2="245.5" y1="498" y2="498"/><rect fill="none" height="6" style="stroke:#C82930;stroke-width:1.0;" width="6" x="77.5" y="510.034"/><text fill="#000000" font-family="sans-serif" font-size="14" lengthAdjust="spacing" textLength="151" x="89.5" y="516.9659">SyntaxTree syntaxTree</text><line style="stroke:#181818;stroke-width:0.5;" x1="70.5" x2="245.5" y1="525.0679" y2="525.0679"/></g><!--MD5=[3cfe0cc992880546220243cb488424a1]
class scannable--><g id="elem_scannable"><rect codeLine="38" fill="#F1F1F1" height="48" id="scannable" rx="2.5" ry="2.5" style="stroke:#181818;stroke-width:0.5;" width="95" x="312.5" y="348.5"/><ellipse cx="327.5" cy="364.5" fill="#B4A7E5" rx="11" ry="11" style="stroke:#181818;stroke-width:1.0;"/><path d="M323.5313,371 L323.5313,369.2969 L325.8906,369.0313 L325.8906,360.8281 L323.5313,360.5625 L323.5313,358.8594 L330.6719,358.8594 L330.6719,360.5625 L328.25,360.8281 L328.25,369.0313 L330.6719,369.2969 L330.6719,371 L323.5313,371 Z " fill="#000000"/><text fill="#000000" font-family="sans-serif" font-size="14" font-style="italic" lengthAdjust="spacing" textLength="63" x="341.5" y="369.932">scannable</text><line style="stroke:#181818;stroke-width:0.5;" x1="313.5" x2="406.5" y1="380.5" y2="380.5"/><line style="stroke:#181818;stroke-width:0.5;" x1="313.5" x2="406.5" y1="388.5" y2="388.5"/></g><!--MD5=[f2190b6eaa697b7e984707b7f24661eb]
class JSStackAutomat--><g id="elem_JSStackAutomat"><rect codeLine="42" fill="#F1F1F1" height="48" id="JSStackAutomat" rx="2.5" ry="2.5" style="stroke:#181818;stroke-width:0.5;" width="136" x="282" y="475.5"/><ellipse cx="297" cy="491.5" fill="#ADD1B2" rx="11" ry="11" style="stroke:#181818;stroke-width:1.0;"/><path d="M296.4688,498.4219 Q294.7188,498.4219 293.5781,497.6875 Q292.4531,496.9375 291.8906,495.5938 Q291.3438,494.2344 291.3438,492.4375 Q291.3438,490.4063 292,488.9531 Q292.6563,487.5 293.9375,486.7188 Q295.2188,485.9375 297.0938,485.9375 Q297.9844,485.9375 298.6563,486.125 Q299.3281,486.2969 300.0156,486.6406 L299.2031,488.6563 Q298.5781,488.3438 298.0313,488.2188 Q297.5,488.0938 297.0156,488.0938 Q295.8438,488.0938 295.1406,488.625 Q294.4375,489.1563 294.1406,490.1094 Q293.8438,491.0625 293.8438,492.3281 Q293.8438,494.3438 294.5625,495.3125 Q295.2813,496.2656 296.875,496.2656 Q297.4688,496.2656 298.0938,496.1094 Q298.7188,495.9531 299.5469,495.5781 L299.5469,497.7969 Q298.8125,498.1094 298.0156,498.2656 Q297.2344,498.4219 296.4688,498.4219 Z " fill="#000000"/><text fill="#000000" font-family="sans-serif" font-size="14" lengthAdjust="spacing" textLength="104" x="311" y="496.932">JSStackAutomat</text><line style="stroke:#181818;stroke-width:0.5;" x1="283" x2="417" y1="507.5" y2="507.5"/><line style="stroke:#181818;stroke-width:0.5;" x1="283" x2="417" y1="515.5" y2="515.5"/></g><!--MD5=[7cdb677abf070f0f53530c62c2688335]
class parseable--><g id="elem_parseable"><rect codeLine="54" fill="#F1F1F1" height="48" id="parseable" rx="2.5" ry="2.5" style="stroke:#181818;stroke-width:0.5;" width="94" x="488" y="348.5"/><ellipse cx="503" cy="364.5" fill="#B4A7E5" rx="11" ry="11" style="stroke:#181818;stroke-width:1.0;"/><path d="M499.0313,371 L499.0313,369.2969 L501.3906,369.0313 L501.3906,360.8281 L499.0313,360.5625 L499.0313,358.8594 L506.1719,358.8594 L506.1719,360.5625 L503.75,360.8281 L503.75,369.0313 L506.1719,369.2969 L506.1719,371 L499.0313,371 Z " fill="#000000"/><text fill="#000000" font-family="sans-serif" font-size="14" font-style="italic" lengthAdjust="spacing" textLength="62" x="517" y="369.932">parseable</text><line style="stroke:#181818;stroke-width:0.5;" x1="489" x2="581" y1="380.5" y2="380.5"/><line style="stroke:#181818;stroke-width:0.5;" x1="489" x2="581" y1="388.5" y2="388.5"/></g><!--MD5=[81fd118214366e633a357d180763f423]
class JSFinitAutamt--><g id="elem_JSFinitAutamt"><rect codeLine="58" fill="#F1F1F1" height="48" id="JSFinitAutamt" rx="2.5" ry="2.5" style="stroke:#181818;stroke-width:0.5;" width="122" x="474" y="475.5"/><ellipse cx="489" cy="491.5" fill="#ADD1B2" rx="11" ry="11" style="stroke:#181818;stroke-width:1.0;"/><path d="M488.4688,498.4219 Q486.7188,498.4219 485.5781,497.6875 Q484.4531,496.9375 483.8906,495.5938 Q483.3438,494.2344 483.3438,492.4375 Q483.3438,490.4063 484,488.9531 Q484.6563,487.5 485.9375,486.7188 Q487.2188,485.9375 489.0938,485.9375 Q489.9844,485.9375 490.6563,486.125 Q491.3281,486.2969 492.0156,486.6406 L491.2031,488.6563 Q490.5781,488.3438 490.0313,488.2188 Q489.5,488.0938 489.0156,488.0938 Q487.8438,488.0938 487.1406,488.625 Q486.4375,489.1563 486.1406,490.1094 Q485.8438,491.0625 485.8438,492.3281 Q485.8438,494.3438 486.5625,495.3125 Q487.2813,496.2656 488.875,496.2656 Q489.4688,496.2656 490.0938,496.1094 Q490.7188,495.9531 491.5469,495.5781 L491.5469,497.7969 Q490.8125,498.1094 490.0156,498.2656 Q489.2344,498.4219 488.4688,498.4219 Z " fill="#000000"/><text fill="#000000" font-family="sans-serif" font-size="14" lengthAdjust="spacing" textLength="90" x="503" y="496.932">JSFinitAutamt</text><line style="stroke:#181818;stroke-width:0.5;" x1="475" x2="595" y1="507.5" y2="507.5"/><line style="stroke:#181818;stroke-width:0.5;" x1="475" x2="595" y1="515.5" y2="515.5"/></g><!--MD5=[b8cfd8c4119a3b0a7a46bfc5fc780f85]
class Error--><g id="elem_Error"><rect codeLine="80" fill="#F1F1F1" height="48" id="Error" rx="2.5" ry="2.5" style="stroke:#181818;stroke-width:0.5;" width="66" x="823" y="644.5"/><ellipse cx="838" cy="660.5" fill="#ADD1B2" rx="11" ry="11" style="stroke:#181818;stroke-width:1.0;"/><path d="M837.4688,667.4219 Q835.7188,667.4219 834.5781,666.6875 Q833.4531,665.9375 832.8906,664.5938 Q832.3438,663.2344 832.3438,661.4375 Q832.3438,659.4063 833,657.9531 Q833.6563,656.5 834.9375,655.7188 Q836.2188,654.9375 838.0938,654.9375 Q838.9844,654.9375 839.6563,655.125 Q840.3281,655.2969 841.0156,655.6406 L840.2031,657.6563 Q839.5781,657.3438 839.0313,657.2188 Q838.5,657.0938 838.0156,657.0938 Q836.8438,657.0938 836.1406,657.625 Q835.4375,658.1563 835.1406,659.1094 Q834.8438,660.0625 834.8438,661.3281 Q834.8438,663.3438 835.5625,664.3125 Q836.2813,665.2656 837.875,665.2656 Q838.4688,665.2656 839.0938,665.1094 Q839.7188,664.9531 840.5469,664.5781 L840.5469,666.7969 Q839.8125,667.1094 839.0156,667.2656 Q838.2344,667.4219 837.4688,667.4219 Z " fill="#000000"/><text fill="#000000" font-family="sans-serif" font-size="14" lengthAdjust="spacing" textLength="34" x="852" y="665.932">Error</text><line style="stroke:#181818;stroke-width:0.5;" x1="824" x2="888" y1="676.5" y2="676.5"/><line style="stroke:#181818;stroke-width:0.5;" x1="824" x2="888" y1="684.5" y2="684.5"/></g><!--MD5=[738e4f512b46f6d893f36a61ba8cff5e]
class SyntaxTree--><g id="elem_SyntaxTree"><rect codeLine="84" fill="#F1F1F1" height="48" id="SyntaxTree" rx="2.5" ry="2.5" style="stroke:#181818;stroke-width:0.5;" width="106" x="529" y="644.5"/><ellipse cx="544" cy="660.5" fill="#ADD1B2" rx="11" ry="11" style="stroke:#181818;stroke-width:1.0;"/><path d="M543.4688,667.4219 Q541.7188,667.4219 540.5781,666.6875 Q539.4531,665.9375 538.8906,664.5938 Q538.3438,663.2344 538.3438,661.4375 Q538.3438,659.4063 539,657.9531 Q539.6563,656.5 540.9375,655.7188 Q542.2188,654.9375 544.0938,654.9375 Q544.9844,654.9375 545.6563,655.125 Q546.3281,655.2969 547.0156,655.6406 L546.2031,657.6563 Q545.5781,657.3438 545.0313,657.2188 Q544.5,657.0938 544.0156,657.0938 Q542.8438,657.0938 542.1406,657.625 Q541.4375,658.1563 541.1406,659.1094 Q540.8438,660.0625 540.8438,661.3281 Q540.8438,663.3438 541.5625,664.3125 Q542.2813,665.2656 543.875,665.2656 Q544.4688,665.2656 545.0938,665.1094 Q545.7188,664.9531 546.5469,664.5781 L546.5469,666.7969 Q545.8125,667.1094 545.0156,667.2656 Q544.2344,667.4219 543.4688,667.4219 Z " fill="#000000"/><text fill="#000000" font-family="sans-serif" font-size="14" lengthAdjust="spacing" textLength="74" x="558" y="665.932">SyntaxTree</text><line style="stroke:#181818;stroke-width:0.5;" x1="530" x2="634" y1="676.5" y2="676.5"/><line style="stroke:#181818;stroke-width:0.5;" x1="530" x2="634" y1="684.5" y2="684.5"/></g><!--MD5=[6585dc51e3fc1f40fb4eab6b6c55514c]
class SymbolTable--><g id="elem_SymbolTable"><rect codeLine="88" fill="#F1F1F1" height="48" id="SymbolTable" rx="2.5" ry="2.5" style="stroke:#181818;stroke-width:0.5;" width="118" x="670" y="644.5"/><ellipse cx="685" cy="660.5" fill="#ADD1B2" rx="11" ry="11" style="stroke:#181818;stroke-width:1.0;"/><path d="M684.4688,667.4219 Q682.7188,667.4219 681.5781,666.6875 Q680.4531,665.9375 679.8906,664.5938 Q679.3438,663.2344 679.3438,661.4375 Q679.3438,659.4063 680,657.9531 Q680.6563,656.5 681.9375,655.7188 Q683.2188,654.9375 685.0938,654.9375 Q685.9844,654.9375 686.6563,655.125 Q687.3281,655.2969 688.0156,655.6406 L687.2031,657.6563 Q686.5781,657.3438 686.0313,657.2188 Q685.5,657.0938 685.0156,657.0938 Q683.8438,657.0938 683.1406,657.625 Q682.4375,658.1563 682.1406,659.1094 Q681.8438,660.0625 681.8438,661.3281 Q681.8438,663.3438 682.5625,664.3125 Q683.2813,665.2656 684.875,665.2656 Q685.4688,665.2656 686.0938,665.1094 Q686.7188,664.9531 687.5469,664.5781 L687.5469,666.7969 Q686.8125,667.1094 686.0156,667.2656 Q685.2344,667.4219 684.4688,667.4219 Z " fill="#000000"/><text fill="#000000" font-family="sans-serif" font-size="14" lengthAdjust="spacing" textLength="86" x="699" y="665.932">SymbolTable</text><line style="stroke:#181818;stroke-width:0.5;" x1="671" x2="787" y1="676.5" y2="676.5"/><line style="stroke:#181818;stroke-width:0.5;" x1="671" x2="787" y1="684.5" y2="684.5"/></g><!--MD5=[d8c8cfd5ca149094f5b67f9f607a5ec7]
class Token--><g id="elem_Token"><rect codeLine="91" fill="#F1F1F1" height="67.0679" id="Token" rx="2.5" ry="2.5" style="stroke:#181818;stroke-width:0.5;" width="171" x="322.5" y="635"/><ellipse cx="383.75" cy="651" fill="#ADD1B2" rx="11" ry="11" style="stroke:#181818;stroke-width:1.0;"/><path d="M383.2188,657.9219 Q381.4688,657.9219 380.3281,657.1875 Q379.2031,656.4375 378.6406,655.0938 Q378.0938,653.7344 378.0938,651.9375 Q378.0938,649.9063 378.75,648.4531 Q379.4063,647 380.6875,646.2188 Q381.9688,645.4375 383.8438,645.4375 Q384.7344,645.4375 385.4063,645.625 Q386.0781,645.7969 386.7656,646.1406 L385.9531,648.1563 Q385.3281,647.8438 384.7813,647.7188 Q384.25,647.5938 383.7656,647.5938 Q382.5938,647.5938 381.8906,648.125 Q381.1875,648.6563 380.8906,649.6094 Q380.5938,650.5625 380.5938,651.8281 Q380.5938,653.8438 381.3125,654.8125 Q382.0313,655.7656 383.625,655.7656 Q384.2188,655.7656 384.8438,655.6094 Q385.4688,655.4531 386.2969,655.0781 L386.2969,657.2969 Q385.5625,657.6094 384.7656,657.7656 Q383.9844,657.9219 383.2188,657.9219 Z " fill="#000000"/><text fill="#000000" font-family="sans-serif" font-size="14" lengthAdjust="spacing" textLength="40" x="404.25" y="656.432">Token</text><line style="stroke:#181818;stroke-width:0.5;" x1="323.5" x2="492.5" y1="667" y2="667"/><rect fill="none" height="6" style="stroke:#C82930;stroke-width:1.0;" width="6" x="330.5" y="679.034"/><text fill="#000000" font-family="sans-serif" font-size="14" lengthAdjust="spacing" textLength="145" x="342.5" y="685.9659">TypeToken typeToken</text><line style="stroke:#181818;stroke-width:0.5;" x1="323.5" x2="492.5" y1="694.0679" y2="694.0679"/></g><!--MD5=[1147ad1d3bd68c3cc5ba8629663b3aad]
class TypeToken--><g id="elem_TypeToken"><rect codeLine="95" fill="#F1F1F1" height="48" id="TypeToken" rx="2.5" ry="2.5" style="stroke:#181818;stroke-width:0.5;" width="104" x="356" y="762"/><ellipse cx="371" cy="778" fill="#EB937F" rx="11" ry="11" style="stroke:#181818;stroke-width:1.0;"/><path d="M367.3594,784.5 L367.3594,772.3594 L375.0156,772.3594 L375.0156,774.4844 L369.7344,774.4844 L369.7344,777.1406 L374.75,777.1406 L374.75,779.2656 L369.7344,779.2656 L369.7344,782.375 L375.0156,782.375 L375.0156,784.5 L367.3594,784.5 Z " fill="#000000"/><text fill="#000000" font-family="sans-serif" font-size="14" lengthAdjust="spacing" textLength="72" x="385" y="783.432">TypeToken</text><line style="stroke:#181818;stroke-width:0.5;" x1="357" x2="459" y1="794" y2="794"/><line style="stroke:#181818;stroke-width:0.5;" x1="357" x2="459" y1="802" y2="802"/></g><!--MD5=[335f4d9be48430461c68bf6d6fdba145]
class App--><g id="elem_App"><rect codeLine="3" fill="#F1F1F1" height="48" id="App" rx="2.5" ry="2.5" style="stroke:#181818;stroke-width:0.5;" width="59" x="602.5" y="7"/><ellipse cx="617.5" cy="23" fill="#ADD1B2" rx="11" ry="11" style="stroke:#181818;stroke-width:1.0;"/><path d="M616.9688,29.9219 Q615.2188,29.9219 614.0781,29.1875 Q612.9531,28.4375 612.3906,27.0938 Q611.8438,25.7344 611.8438,23.9375 Q611.8438,21.9063 612.5,20.4531 Q613.1563,19 614.4375,18.2188 Q615.7188,17.4375 617.5938,17.4375 Q618.4844,17.4375 619.1563,17.625 Q619.8281,17.7969 620.5156,18.1406 L619.7031,20.1563 Q619.0781,19.8438 618.5313,19.7188 Q618,19.5938 617.5156,19.5938 Q616.3438,19.5938 615.6406,20.125 Q614.9375,20.6563 614.6406,21.6094 Q614.3438,22.5625 614.3438,23.8281 Q614.3438,25.8438 615.0625,26.8125 Q615.7813,27.7656 617.375,27.7656 Q617.9688,27.7656 618.5938,27.6094 Q619.2188,27.4531 620.0469,27.0781 L620.0469,29.2969 Q619.3125,29.6094 618.5156,29.7656 Q617.7344,29.9219 616.9688,29.9219 Z " fill="#000000"/><text fill="#000000" font-family="sans-serif" font-size="14" lengthAdjust="spacing" textLength="27" x="631.5" y="28.432">App</text><line style="stroke:#181818;stroke-width:0.5;" x1="603.5" x2="660.5" y1="39" y2="39"/><line style="stroke:#181818;stroke-width:0.5;" x1="603.5" x2="660.5" y1="47" y2="47"/></g><!--MD5=[3dae1388d9c699b83a8814414cd666ae]
reverse link scannable to JSStackAutomat--><g id="link_scannable_JSStackAutomat"><path codeLine="46" d="M356.53,416.91 C354.95,436.58 353.16,459.04 351.85,475.41 " fill="none" id="scannable-backto-JSStackAutomat" style="stroke:#181818;stroke-width:1.0;"/><polygon fill="none" points="349.57,416.1,358.14,396.72,363.53,417.21,349.57,416.1" style="stroke:#181818;stroke-width:1.0;"/></g><!--MD5=[bc3b2969b00b6c28c31ddd9a6558ae4a]
reverse link scannable to SyntaxTreeController--><g id="link_scannable_SyntaxTreeController"><path codeLine="47" d="M311.28,403.65 C280.85,422.48 241.68,446.72 210.55,465.98 " fill="none" id="scannable-backto-SyntaxTreeController" style="stroke:#181818;stroke-width:1.0;"/><polygon fill="#181818" points="322.48,396.72,315.273,396.4761,312.276,403.0349,319.483,403.2788,322.48,396.72" style="stroke:#181818;stroke-width:1.0;"/></g><!--MD5=[54c2a08e00137bbf8d27105510aad5de]
reverse link parseable to JSFinitAutamt--><g id="link_parseable_JSFinitAutamt"><path codeLine="62" d="M535,416.91 C535,436.58 535,459.04 535,475.41 " fill="none" id="parseable-backto-JSFinitAutamt" style="stroke:#181818;stroke-width:1.0;"/><polygon fill="none" points="528,416.72,535,396.72,542,416.72,528,416.72" style="stroke:#181818;stroke-width:1.0;"/></g><!--MD5=[af3193c9ee536ddca83bd70cf3c0ff98]
reverse link AnalyzerController to parseable--><g id="link_AnalyzerController_parseable"><path codeLine="68" d="M586.31,290.3 C573.09,311.22 559.6,332.57 549.77,348.13 " fill="none" id="AnalyzerController-backto-parseable" style="stroke:#181818;stroke-width:1.0;"/><polygon fill="#181818" points="593.38,279.11,586.7949,282.0489,586.9751,289.2577,593.5601,286.3189,593.38,279.11" style="stroke:#181818;stroke-width:1.0;"/></g><!--MD5=[0bac85808aae518415e64fdcf2a12e91]
reverse link AnalyzerController to scannable--><g id="link_AnalyzerController_scannable"><path codeLine="69" d="M488.38,285.45 C478,291.02 467.77,296.74 458,302.5 C434.34,316.45 409.02,334.36 390.05,348.44 " fill="none" id="AnalyzerController-backto-scannable" style="stroke:#181818;stroke-width:1.0;"/><polygon fill="#181818" points="500.16,279.21,492.9858,278.4809,489.5536,284.8228,496.7277,285.5519,500.16,279.21" style="stroke:#181818;stroke-width:1.0;"/></g><!--MD5=[02858fff888d069e05a94abd63ac7f9d]
reverse link AnalyzerController to SymbolTableController--><g id="link_AnalyzerController_SymbolTableController"><path codeLine="70" d="M677.64,290.22 C688.4,307.25 699.34,324.57 708.35,338.83 " fill="none" id="AnalyzerController-backto-SymbolTableController" style="stroke:#181818;stroke-width:1.0;"/><polygon fill="#181818" points="670.62,279.11,670.4399,286.3189,677.0249,289.2577,677.2051,282.0489,670.62,279.11" style="stroke:#181818;stroke-width:1.0;"/></g><!--MD5=[a26dbdaa274815370b1f65887ae10721]
reverse link AnalyzerController to ErrorController--><g id="link_AnalyzerController_ErrorController"><path codeLine="71" d="M778.39,268.36 C801.93,278.47 825.58,289.92 847,302.5 C864.41,312.73 881.94,326.46 896.45,338.98 " fill="none" id="AnalyzerController-backto-ErrorController" style="stroke:#181818;stroke-width:1.0;"/><polygon fill="#181818" points="766.11,263.19,770.0953,269.1998,777.1756,267.8325,773.1903,261.8227,766.11,263.19" style="stroke:#181818;stroke-width:1.0;"/></g><!--MD5=[36c2b149b5aea51b9d99d6e4cbb8779c]
link scannable to parseable--><g id="link_scannable_parseable"><path codeLine="73" d="M407.51,372.5 C432.57,372.5 457.62,372.5 482.68,372.5 " fill="none" id="scannable-to-parseable" style="stroke:#181818;stroke-width:1.0;"/><polygon fill="#181818" points="487.69,372.5,478.69,368.5,482.69,372.5,478.69,376.5,487.69,372.5" style="stroke:#181818;stroke-width:1.0;"/></g><!--MD5=[88f8ae98fe0f0b6effa2e70597d5c710]
reverse link Token to TypeToken--><g id="link_Token_TypeToken"><path codeLine="99" d="M408,715.72 C408,731.5 408,748.47 408,761.67 " fill="none" id="Token-backto-TypeToken" style="stroke:#181818;stroke-width:1.0;"/><polygon fill="#181818" points="408,702.29,404,708.29,408,714.29,412,708.29,408,702.29" style="stroke:#181818;stroke-width:1.0;"/></g><!--MD5=[f361c2e230ac2afb6f6de4194130d5f7]
reverse link SymbolTableController to SymbolTable--><g id="link_SymbolTableController_SymbolTable"><path codeLine="103" d="M729,419.27 C729,482.97 729,595.99 729,644.42 " fill="none" id="SymbolTableController-backto-SymbolTable" style="stroke:#181818;stroke-width:1.0;"/><polygon fill="#181818" points="729,406.09,725,412.09,729,418.09,733,412.09,729,406.09" style="stroke:#181818;stroke-width:1.0;"/></g><!--MD5=[55ae2b4f63e51689811284c9a3c41dc8]
reverse link ErrorController to Error--><g id="link_ErrorController_Error"><path codeLine="104" d="M919.43,418.87 C903.19,482.5 874.27,595.89 861.89,644.42 " fill="none" id="ErrorController-backto-Error" style="stroke:#181818;stroke-width:1.0;"/><polygon fill="#181818" points="922.69,406.09,917.331,410.9151,919.7238,417.7176,925.0828,412.8926,922.69,406.09" style="stroke:#181818;stroke-width:1.0;"/></g><!--MD5=[eaeeb6060fdbc891539ab6f133f436cf]
reverse link SyntaxTreeController to SyntaxTree--><g id="link_SyntaxTreeController_SyntaxTree"><path codeLine="106" d="M200.45,541.95 C218.79,557.17 241.43,572.7 265,581 C290.79,590.09 486.19,577.5 511,589 C536.01,600.59 556.09,625.55 568.43,644.23 " fill="none" id="SyntaxTreeController-backto-SyntaxTree" style="stroke:#181818;stroke-width:1.0;"/><polygon fill="#181818" points="190.45,533.33,192.3825,540.2773,199.5387,541.1655,197.6062,534.2182,190.45,533.33" style="stroke:#181818;stroke-width:1.0;"/></g><!--MD5=[1f26e4dd56045fd5f4c121d258164fe0]
link App to AnalyzerController--><g id="link_App_AnalyzerController"><path codeLine="115" d="M632,55.3 C632,78.89 632,116.49 632,149.38 " fill="none" id="App-to-AnalyzerController" style="stroke:#181818;stroke-width:1.0;stroke-dasharray:7.0,7.0;"/><polygon fill="#181818" points="632,154.62,636,145.62,632,149.62,628,145.62,632,154.62" style="stroke:#181818;stroke-width:1.0;"/></g><!--MD5=[404a2f79cbc31db67ce5f87b447d7751]
@startuml classdiagram


class App{

}

package analyzer{

    package controller{

        class AnalyzerController{
            -scanneable scanner
            -parseable parser
            -SymbolTableController symbolTable
            -ErrorController error
        }

        class SymbolTableController{
            -SymbolTable symbolTable

        }

        class ErrorController{
            -Error error

        }


        package scanner{



            class SyntaxTreeController{
                -SyntaxTree syntaxTree

            }

            interface scannable{

            }

            class JSStackAutomat{

            }

            JSStackAutomat -up-|> scannable
            scannable *- - SyntaxTreeController


        }

        package parser{

            interface parseable{

            }

            class JSFinitAutamt{

            }

            JSFinitAutamt -up-|> parseable

        }



        AnalyzerController *- - parseable
        AnalyzerController *- - scannable
        AnalyzerController *- - SymbolTableController
        AnalyzerController *- - ErrorController

        scannable -right-> parseable

    }


    package model{

        class Error{

        }

        class SyntaxTree{

        }

        class SymbolTable


        class Token{
            -TypeToken typeToken
        }

        enum TypeToken{

        }

        Token *- - TypeToken

    }

    SymbolTableController *- - SymbolTable
    ErrorController *- - Error

    SyntaxTreeController *- - SyntaxTree

    

    

}


App .down.> AnalyzerController



@enduml

PlantUML version 1.2022.7(Mon Aug 22 11:01:30 CST 2022)
(GPL source distribution)
Java Runtime: OpenJDK Runtime Environment
JVM: OpenJDK 64-Bit Server VM
Default Encoding: UTF-8
Language: en
Country: US
--></g></svg>