<?xml version="1.0" encoding="UTF-8" standalone="no"?><svg xmlns="http://www.w3.org/2000/svg" xmlns:xlink="http://www.w3.org/1999/xlink" contentStyleType="text/css" height="497px" preserveAspectRatio="none" style="width:473px;height:497px;background:#FFFFFF;" version="1.1" viewBox="0 0 473 497" width="473px" zoomAndPan="magnify"><defs/><g><!--MD5=[c52f45833d539af9e29a9d34b8b7302b]
cluster utils--><g id="cluster_utils"><path d="M102,388 L133,388 A3.75,3.75 0 0 1 135.5,390.5 L142.5,413.0679 L239,413.0679 A2.5,2.5 0 0 1 241.5,415.5679 L241.5,487.5 A2.5,2.5 0 0 1 239,490 L102,490 A2.5,2.5 0 0 1 99.5,487.5 L99.5,390.5 A2.5,2.5 0 0 1 102,388 " fill="none" style="stroke:#000000;stroke-width:1.5;"/><line style="stroke:#000000;stroke-width:1.5;" x1="99.5" x2="142.5" y1="413.0679" y2="413.0679"/><text fill="#000000" font-family="sans-serif" font-size="14" font-weight="bold" lengthAdjust="spacing" textLength="30" x="103.5" y="404.9659">utils</text></g><!--MD5=[31d288406f5c36de768aa2654ecc3fee]
class ManageFile--><g id="elem_ManageFile"><rect codeLine="23" fill="#F1F1F1" height="48" id="ManageFile" rx="2.5" ry="2.5" style="stroke:#181818;stroke-width:0.5;" width="110" x="115.5" y="426"/><ellipse cx="130.5" cy="442" fill="#ADD1B2" rx="11" ry="11" style="stroke:#181818;stroke-width:1.0;"/><path d="M129.9688,448.9219 Q128.2188,448.9219 127.0781,448.1875 Q125.9531,447.4375 125.3906,446.0938 Q124.8438,444.7344 124.8438,442.9375 Q124.8438,440.9063 125.5,439.4531 Q126.1563,438 127.4375,437.2188 Q128.7188,436.4375 130.5938,436.4375 Q131.4844,436.4375 132.1563,436.625 Q132.8281,436.7969 133.5156,437.1406 L132.7031,439.1563 Q132.0781,438.8438 131.5313,438.7188 Q131,438.5938 130.5156,438.5938 Q129.3438,438.5938 128.6406,439.125 Q127.9375,439.6563 127.6406,440.6094 Q127.3438,441.5625 127.3438,442.8281 Q127.3438,444.8438 128.0625,445.8125 Q128.7813,446.7656 130.375,446.7656 Q130.9688,446.7656 131.5938,446.6094 Q132.2188,446.4531 133.0469,446.0781 L133.0469,448.2969 Q132.3125,448.6094 131.5156,448.7656 Q130.7344,448.9219 129.9688,448.9219 Z " fill="#000000"/><text fill="#000000" font-family="sans-serif" font-size="14" lengthAdjust="spacing" textLength="78" x="144.5" y="447.432">ManageFile</text><line style="stroke:#181818;stroke-width:0.5;" x1="116.5" x2="224.5" y1="458" y2="458"/><line style="stroke:#181818;stroke-width:0.5;" x1="116.5" x2="224.5" y1="466" y2="466"/></g><!--MD5=[16a12f0a3fce49e84894ff28b9c80e57]
class Analyzer--><g id="elem_Analyzer"><rect codeLine="2" fill="#F1F1F1" height="67.0679" id="Analyzer" rx="2.5" ry="2.5" style="stroke:#181818;stroke-width:0.5;" width="139" x="220" y="7"/><ellipse cx="257.05" cy="23" fill="#ADD1B2" rx="11" ry="11" style="stroke:#181818;stroke-width:1.0;"/><path d="M256.5188,29.9219 Q254.7688,29.9219 253.6281,29.1875 Q252.5031,28.4375 251.9406,27.0938 Q251.3938,25.7344 251.3938,23.9375 Q251.3938,21.9063 252.05,20.4531 Q252.7063,19 253.9875,18.2188 Q255.2688,17.4375 257.1438,17.4375 Q258.0344,17.4375 258.7063,17.625 Q259.3781,17.7969 260.0656,18.1406 L259.2531,20.1563 Q258.6281,19.8438 258.0813,19.7188 Q257.55,19.5938 257.0656,19.5938 Q255.8938,19.5938 255.1906,20.125 Q254.4875,20.6563 254.1906,21.6094 Q253.8938,22.5625 253.8938,23.8281 Q253.8938,25.8438 254.6125,26.8125 Q255.3313,27.7656 256.925,27.7656 Q257.5188,27.7656 258.1438,27.6094 Q258.7688,27.4531 259.5969,27.0781 L259.5969,29.2969 Q258.8625,29.6094 258.0656,29.7656 Q257.2844,29.9219 256.5188,29.9219 Z " fill="#000000"/><text fill="#000000" font-family="sans-serif" font-size="14" lengthAdjust="spacing" textLength="58" x="275.95" y="28.432">Analyzer</text><line style="stroke:#181818;stroke-width:0.5;" x1="221" x2="358" y1="39" y2="39"/><rect fill="none" height="6" style="stroke:#C82930;stroke-width:1.0;" width="6" x="228" y="51.034"/><text fill="#000000" font-family="sans-serif" font-size="14" lengthAdjust="spacing" textLength="113" x="240" y="57.9659">Scanner scanner</text><line style="stroke:#181818;stroke-width:0.5;" x1="221" x2="358" y1="66.0679" y2="66.0679"/></g><!--MD5=[d5f1be826c69ca1567a5e96185ac7827]
class Scanner--><g id="elem_Scanner"><rect codeLine="6" fill="#F1F1F1" height="67.0679" id="Scanner" rx="2.5" ry="2.5" style="stroke:#181818;stroke-width:0.5;" width="117" x="231" y="134"/><ellipse cx="259.5" cy="150" fill="#ADD1B2" rx="11" ry="11" style="stroke:#181818;stroke-width:1.0;"/><path d="M258.9688,156.9219 Q257.2188,156.9219 256.0781,156.1875 Q254.9531,155.4375 254.3906,154.0938 Q253.8438,152.7344 253.8438,150.9375 Q253.8438,148.9063 254.5,147.4531 Q255.1563,146 256.4375,145.2188 Q257.7188,144.4375 259.5938,144.4375 Q260.4844,144.4375 261.1563,144.625 Q261.8281,144.7969 262.5156,145.1406 L261.7031,147.1563 Q261.0781,146.8438 260.5313,146.7188 Q260,146.5938 259.5156,146.5938 Q258.3438,146.5938 257.6406,147.125 Q256.9375,147.6563 256.6406,148.6094 Q256.3438,149.5625 256.3438,150.8281 Q256.3438,152.8438 257.0625,153.8125 Q257.7813,154.7656 259.375,154.7656 Q259.9688,154.7656 260.5938,154.6094 Q261.2188,154.4531 262.0469,154.0781 L262.0469,156.2969 Q261.3125,156.6094 260.5156,156.7656 Q259.7344,156.9219 258.9688,156.9219 Z " fill="#000000"/><text fill="#000000" font-family="sans-serif" font-size="14" lengthAdjust="spacing" textLength="55" x="276.5" y="155.432">Scanner</text><line style="stroke:#181818;stroke-width:0.5;" x1="232" x2="347" y1="166" y2="166"/><rect fill="none" height="6" style="stroke:#C82930;stroke-width:1.0;" width="6" x="239" y="178.034"/><text fill="#000000" font-family="sans-serif" font-size="14" lengthAdjust="spacing" textLength="91" x="251" y="184.9659">Parser parser</text><line style="stroke:#181818;stroke-width:0.5;" x1="232" x2="347" y1="193.0679" y2="193.0679"/></g><!--MD5=[628cc5a2753cca06eb1ffef55c386535]
class Parser--><g id="elem_Parser"><rect codeLine="10" fill="#F1F1F1" height="105.2038" id="Parser" rx="2.5" ry="2.5" style="stroke:#181818;stroke-width:0.5;" width="190" x="11.5" y="261"/><ellipse cx="80.75" cy="277" fill="#ADD1B2" rx="11" ry="11" style="stroke:#181818;stroke-width:1.0;"/><path d="M80.2188,283.9219 Q78.4688,283.9219 77.3281,283.1875 Q76.2031,282.4375 75.6406,281.0938 Q75.0938,279.7344 75.0938,277.9375 Q75.0938,275.9063 75.75,274.4531 Q76.4063,273 77.6875,272.2188 Q78.9688,271.4375 80.8438,271.4375 Q81.7344,271.4375 82.4063,271.625 Q83.0781,271.7969 83.7656,272.1406 L82.9531,274.1563 Q82.3281,273.8438 81.7813,273.7188 Q81.25,273.5938 80.7656,273.5938 Q79.5938,273.5938 78.8906,274.125 Q78.1875,274.6563 77.8906,275.6094 Q77.5938,276.5625 77.5938,277.8281 Q77.5938,279.8438 78.3125,280.8125 Q79.0313,281.7656 80.625,281.7656 Q81.2188,281.7656 81.8438,281.6094 Q82.4688,281.4531 83.2969,281.0781 L83.2969,283.2969 Q82.5625,283.6094 81.7656,283.7656 Q80.9844,283.9219 80.2188,283.9219 Z " fill="#000000"/><text fill="#000000" font-family="sans-serif" font-size="14" lengthAdjust="spacing" textLength="43" x="101.25" y="282.432">Parser</text><line style="stroke:#181818;stroke-width:0.5;" x1="12.5" x2="200.5" y1="293" y2="293"/><line style="stroke:#181818;stroke-width:0.5;" x1="12.5" x2="200.5" y1="301" y2="301"/><ellipse cx="22.5" cy="316.034" fill="#84BE84" rx="3" ry="3" style="stroke:#038048;stroke-width:1.0;"/><text fill="#000000" font-family="sans-serif" font-size="14" lengthAdjust="spacing" textLength="142" x="31.5" y="319.9659">isEndOfFile():boolean</text><ellipse cx="22.5" cy="335.1019" fill="#84BE84" rx="3" ry="3" style="stroke:#038048;stroke-width:1.0;"/><text fill="#000000" font-family="sans-serif" font-size="14" lengthAdjust="spacing" textLength="114" x="31.5" y="339.0339">getToken():Token</text><ellipse cx="22.5" cy="354.1698" fill="#84BE84" rx="3" ry="3" style="stroke:#038048;stroke-width:1.0;"/><text fill="#000000" font-family="sans-serif" font-size="14" lengthAdjust="spacing" textLength="164" x="31.5" y="358.1018">setInputFile(String path)</text></g><!--MD5=[d8c8cfd5ca149094f5b67f9f607a5ec7]
class Token--><g id="elem_Token"><rect codeLine="16" fill="#F1F1F1" height="48" id="Token" rx="2.5" ry="2.5" style="stroke:#181818;stroke-width:0.5;" width="72" x="394.5" y="16.5"/><ellipse cx="409.5" cy="32.5" fill="#ADD1B2" rx="11" ry="11" style="stroke:#181818;stroke-width:1.0;"/><path d="M408.9688,39.4219 Q407.2188,39.4219 406.0781,38.6875 Q404.9531,37.9375 404.3906,36.5938 Q403.8438,35.2344 403.8438,33.4375 Q403.8438,31.4063 404.5,29.9531 Q405.1563,28.5 406.4375,27.7188 Q407.7188,26.9375 409.5938,26.9375 Q410.4844,26.9375 411.1563,27.125 Q411.8281,27.2969 412.5156,27.6406 L411.7031,29.6563 Q411.0781,29.3438 410.5313,29.2188 Q410,29.0938 409.5156,29.0938 Q408.3438,29.0938 407.6406,29.625 Q406.9375,30.1563 406.6406,31.1094 Q406.3438,32.0625 406.3438,33.3281 Q406.3438,35.3438 407.0625,36.3125 Q407.7813,37.2656 409.375,37.2656 Q409.9688,37.2656 410.5938,37.1094 Q411.2188,36.9531 412.0469,36.5781 L412.0469,38.7969 Q411.3125,39.1094 410.5156,39.2656 Q409.7344,39.4219 408.9688,39.4219 Z " fill="#000000"/><text fill="#000000" font-family="sans-serif" font-size="14" lengthAdjust="spacing" textLength="40" x="423.5" y="37.932">Token</text><line style="stroke:#181818;stroke-width:0.5;" x1="395.5" x2="465.5" y1="48.5" y2="48.5"/><line style="stroke:#181818;stroke-width:0.5;" x1="395.5" x2="465.5" y1="56.5" y2="56.5"/></g><!--MD5=[738e4f512b46f6d893f36a61ba8cff5e]
class SyntaxTree--><g id="elem_SyntaxTree"><rect codeLine="20" fill="#F1F1F1" height="48" id="SyntaxTree" rx="2.5" ry="2.5" style="stroke:#181818;stroke-width:0.5;" width="106" x="236.5" y="289.5"/><ellipse cx="251.5" cy="305.5" fill="#ADD1B2" rx="11" ry="11" style="stroke:#181818;stroke-width:1.0;"/><path d="M250.9688,312.4219 Q249.2188,312.4219 248.0781,311.6875 Q246.9531,310.9375 246.3906,309.5938 Q245.8438,308.2344 245.8438,306.4375 Q245.8438,304.4063 246.5,302.9531 Q247.1563,301.5 248.4375,300.7188 Q249.7188,299.9375 251.5938,299.9375 Q252.4844,299.9375 253.1563,300.125 Q253.8281,300.2969 254.5156,300.6406 L253.7031,302.6563 Q253.0781,302.3438 252.5313,302.2188 Q252,302.0938 251.5156,302.0938 Q250.3438,302.0938 249.6406,302.625 Q248.9375,303.1563 248.6406,304.1094 Q248.3438,305.0625 248.3438,306.3281 Q248.3438,308.3438 249.0625,309.3125 Q249.7813,310.2656 251.375,310.2656 Q251.9688,310.2656 252.5938,310.1094 Q253.2188,309.9531 254.0469,309.5781 L254.0469,311.7969 Q253.3125,312.1094 252.5156,312.2656 Q251.7344,312.4219 250.9688,312.4219 Z " fill="#000000"/><text fill="#000000" font-family="sans-serif" font-size="14" lengthAdjust="spacing" textLength="74" x="265.5" y="310.932">SyntaxTree</text><line style="stroke:#181818;stroke-width:0.5;" x1="237.5" x2="341.5" y1="321.5" y2="321.5"/><line style="stroke:#181818;stroke-width:0.5;" x1="237.5" x2="341.5" y1="329.5" y2="329.5"/></g><!--MD5=[1d20b86beaac20102bb81218a2b33779]
class Errors--><g id="elem_Errors"><rect codeLine="28" fill="#F1F1F1" height="48" id="Errors" rx="2.5" ry="2.5" style="stroke:#181818;stroke-width:0.5;" width="73" x="7" y="426"/><ellipse cx="22" cy="442" fill="#ADD1B2" rx="11" ry="11" style="stroke:#181818;stroke-width:1.0;"/><path d="M21.4688,448.9219 Q19.7188,448.9219 18.5781,448.1875 Q17.4531,447.4375 16.8906,446.0938 Q16.3438,444.7344 16.3438,442.9375 Q16.3438,440.9063 17,439.4531 Q17.6563,438 18.9375,437.2188 Q20.2188,436.4375 22.0938,436.4375 Q22.9844,436.4375 23.6563,436.625 Q24.3281,436.7969 25.0156,437.1406 L24.2031,439.1563 Q23.5781,438.8438 23.0313,438.7188 Q22.5,438.5938 22.0156,438.5938 Q20.8438,438.5938 20.1406,439.125 Q19.4375,439.6563 19.1406,440.6094 Q18.8438,441.5625 18.8438,442.8281 Q18.8438,444.8438 19.5625,445.8125 Q20.2813,446.7656 21.875,446.7656 Q22.4688,446.7656 23.0938,446.6094 Q23.7188,446.4531 24.5469,446.0781 L24.5469,448.2969 Q23.8125,448.6094 23.0156,448.7656 Q22.2344,448.9219 21.4688,448.9219 Z " fill="#000000"/><text fill="#000000" font-family="sans-serif" font-size="14" lengthAdjust="spacing" textLength="41" x="36" y="447.432">Errors</text><line style="stroke:#181818;stroke-width:0.5;" x1="8" x2="79" y1="458" y2="458"/><line style="stroke:#181818;stroke-width:0.5;" x1="8" x2="79" y1="466" y2="466"/></g><!--MD5=[6585dc51e3fc1f40fb4eab6b6c55514c]
class SymbolTable--><g id="elem_SymbolTable"><rect codeLine="30" fill="#F1F1F1" height="48" id="SymbolTable" rx="2.5" ry="2.5" style="stroke:#181818;stroke-width:0.5;" width="118" x="298.5" y="426"/><ellipse cx="313.5" cy="442" fill="#ADD1B2" rx="11" ry="11" style="stroke:#181818;stroke-width:1.0;"/><path d="M312.9688,448.9219 Q311.2188,448.9219 310.0781,448.1875 Q308.9531,447.4375 308.3906,446.0938 Q307.8438,444.7344 307.8438,442.9375 Q307.8438,440.9063 308.5,439.4531 Q309.1563,438 310.4375,437.2188 Q311.7188,436.4375 313.5938,436.4375 Q314.4844,436.4375 315.1563,436.625 Q315.8281,436.7969 316.5156,437.1406 L315.7031,439.1563 Q315.0781,438.8438 314.5313,438.7188 Q314,438.5938 313.5156,438.5938 Q312.3438,438.5938 311.6406,439.125 Q310.9375,439.6563 310.6406,440.6094 Q310.3438,441.5625 310.3438,442.8281 Q310.3438,444.8438 311.0625,445.8125 Q311.7813,446.7656 313.375,446.7656 Q313.9688,446.7656 314.5938,446.6094 Q315.2188,446.4531 316.0469,446.0781 L316.0469,448.2969 Q315.3125,448.6094 314.5156,448.7656 Q313.7344,448.9219 312.9688,448.9219 Z " fill="#000000"/><text fill="#000000" font-family="sans-serif" font-size="14" lengthAdjust="spacing" textLength="86" x="327.5" y="447.432">SymbolTable</text><line style="stroke:#181818;stroke-width:0.5;" x1="299.5" x2="415.5" y1="458" y2="458"/><line style="stroke:#181818;stroke-width:0.5;" x1="299.5" x2="415.5" y1="466" y2="466"/></g><!--MD5=[ac45528dc28dd97ecf91b58fcaac9b48]
link Parser to ManageFile--><g id="link_Parser_ManageFile"><path codeLine="32" d="M131.06,366.12 C139.94,384.78 149.63,405.15 157.18,421.02 " fill="none" id="Parser-to-ManageFile" style="stroke:#181818;stroke-width:1.0;stroke-dasharray:7.0,7.0;"/><polygon fill="#181818" points="159.46,425.79,159.2141,415.9442,157.3159,421.2731,151.987,419.3748,159.46,425.79" style="stroke:#181818;stroke-width:1.0;"/></g><!--MD5=[6919cb9809af7047e972c43789b8f2c6]
reverse link Analyzer to Scanner--><g id="link_Analyzer_Scanner"><path codeLine="34" d="M289.5,87.1 C289.5,102.54 289.5,119.47 289.5,133.71 " fill="none" id="Analyzer-backto-Scanner" style="stroke:#181818;stroke-width:1.0;"/><polygon fill="#181818" points="289.5,74.02,285.5,80.02,289.5,86.02,293.5,80.02,289.5,74.02" style="stroke:#181818;stroke-width:1.0;"/></g><!--MD5=[184ccb2366e7d00be681000dee1ecfa8]
reverse link Scanner to Parser--><g id="link_Scanner_Parser"><path codeLine="35" d="M237.67,209.29 C217.34,225.28 193.77,243.83 172.27,260.75 " fill="none" id="Scanner-backto-Parser" style="stroke:#181818;stroke-width:1.0;"/><polygon fill="none" points="247.97,201.18,240.7814,201.7492,238.542,208.6038,245.7306,208.0346,247.97,201.18" style="stroke:#181818;stroke-width:1.0;"/></g><!--MD5=[1d1e6d10bfa56f7f0ca54ef88c09e336]
link Parser to Errors--><g id="link_Parser_Errors"><path codeLine="37" d="M82.32,366.12 C73.58,384.78 64.04,405.15 56.61,421.02 " fill="none" id="Parser-to-Errors" style="stroke:#181818;stroke-width:1.0;stroke-dasharray:7.0,7.0;"/><polygon fill="#181818" points="54.37,425.79,61.8185,419.3464,56.4969,421.2649,54.5784,415.9433,54.37,425.79" style="stroke:#181818;stroke-width:1.0;"/></g><!--MD5=[0f992a2616b90a845174a4715702796d]
link Parser to SymbolTable--><g id="link_Parser_SymbolTable"><path codeLine="38" d="M201.79,359.48 C215.22,366.18 228.77,373.14 241.5,380 C266.74,393.6 294.35,409.96 316.3,423.33 " fill="none" id="Parser-to-SymbolTable" style="stroke:#181818;stroke-width:1.0;stroke-dasharray:7.0,7.0;"/><polygon fill="#181818" points="320.61,425.97,315.0141,417.8653,316.3429,423.3639,310.8443,424.6927,320.61,425.97" style="stroke:#181818;stroke-width:1.0;"/></g><!--MD5=[04125fef2ac025f19834ee4b8394b7a5]
link Scanner to SymbolTable--><g id="link_Scanner_SymbolTable"><path codeLine="40" d="M323.2,201.28 C337.66,217.69 352.95,238.76 360.5,261 C378.86,315.06 370.73,383 363.74,420.63 " fill="none" id="Scanner-to-SymbolTable" style="stroke:#181818;stroke-width:1.0;"/><polygon fill="#181818" points="362.72,425.95,368.3442,417.8649,363.6621,421.0396,360.4875,416.3575,362.72,425.95" style="stroke:#181818;stroke-width:1.0;"/></g><!--MD5=[0274abda58b46f1b41a6303064a864ff]
reverse link Scanner to SyntaxTree--><g id="link_Scanner_SyntaxTree"><path codeLine="41" d="M289.5,214.46 C289.5,239.43 289.5,269.23 289.5,289.37 " fill="none" id="Scanner-backto-SyntaxTree" style="stroke:#181818;stroke-width:1.0;"/><polygon fill="#181818" points="289.5,201.18,285.5,207.18,289.5,213.18,293.5,207.18,289.5,201.18" style="stroke:#181818;stroke-width:1.0;"/></g><!--MD5=[653065856d331be0bada372e30a89667]
@startuml classdiagram

    class Analyzer{
        -Scanner scanner
    }

    class Scanner{
        -Parser parser
    }

    class Parser{
        +isEndOfFile():boolean
        +getToken():Token
        +setInputFile(String path)
    }

    class Token{

    }
    
    class SyntaxTree

    package utils{
        class ManageFile{

        }
    }

    class Errors

    class SymbolTable

    Parser ..> ManageFile

    Analyzer *- - Scanner
    Scanner o- - Parser

    Parser ..> Errors
    Parser ..> SymbolTable

    Scanner - -> SymbolTable
    Scanner *- - SyntaxTree



@enduml

PlantUML version 1.2022.7(Mon Aug 22 11:01:30 CST 2022)
(GPL source distribution)
Java Runtime: OpenJDK Runtime Environment
JVM: OpenJDK 64-Bit Server VM
Default Encoding: UTF-8
Language: en
Country: US
--></g></svg>