<?xml version="1.0" encoding="UTF-8" standalone="no"?><svg xmlns="http://www.w3.org/2000/svg" xmlns:xlink="http://www.w3.org/1999/xlink" contentStyleType="text/css" height="991px" preserveAspectRatio="none" style="width:1178px;height:991px;background:#FFFFFF;" version="1.1" viewBox="0 0 1178 991" width="1178px" zoomAndPan="magnify"><defs/><g><!--MD5=[3bd817c1526d01a4e9c17d9a45a66e08]
cluster analyzer--><g id="cluster_analyzer"><path d="M8.5,90 L67.5,90 A3.75,3.75 0 0 1 70,92.5 L77,115.0679 L1168.5,115.0679 A2.5,2.5 0 0 1 1171,117.5679 L1171,981.5 A2.5,2.5 0 0 1 1168.5,984 L8.5,984 A2.5,2.5 0 0 1 6,981.5 L6,92.5 A2.5,2.5 0 0 1 8.5,90 " fill="none" style="stroke:#000000;stroke-width:1.5;"/><line style="stroke:#000000;stroke-width:1.5;" x1="6" x2="77" y1="115.0679" y2="115.0679"/><text fill="#000000" font-family="sans-serif" font-size="14" font-weight="bold" lengthAdjust="spacing" textLength="58" x="10" y="106.9659">analyzer</text></g><!--MD5=[10ea673caf457862023e152271927b45]
cluster controller--><g id="cluster_controller"><path d="M32.5,136 L101.5,136 A3.75,3.75 0 0 1 104,138.5 L111,161.0679 L1144.5,161.0679 A2.5,2.5 0 0 1 1147,163.5679 L1147,704.5 A2.5,2.5 0 0 1 1144.5,707 L32.5,707 A2.5,2.5 0 0 1 30,704.5 L30,138.5 A2.5,2.5 0 0 1 32.5,136 " fill="none" style="stroke:#000000;stroke-width:1.5;"/><line style="stroke:#000000;stroke-width:1.5;" x1="30" x2="111" y1="161.0679" y2="161.0679"/><text fill="#000000" font-family="sans-serif" font-size="14" font-weight="bold" lengthAdjust="spacing" textLength="68" x="34" y="152.9659">controller</text></g><!--MD5=[a43a0602824909ee7cb5f4554cd4a453]
cluster scanner--><g id="cluster_scanner"><path d="M56.5,435 L111.5,435 A3.75,3.75 0 0 1 114,437.5 L121,460.0679 L431.5,460.0679 A2.5,2.5 0 0 1 434,462.5679 L434,680.5 A2.5,2.5 0 0 1 431.5,683 L56.5,683 A2.5,2.5 0 0 1 54,680.5 L54,437.5 A2.5,2.5 0 0 1 56.5,435 " fill="none" style="stroke:#000000;stroke-width:1.5;"/><line style="stroke:#000000;stroke-width:1.5;" x1="54" x2="121" y1="460.0679" y2="460.0679"/><text fill="#000000" font-family="sans-serif" font-size="14" font-weight="bold" lengthAdjust="spacing" textLength="54" x="58" y="451.9659">scanner</text></g><!--MD5=[72fae8e1779ba7dedab19f6352fd74e8]
cluster parser--><g id="cluster_parser"><path d="M460.5,435 L505.5,435 A3.75,3.75 0 0 1 508,437.5 L515,460.0679 L740.5,460.0679 A2.5,2.5 0 0 1 743,462.5679 L743,671 A2.5,2.5 0 0 1 740.5,673.5 L460.5,673.5 A2.5,2.5 0 0 1 458,671 L458,437.5 A2.5,2.5 0 0 1 460.5,435 " fill="none" style="stroke:#000000;stroke-width:1.5;"/><line style="stroke:#000000;stroke-width:1.5;" x1="458" x2="515" y1="460.0679" y2="460.0679"/><text fill="#000000" font-family="sans-serif" font-size="14" font-weight="bold" lengthAdjust="spacing" textLength="44" x="462" y="451.9659">parser</text></g><!--MD5=[5d4cd377749310b66bf14896f5cd8d9b]
cluster model--><g id="cluster_model"><path d="M441.5,731 L486.5,731 A3.75,3.75 0 0 1 489,733.5 L496,756.0679 L1035.5,756.0679 A2.5,2.5 0 0 1 1038,758.5679 L1038,957.5 A2.5,2.5 0 0 1 1035.5,960 L441.5,960 A2.5,2.5 0 0 1 439,957.5 L439,733.5 A2.5,2.5 0 0 1 441.5,731 " fill="none" style="stroke:#000000;stroke-width:1.5;"/><line style="stroke:#000000;stroke-width:1.5;" x1="439" x2="496" y1="756.0679" y2="756.0679"/><text fill="#000000" font-family="sans-serif" font-size="14" font-weight="bold" lengthAdjust="spacing" textLength="44" x="443" y="747.9659">model</text></g><!--MD5=[30d8c28322589f84137aabb448e962ca]
class AnalyzerController--><g id="elem_AnalyzerController"><rect codeLine="11" fill="#F1F1F1" height="238.6792" id="AnalyzerController" rx="2.5" ry="2.5" style="stroke:#181818;stroke-width:0.5;" width="268" x="459" y="174"/><ellipse cx="526.25" cy="190" fill="#ADD1B2" rx="11" ry="11" style="stroke:#181818;stroke-width:1.0;"/><path d="M525.7188,196.9219 Q523.9688,196.9219 522.8281,196.1875 Q521.7031,195.4375 521.1406,194.0938 Q520.5938,192.7344 520.5938,190.9375 Q520.5938,188.9063 521.25,187.4531 Q521.9063,186 523.1875,185.2188 Q524.4688,184.4375 526.3438,184.4375 Q527.2344,184.4375 527.9063,184.625 Q528.5781,184.7969 529.2656,185.1406 L528.4531,187.1563 Q527.8281,186.8438 527.2813,186.7188 Q526.75,186.5938 526.2656,186.5938 Q525.0938,186.5938 524.3906,187.125 Q523.6875,187.6563 523.3906,188.6094 Q523.0938,189.5625 523.0938,190.8281 Q523.0938,192.8438 523.8125,193.8125 Q524.5313,194.7656 526.125,194.7656 Q526.7188,194.7656 527.3438,194.6094 Q527.9688,194.4531 528.7969,194.0781 L528.7969,196.2969 Q528.0625,196.6094 527.2656,196.7656 Q526.4844,196.9219 525.7188,196.9219 Z " fill="#000000"/><text fill="#000000" font-family="sans-serif" font-size="14" lengthAdjust="spacing" textLength="125" x="546.75" y="195.432">AnalyzerController</text><line style="stroke:#181818;stroke-width:0.5;" x1="460" x2="726" y1="206" y2="206"/><rect fill="none" height="6" style="stroke:#C82930;stroke-width:1.0;" width="6" x="467" y="218.034"/><text fill="#000000" font-family="sans-serif" font-size="14" lengthAdjust="spacing" textLength="136" x="479" y="224.9659">Scanneable scanner</text><rect fill="none" height="6" style="stroke:#C82930;stroke-width:1.0;" width="6" x="467" y="237.1019"/><text fill="#000000" font-family="sans-serif" font-size="14" lengthAdjust="spacing" textLength="114" x="479" y="244.0339">Parseable parser</text><rect fill="none" height="6" style="stroke:#C82930;stroke-width:1.0;" width="6" x="467" y="256.1698"/><text fill="#000000" font-family="sans-serif" font-size="14" lengthAdjust="spacing" textLength="242" x="479" y="263.1018">SymbolTableController symbolTable</text><rect fill="none" height="6" style="stroke:#C82930;stroke-width:1.0;" width="6" x="467" y="275.2377"/><text fill="#000000" font-family="sans-serif" font-size="14" lengthAdjust="spacing" textLength="139" x="479" y="282.1697">ErrorController error</text><line style="stroke:#181818;stroke-width:0.5;" x1="460" x2="726" y1="290.2717" y2="290.2717"/><ellipse cx="470" cy="305.3056" fill="#84BE84" rx="3" ry="3" style="stroke:#038048;stroke-width:1.0;"/><text fill="#000000" font-family="sans-serif" font-size="14" lengthAdjust="spacing" textLength="212" x="479" y="309.2376">setSource(String path): boolean</text><ellipse cx="470" cy="324.3735" fill="#84BE84" rx="3" ry="3" style="stroke:#038048;stroke-width:1.0;"/><text fill="#000000" font-family="sans-serif" font-size="14" lengthAdjust="spacing" textLength="142" x="479" y="328.3055">doAnalysis(): boolean</text><ellipse cx="470" cy="343.4415" fill="#84BE84" rx="3" ry="3" style="stroke:#038048;stroke-width:1.0;"/><text fill="#000000" font-family="sans-serif" font-size="14" lengthAdjust="spacing" textLength="186" x="479" y="347.3734">getSyntaxTree(): SyntaxTree</text><ellipse cx="470" cy="362.5094" fill="#84BE84" rx="3" ry="3" style="stroke:#038048;stroke-width:1.0;"/><text fill="#000000" font-family="sans-serif" font-size="14" lengthAdjust="spacing" textLength="133" x="479" y="366.4414">areErrors(): boolean</text><ellipse cx="470" cy="381.5773" fill="#84BE84" rx="3" ry="3" style="stroke:#038048;stroke-width:1.0;"/><text fill="#000000" font-family="sans-serif" font-size="14" lengthAdjust="spacing" textLength="113" x="479" y="385.5093">getErrors(): Error</text><ellipse cx="470" cy="400.6452" fill="#84BE84" rx="3" ry="3" style="stroke:#038048;stroke-width:1.0;"/><text fill="#000000" font-family="sans-serif" font-size="14" lengthAdjust="spacing" textLength="210" x="479" y="404.5772">getSymbolTable(): SymbolTable</text></g><!--MD5=[2bb698562f3043c7db240a641fae6128]
class SymbolTableController--><g id="elem_SymbolTableController"><rect codeLine="24" fill="#F1F1F1" height="67.0679" id="SymbolTableController" rx="2.5" ry="2.5" style="stroke:#181818;stroke-width:0.5;" width="201" x="761.5" y="473"/><ellipse cx="783.7" cy="489" fill="#ADD1B2" rx="11" ry="11" style="stroke:#181818;stroke-width:1.0;"/><path d="M783.1688,495.9219 Q781.4188,495.9219 780.2781,495.1875 Q779.1531,494.4375 778.5906,493.0938 Q778.0438,491.7344 778.0438,489.9375 Q778.0438,487.9063 778.7,486.4531 Q779.3563,485 780.6375,484.2188 Q781.9188,483.4375 783.7938,483.4375 Q784.6844,483.4375 785.3563,483.625 Q786.0281,483.7969 786.7156,484.1406 L785.9031,486.1563 Q785.2781,485.8438 784.7313,485.7188 Q784.2,485.5938 783.7156,485.5938 Q782.5438,485.5938 781.8406,486.125 Q781.1375,486.6563 780.8406,487.6094 Q780.5438,488.5625 780.5438,489.8281 Q780.5438,491.8438 781.2625,492.8125 Q781.9813,493.7656 783.575,493.7656 Q784.1688,493.7656 784.7938,493.6094 Q785.4188,493.4531 786.2469,493.0781 L786.2469,495.2969 Q785.5125,495.6094 784.7156,495.7656 Q783.9344,495.9219 783.1688,495.9219 Z " fill="#000000"/><text fill="#000000" font-family="sans-serif" font-size="14" lengthAdjust="spacing" textLength="153" x="799.3" y="494.432">SymbolTableController</text><line style="stroke:#181818;stroke-width:0.5;" x1="762.5" x2="961.5" y1="505" y2="505"/><rect fill="none" height="6" style="stroke:#C82930;stroke-width:1.0;" width="6" x="769.5" y="517.034"/><text fill="#000000" font-family="sans-serif" font-size="14" lengthAdjust="spacing" textLength="175" x="781.5" y="523.9659">SymbolTable symbolTable</text><line style="stroke:#181818;stroke-width:0.5;" x1="762.5" x2="961.5" y1="532.0679" y2="532.0679"/></g><!--MD5=[078efc812ec3517f16515a0cc8bfe76c]
class ErrorController--><g id="elem_ErrorController"><rect codeLine="29" fill="#F1F1F1" height="67.0679" id="ErrorController" rx="2.5" ry="2.5" style="stroke:#181818;stroke-width:0.5;" width="133" x="997.5" y="473"/><ellipse cx="1012.5" cy="489" fill="#ADD1B2" rx="11" ry="11" style="stroke:#181818;stroke-width:1.0;"/><path d="M1011.9688,495.9219 Q1010.2188,495.9219 1009.0781,495.1875 Q1007.9531,494.4375 1007.3906,493.0938 Q1006.8438,491.7344 1006.8438,489.9375 Q1006.8438,487.9063 1007.5,486.4531 Q1008.1563,485 1009.4375,484.2188 Q1010.7188,483.4375 1012.5938,483.4375 Q1013.4844,483.4375 1014.1563,483.625 Q1014.8281,483.7969 1015.5156,484.1406 L1014.7031,486.1563 Q1014.0781,485.8438 1013.5313,485.7188 Q1013,485.5938 1012.5156,485.5938 Q1011.3438,485.5938 1010.6406,486.125 Q1009.9375,486.6563 1009.6406,487.6094 Q1009.3438,488.5625 1009.3438,489.8281 Q1009.3438,491.8438 1010.0625,492.8125 Q1010.7813,493.7656 1012.375,493.7656 Q1012.9688,493.7656 1013.5938,493.6094 Q1014.2188,493.4531 1015.0469,493.0781 L1015.0469,495.2969 Q1014.3125,495.6094 1013.5156,495.7656 Q1012.7344,495.9219 1011.9688,495.9219 Z " fill="#000000"/><text fill="#000000" font-family="sans-serif" font-size="14" lengthAdjust="spacing" textLength="101" x="1026.5" y="494.432">ErrorController</text><line style="stroke:#181818;stroke-width:0.5;" x1="998.5" x2="1129.5" y1="505" y2="505"/><rect fill="none" height="6" style="stroke:#C82930;stroke-width:1.0;" width="6" x="1005.5" y="517.034"/><text fill="#000000" font-family="sans-serif" font-size="14" lengthAdjust="spacing" textLength="72" x="1017.5" y="523.9659">Error error</text><line style="stroke:#181818;stroke-width:0.5;" x1="998.5" x2="1129.5" y1="532.0679" y2="532.0679"/></g><!--MD5=[3d180d7354bb209a2db0a5498088a200]
class ScannerFactory--><g id="elem_ScannerFactory"><rect codeLine="37" fill="#F1F1F1" height="67.0679" id="ScannerFactory" rx="2.5" ry="2.5" style="stroke:#181818;stroke-width:0.5;" width="135" x="151.5" y="473"/><ellipse cx="166.5" cy="489" fill="#EB937F" rx="11" ry="11" style="stroke:#181818;stroke-width:1.0;"/><path d="M162.8594,495.5 L162.8594,483.3594 L170.5156,483.3594 L170.5156,485.4844 L165.2344,485.4844 L165.2344,488.1406 L170.25,488.1406 L170.25,490.2656 L165.2344,490.2656 L165.2344,493.375 L170.5156,493.375 L170.5156,495.5 L162.8594,495.5 Z " fill="#000000"/><text fill="#000000" font-family="sans-serif" font-size="14" lengthAdjust="spacing" textLength="103" x="180.5" y="494.432">ScannerFactory</text><line style="stroke:#181818;stroke-width:0.5;" x1="152.5" x2="285.5" y1="505" y2="505"/><line style="stroke:#181818;stroke-width:0.5;" x1="152.5" x2="285.5" y1="513" y2="513"/><ellipse cx="162.5" cy="528.034" fill="#84BE84" rx="3" ry="3" style="stroke:#038048;stroke-width:1.0;"/><text fill="#000000" font-family="sans-serif" font-size="14" lengthAdjust="spacing" textLength="85" x="171.5" y="531.9659">getScanner()</text></g><!--MD5=[e0ef22b899b65320c18f22c727ea3624]
class SyntaxTreeController--><g id="elem_SyntaxTreeController"><rect codeLine="42" fill="#F1F1F1" height="67.0679" id="SyntaxTreeController" rx="2.5" ry="2.5" style="stroke:#181818;stroke-width:0.5;" width="177" x="69.5" y="600"/><ellipse cx="86.3" cy="616" fill="#ADD1B2" rx="11" ry="11" style="stroke:#181818;stroke-width:1.0;"/><path d="M85.7688,622.9219 Q84.0188,622.9219 82.8781,622.1875 Q81.7531,621.4375 81.1906,620.0938 Q80.6438,618.7344 80.6438,616.9375 Q80.6438,614.9063 81.3,613.4531 Q81.9563,612 83.2375,611.2188 Q84.5188,610.4375 86.3938,610.4375 Q87.2844,610.4375 87.9563,610.625 Q88.6281,610.7969 89.3156,611.1406 L88.5031,613.1563 Q87.8781,612.8438 87.3313,612.7188 Q86.8,612.5938 86.3156,612.5938 Q85.1438,612.5938 84.4406,613.125 Q83.7375,613.6563 83.4406,614.6094 Q83.1438,615.5625 83.1438,616.8281 Q83.1438,618.8438 83.8625,619.8125 Q84.5813,620.7656 86.175,620.7656 Q86.7688,620.7656 87.3938,620.6094 Q88.0188,620.4531 88.8469,620.0781 L88.8469,622.2969 Q88.1125,622.6094 87.3156,622.7656 Q86.5344,622.9219 85.7688,622.9219 Z " fill="#000000"/><text fill="#000000" font-family="sans-serif" font-size="14" lengthAdjust="spacing" textLength="141" x="100.7" y="621.432">SyntaxTreeController</text><line style="stroke:#181818;stroke-width:0.5;" x1="70.5" x2="245.5" y1="632" y2="632"/><rect fill="none" height="6" style="stroke:#C82930;stroke-width:1.0;" width="6" x="77.5" y="644.034"/><text fill="#000000" font-family="sans-serif" font-size="14" lengthAdjust="spacing" textLength="151" x="89.5" y="650.9659">SyntaxTree syntaxTree</text><line style="stroke:#181818;stroke-width:0.5;" x1="70.5" x2="245.5" y1="659.0679" y2="659.0679"/></g><!--MD5=[50ebd45f45accd13d980f986bd8af47d]
class Scannable--><g id="elem_Scannable"><rect codeLine="47" fill="#F1F1F1" height="48" id="Scannable" rx="2.5" ry="2.5" style="stroke:#181818;stroke-width:0.5;" width="96" x="322" y="482.5"/><ellipse cx="337" cy="498.5" fill="#B4A7E5" rx="11" ry="11" style="stroke:#181818;stroke-width:1.0;"/><path d="M333.0313,505 L333.0313,503.2969 L335.3906,503.0313 L335.3906,494.8281 L333.0313,494.5625 L333.0313,492.8594 L340.1719,492.8594 L340.1719,494.5625 L337.75,494.8281 L337.75,503.0313 L340.1719,503.2969 L340.1719,505 L333.0313,505 Z " fill="#000000"/><text fill="#000000" font-family="sans-serif" font-size="14" font-style="italic" lengthAdjust="spacing" textLength="64" x="351" y="503.932">Scannable</text><line style="stroke:#181818;stroke-width:0.5;" x1="323" x2="417" y1="514.5" y2="514.5"/><line style="stroke:#181818;stroke-width:0.5;" x1="323" x2="417" y1="522.5" y2="522.5"/></g><!--MD5=[f2190b6eaa697b7e984707b7f24661eb]
class JSStackAutomat--><g id="elem_JSStackAutomat"><rect codeLine="51" fill="#F1F1F1" height="48" id="JSStackAutomat" rx="2.5" ry="2.5" style="stroke:#181818;stroke-width:0.5;" width="136" x="282" y="609.5"/><ellipse cx="297" cy="625.5" fill="#ADD1B2" rx="11" ry="11" style="stroke:#181818;stroke-width:1.0;"/><path d="M296.4688,632.4219 Q294.7188,632.4219 293.5781,631.6875 Q292.4531,630.9375 291.8906,629.5938 Q291.3438,628.2344 291.3438,626.4375 Q291.3438,624.4063 292,622.9531 Q292.6563,621.5 293.9375,620.7188 Q295.2188,619.9375 297.0938,619.9375 Q297.9844,619.9375 298.6563,620.125 Q299.3281,620.2969 300.0156,620.6406 L299.2031,622.6563 Q298.5781,622.3438 298.0313,622.2188 Q297.5,622.0938 297.0156,622.0938 Q295.8438,622.0938 295.1406,622.625 Q294.4375,623.1563 294.1406,624.1094 Q293.8438,625.0625 293.8438,626.3281 Q293.8438,628.3438 294.5625,629.3125 Q295.2813,630.2656 296.875,630.2656 Q297.4688,630.2656 298.0938,630.1094 Q298.7188,629.9531 299.5469,629.5781 L299.5469,631.7969 Q298.8125,632.1094 298.0156,632.2656 Q297.2344,632.4219 296.4688,632.4219 Z " fill="#000000"/><text fill="#000000" font-family="sans-serif" font-size="14" lengthAdjust="spacing" textLength="104" x="311" y="630.932">JSStackAutomat</text><line style="stroke:#181818;stroke-width:0.5;" x1="283" x2="417" y1="641.5" y2="641.5"/><line style="stroke:#181818;stroke-width:0.5;" x1="283" x2="417" y1="649.5" y2="649.5"/></g><!--MD5=[0478eee3cab6329f179af95997d0a1c7]
class ParserFactory--><g id="elem_ParserFactory"><rect codeLine="65" fill="#F1F1F1" height="67.0679" id="ParserFactory" rx="2.5" ry="2.5" style="stroke:#181818;stroke-width:0.5;" width="123" x="603.5" y="473"/><ellipse cx="618.5" cy="489" fill="#EB937F" rx="11" ry="11" style="stroke:#181818;stroke-width:1.0;"/><path d="M614.8594,495.5 L614.8594,483.3594 L622.5156,483.3594 L622.5156,485.4844 L617.2344,485.4844 L617.2344,488.1406 L622.25,488.1406 L622.25,490.2656 L617.2344,490.2656 L617.2344,493.375 L622.5156,493.375 L622.5156,495.5 L614.8594,495.5 Z " fill="#000000"/><text fill="#000000" font-family="sans-serif" font-size="14" lengthAdjust="spacing" textLength="91" x="632.5" y="494.432">ParserFactory</text><line style="stroke:#181818;stroke-width:0.5;" x1="604.5" x2="725.5" y1="505" y2="505"/><line style="stroke:#181818;stroke-width:0.5;" x1="604.5" x2="725.5" y1="513" y2="513"/><ellipse cx="614.5" cy="528.034" fill="#84BE84" rx="3" ry="3" style="stroke:#038048;stroke-width:1.0;"/><text fill="#000000" font-family="sans-serif" font-size="14" lengthAdjust="spacing" textLength="73" x="623.5" y="531.9659">getParser()</text></g><!--MD5=[d88cac1ca16930b80ad72f4d801b81da]
class Parseable--><g id="elem_Parseable"><rect codeLine="69" fill="#F1F1F1" height="48" id="Parseable" rx="2.5" ry="2.5" style="stroke:#181818;stroke-width:0.5;" width="94" x="474" y="482.5"/><ellipse cx="489" cy="498.5" fill="#B4A7E5" rx="11" ry="11" style="stroke:#181818;stroke-width:1.0;"/><path d="M485.0313,505 L485.0313,503.2969 L487.3906,503.0313 L487.3906,494.8281 L485.0313,494.5625 L485.0313,492.8594 L492.1719,492.8594 L492.1719,494.5625 L489.75,494.8281 L489.75,503.0313 L492.1719,503.2969 L492.1719,505 L485.0313,505 Z " fill="#000000"/><text fill="#000000" font-family="sans-serif" font-size="14" font-style="italic" lengthAdjust="spacing" textLength="62" x="503" y="503.932">Parseable</text><line style="stroke:#181818;stroke-width:0.5;" x1="475" x2="567" y1="514.5" y2="514.5"/><line style="stroke:#181818;stroke-width:0.5;" x1="475" x2="567" y1="522.5" y2="522.5"/></g><!--MD5=[81fd118214366e633a357d180763f423]
class JSFinitAutamt--><g id="elem_JSFinitAutamt"><rect codeLine="73" fill="#F1F1F1" height="48" id="JSFinitAutamt" rx="2.5" ry="2.5" style="stroke:#181818;stroke-width:0.5;" width="122" x="474" y="609.5"/><ellipse cx="489" cy="625.5" fill="#ADD1B2" rx="11" ry="11" style="stroke:#181818;stroke-width:1.0;"/><path d="M488.4688,632.4219 Q486.7188,632.4219 485.5781,631.6875 Q484.4531,630.9375 483.8906,629.5938 Q483.3438,628.2344 483.3438,626.4375 Q483.3438,624.4063 484,622.9531 Q484.6563,621.5 485.9375,620.7188 Q487.2188,619.9375 489.0938,619.9375 Q489.9844,619.9375 490.6563,620.125 Q491.3281,620.2969 492.0156,620.6406 L491.2031,622.6563 Q490.5781,622.3438 490.0313,622.2188 Q489.5,622.0938 489.0156,622.0938 Q487.8438,622.0938 487.1406,622.625 Q486.4375,623.1563 486.1406,624.1094 Q485.8438,625.0625 485.8438,626.3281 Q485.8438,628.3438 486.5625,629.3125 Q487.2813,630.2656 488.875,630.2656 Q489.4688,630.2656 490.0938,630.1094 Q490.7188,629.9531 491.5469,629.5781 L491.5469,631.7969 Q490.8125,632.1094 490.0156,632.2656 Q489.2344,632.4219 488.4688,632.4219 Z " fill="#000000"/><text fill="#000000" font-family="sans-serif" font-size="14" lengthAdjust="spacing" textLength="90" x="503" y="630.932">JSFinitAutamt</text><line style="stroke:#181818;stroke-width:0.5;" x1="475" x2="595" y1="641.5" y2="641.5"/><line style="stroke:#181818;stroke-width:0.5;" x1="475" x2="595" y1="649.5" y2="649.5"/></g><!--MD5=[b8cfd8c4119a3b0a7a46bfc5fc780f85]
class Error--><g id="elem_Error"><rect codeLine="99" fill="#F1F1F1" height="48" id="Error" rx="2.5" ry="2.5" style="stroke:#181818;stroke-width:0.5;" width="66" x="956" y="778.5"/><ellipse cx="971" cy="794.5" fill="#ADD1B2" rx="11" ry="11" style="stroke:#181818;stroke-width:1.0;"/><path d="M970.4688,801.4219 Q968.7188,801.4219 967.5781,800.6875 Q966.4531,799.9375 965.8906,798.5938 Q965.3438,797.2344 965.3438,795.4375 Q965.3438,793.4063 966,791.9531 Q966.6563,790.5 967.9375,789.7188 Q969.2188,788.9375 971.0938,788.9375 Q971.9844,788.9375 972.6563,789.125 Q973.3281,789.2969 974.0156,789.6406 L973.2031,791.6563 Q972.5781,791.3438 972.0313,791.2188 Q971.5,791.0938 971.0156,791.0938 Q969.8438,791.0938 969.1406,791.625 Q968.4375,792.1563 968.1406,793.1094 Q967.8438,794.0625 967.8438,795.3281 Q967.8438,797.3438 968.5625,798.3125 Q969.2813,799.2656 970.875,799.2656 Q971.4688,799.2656 972.0938,799.1094 Q972.7188,798.9531 973.5469,798.5781 L973.5469,800.7969 Q972.8125,801.1094 972.0156,801.2656 Q971.2344,801.4219 970.4688,801.4219 Z " fill="#000000"/><text fill="#000000" font-family="sans-serif" font-size="14" lengthAdjust="spacing" textLength="34" x="985" y="799.932">Error</text><line style="stroke:#181818;stroke-width:0.5;" x1="957" x2="1021" y1="810.5" y2="810.5"/><line style="stroke:#181818;stroke-width:0.5;" x1="957" x2="1021" y1="818.5" y2="818.5"/></g><!--MD5=[738e4f512b46f6d893f36a61ba8cff5e]
class SyntaxTree--><g id="elem_SyntaxTree"><rect codeLine="103" fill="#F1F1F1" height="48" id="SyntaxTree" rx="2.5" ry="2.5" style="stroke:#181818;stroke-width:0.5;" width="106" x="662" y="778.5"/><ellipse cx="677" cy="794.5" fill="#ADD1B2" rx="11" ry="11" style="stroke:#181818;stroke-width:1.0;"/><path d="M676.4688,801.4219 Q674.7188,801.4219 673.5781,800.6875 Q672.4531,799.9375 671.8906,798.5938 Q671.3438,797.2344 671.3438,795.4375 Q671.3438,793.4063 672,791.9531 Q672.6563,790.5 673.9375,789.7188 Q675.2188,788.9375 677.0938,788.9375 Q677.9844,788.9375 678.6563,789.125 Q679.3281,789.2969 680.0156,789.6406 L679.2031,791.6563 Q678.5781,791.3438 678.0313,791.2188 Q677.5,791.0938 677.0156,791.0938 Q675.8438,791.0938 675.1406,791.625 Q674.4375,792.1563 674.1406,793.1094 Q673.8438,794.0625 673.8438,795.3281 Q673.8438,797.3438 674.5625,798.3125 Q675.2813,799.2656 676.875,799.2656 Q677.4688,799.2656 678.0938,799.1094 Q678.7188,798.9531 679.5469,798.5781 L679.5469,800.7969 Q678.8125,801.1094 678.0156,801.2656 Q677.2344,801.4219 676.4688,801.4219 Z " fill="#000000"/><text fill="#000000" font-family="sans-serif" font-size="14" lengthAdjust="spacing" textLength="74" x="691" y="799.932">SyntaxTree</text><line style="stroke:#181818;stroke-width:0.5;" x1="663" x2="767" y1="810.5" y2="810.5"/><line style="stroke:#181818;stroke-width:0.5;" x1="663" x2="767" y1="818.5" y2="818.5"/></g><!--MD5=[6585dc51e3fc1f40fb4eab6b6c55514c]
class SymbolTable--><g id="elem_SymbolTable"><rect codeLine="107" fill="#F1F1F1" height="48" id="SymbolTable" rx="2.5" ry="2.5" style="stroke:#181818;stroke-width:0.5;" width="118" x="803" y="778.5"/><ellipse cx="818" cy="794.5" fill="#ADD1B2" rx="11" ry="11" style="stroke:#181818;stroke-width:1.0;"/><path d="M817.4688,801.4219 Q815.7188,801.4219 814.5781,800.6875 Q813.4531,799.9375 812.8906,798.5938 Q812.3438,797.2344 812.3438,795.4375 Q812.3438,793.4063 813,791.9531 Q813.6563,790.5 814.9375,789.7188 Q816.2188,788.9375 818.0938,788.9375 Q818.9844,788.9375 819.6563,789.125 Q820.3281,789.2969 821.0156,789.6406 L820.2031,791.6563 Q819.5781,791.3438 819.0313,791.2188 Q818.5,791.0938 818.0156,791.0938 Q816.8438,791.0938 816.1406,791.625 Q815.4375,792.1563 815.1406,793.1094 Q814.8438,794.0625 814.8438,795.3281 Q814.8438,797.3438 815.5625,798.3125 Q816.2813,799.2656 817.875,799.2656 Q818.4688,799.2656 819.0938,799.1094 Q819.7188,798.9531 820.5469,798.5781 L820.5469,800.7969 Q819.8125,801.1094 819.0156,801.2656 Q818.2344,801.4219 817.4688,801.4219 Z " fill="#000000"/><text fill="#000000" font-family="sans-serif" font-size="14" lengthAdjust="spacing" textLength="86" x="832" y="799.932">SymbolTable</text><line style="stroke:#181818;stroke-width:0.5;" x1="804" x2="920" y1="810.5" y2="810.5"/><line style="stroke:#181818;stroke-width:0.5;" x1="804" x2="920" y1="818.5" y2="818.5"/></g><!--MD5=[d8c8cfd5ca149094f5b67f9f607a5ec7]
class Token--><g id="elem_Token"><rect codeLine="110" fill="#F1F1F1" height="67.0679" id="Token" rx="2.5" ry="2.5" style="stroke:#181818;stroke-width:0.5;" width="171" x="455.5" y="769"/><ellipse cx="516.75" cy="785" fill="#ADD1B2" rx="11" ry="11" style="stroke:#181818;stroke-width:1.0;"/><path d="M516.2188,791.9219 Q514.4688,791.9219 513.3281,791.1875 Q512.2031,790.4375 511.6406,789.0938 Q511.0938,787.7344 511.0938,785.9375 Q511.0938,783.9063 511.75,782.4531 Q512.4063,781 513.6875,780.2188 Q514.9688,779.4375 516.8438,779.4375 Q517.7344,779.4375 518.4063,779.625 Q519.0781,779.7969 519.7656,780.1406 L518.9531,782.1563 Q518.3281,781.8438 517.7813,781.7188 Q517.25,781.5938 516.7656,781.5938 Q515.5938,781.5938 514.8906,782.125 Q514.1875,782.6563 513.8906,783.6094 Q513.5938,784.5625 513.5938,785.8281 Q513.5938,787.8438 514.3125,788.8125 Q515.0313,789.7656 516.625,789.7656 Q517.2188,789.7656 517.8438,789.6094 Q518.4688,789.4531 519.2969,789.0781 L519.2969,791.2969 Q518.5625,791.6094 517.7656,791.7656 Q516.9844,791.9219 516.2188,791.9219 Z " fill="#000000"/><text fill="#000000" font-family="sans-serif" font-size="14" lengthAdjust="spacing" textLength="40" x="537.25" y="790.432">Token</text><line style="stroke:#181818;stroke-width:0.5;" x1="456.5" x2="625.5" y1="801" y2="801"/><rect fill="none" height="6" style="stroke:#C82930;stroke-width:1.0;" width="6" x="463.5" y="813.034"/><text fill="#000000" font-family="sans-serif" font-size="14" lengthAdjust="spacing" textLength="145" x="475.5" y="819.9659">TypeToken typeToken</text><line style="stroke:#181818;stroke-width:0.5;" x1="456.5" x2="625.5" y1="828.0679" y2="828.0679"/></g><!--MD5=[1147ad1d3bd68c3cc5ba8629663b3aad]
class TypeToken--><g id="elem_TypeToken"><rect codeLine="114" fill="#F1F1F1" height="48" id="TypeToken" rx="2.5" ry="2.5" style="stroke:#181818;stroke-width:0.5;" width="104" x="489" y="896"/><ellipse cx="504" cy="912" fill="#EB937F" rx="11" ry="11" style="stroke:#181818;stroke-width:1.0;"/><path d="M500.3594,918.5 L500.3594,906.3594 L508.0156,906.3594 L508.0156,908.4844 L502.7344,908.4844 L502.7344,911.1406 L507.75,911.1406 L507.75,913.2656 L502.7344,913.2656 L502.7344,916.375 L508.0156,916.375 L508.0156,918.5 L500.3594,918.5 Z " fill="#000000"/><text fill="#000000" font-family="sans-serif" font-size="14" lengthAdjust="spacing" textLength="72" x="518" y="917.432">TypeToken</text><line style="stroke:#181818;stroke-width:0.5;" x1="490" x2="592" y1="928" y2="928"/><line style="stroke:#181818;stroke-width:0.5;" x1="490" x2="592" y1="936" y2="936"/></g><!--MD5=[335f4d9be48430461c68bf6d6fdba145]
class App--><g id="elem_App"><rect codeLine="3" fill="#F1F1F1" height="67.0679" id="App" rx="2.5" ry="2.5" style="stroke:#181818;stroke-width:0.5;" width="169" x="508.5" y="7"/><ellipse cx="575.25" cy="23" fill="#ADD1B2" rx="11" ry="11" style="stroke:#181818;stroke-width:1.0;"/><path d="M574.7188,29.9219 Q572.9688,29.9219 571.8281,29.1875 Q570.7031,28.4375 570.1406,27.0938 Q569.5938,25.7344 569.5938,23.9375 Q569.5938,21.9063 570.25,20.4531 Q570.9063,19 572.1875,18.2188 Q573.4688,17.4375 575.3438,17.4375 Q576.2344,17.4375 576.9063,17.625 Q577.5781,17.7969 578.2656,18.1406 L577.4531,20.1563 Q576.8281,19.8438 576.2813,19.7188 Q575.75,19.5938 575.2656,19.5938 Q574.0938,19.5938 573.3906,20.125 Q572.6875,20.6563 572.3906,21.6094 Q572.0938,22.5625 572.0938,23.8281 Q572.0938,25.8438 572.8125,26.8125 Q573.5313,27.7656 575.125,27.7656 Q575.7188,27.7656 576.3438,27.6094 Q576.9688,27.4531 577.7969,27.0781 L577.7969,29.2969 Q577.0625,29.6094 576.2656,29.7656 Q575.4844,29.9219 574.7188,29.9219 Z " fill="#000000"/><text fill="#000000" font-family="sans-serif" font-size="14" lengthAdjust="spacing" textLength="27" x="595.75" y="28.432">App</text><line style="stroke:#181818;stroke-width:0.5;" x1="509.5" x2="676.5" y1="39" y2="39"/><line style="stroke:#181818;stroke-width:0.5;" x1="509.5" x2="676.5" y1="47" y2="47"/><ellipse cx="519.5" cy="62.034" fill="#84BE84" rx="3" ry="3" style="stroke:#038048;stroke-width:1.0;"/><text fill="#000000" font-family="sans-serif" font-size="14" lengthAdjust="spacing" textLength="143" x="528.5" y="65.9659">executeTestAnalysis()</text></g><!--MD5=[223764f63b6e1da79287bebdf7722b07]
reverse link Scannable to JSStackAutomat--><g id="link_Scannable_JSStackAutomat"><path codeLine="55" d="M363.11,550.59 C359.95,570.33 356.33,592.95 353.7,609.41 " fill="none" id="Scannable-backto-JSStackAutomat" style="stroke:#181818;stroke-width:1.0;"/><polygon fill="none" points="356.21,549.36,366.29,530.72,370.04,551.57,356.21,549.36" style="stroke:#181818;stroke-width:1.0;"/></g><!--MD5=[5823bbcc66672bb446f0f50de649013c]
reverse link Scannable to SyntaxTreeController--><g id="link_Scannable_SyntaxTreeController"><path codeLine="56" d="M319.29,537.4 C287.29,556.27 245.96,580.64 213.15,599.98 " fill="none" id="Scannable-backto-SyntaxTreeController" style="stroke:#181818;stroke-width:1.0;"/><polygon fill="#181818" points="330.62,530.72,323.42,530.32,320.2815,536.8123,327.4815,537.2123,330.62,530.72" style="stroke:#181818;stroke-width:1.0;"/></g><!--MD5=[ccab6bf38fddf60d4ce77c5d5b46e960]
link ScannerFactory to Scannable--><g id="link_ScannerFactory_Scannable"><path codeLine="58" d="M286.54,506.5 C296.53,506.5 306.53,506.5 316.52,506.5 " fill="none" id="ScannerFactory-to-Scannable" style="stroke:#181818;stroke-width:1.0;stroke-dasharray:7.0,7.0;"/><polygon fill="#181818" points="321.75,506.5,312.75,502.5,316.75,506.5,312.75,510.5,321.75,506.5" style="stroke:#181818;stroke-width:1.0;"/></g><!--MD5=[f1b1822539abd30b2950c1725ba36fa9]
reverse link Parseable to JSFinitAutamt--><g id="link_Parseable_JSFinitAutamt"><path codeLine="77" d="M525.86,550.91 C528.06,570.58 530.58,593.04 532.41,609.41 " fill="none" id="Parseable-backto-JSFinitAutamt" style="stroke:#181818;stroke-width:1.0;"/><polygon fill="none" points="518.87,551.37,523.6,530.72,532.78,549.82,518.87,551.37" style="stroke:#181818;stroke-width:1.0;"/></g><!--MD5=[9f498e688cfa9190767d180e4c53e7ac]
reverse link Parseable to ParserFactory--><g id="link_Parseable_ParserFactory"><path codeLine="78" d="M573.47,506.5 C583.44,506.5 593.42,506.5 603.4,506.5 " fill="none" id="Parseable-backto-ParserFactory" style="stroke:#181818;stroke-width:1.0;stroke-dasharray:7.0,7.0;"/><polygon fill="#181818" points="568.25,506.5,577.25,510.5,573.25,506.5,577.25,502.5,568.25,506.5" style="stroke:#181818;stroke-width:1.0;"/></g><!--MD5=[6b597b2deda4ed8e1708e6c37241ce76]
reverse link AnalyzerController to Parseable--><g id="link_AnalyzerController_Parseable"><path codeLine="84" d="M548.18,425.84 C540.76,447.59 533.87,467.77 528.89,482.38 " fill="none" id="AnalyzerController-backto-Parseable" style="stroke:#181818;stroke-width:1.0;"/><polygon fill="#181818" points="552.48,413.26,546.7557,417.6455,548.6023,424.6162,554.3265,420.2307,552.48,413.26" style="stroke:#181818;stroke-width:1.0;"/></g><!--MD5=[4c1a00ab1f0200fca7cfd475469a2b5a]
reverse link AnalyzerController to Scannable--><g id="link_AnalyzerController_Scannable"><path codeLine="85" d="M457.73,422.49 C433.41,445.51 410.67,467.02 394.44,482.38 " fill="none" id="AnalyzerController-backto-Scannable" style="stroke:#181818;stroke-width:1.0;"/><polygon fill="#181818" points="467.49,413.26,460.3821,414.4758,458.7706,421.5045,465.8785,420.2887,467.49,413.26" style="stroke:#181818;stroke-width:1.0;"/></g><!--MD5=[02858fff888d069e05a94abd63ac7f9d]
reverse link AnalyzerController to SymbolTableController--><g id="link_AnalyzerController_SymbolTableController"><path codeLine="86" d="M737.44,407.8 C767.87,431.67 797.62,455 820.41,472.88 " fill="none" id="AnalyzerController-backto-SymbolTableController" style="stroke:#181818;stroke-width:1.0;"/><polygon fill="#181818" points="727.11,399.69,729.3659,406.5391,736.5559,407.091,734.3,400.2419,727.11,399.69" style="stroke:#181818;stroke-width:1.0;"/></g><!--MD5=[a26dbdaa274815370b1f65887ae10721]
reverse link AnalyzerController to ErrorController--><g id="link_AnalyzerController_ErrorController"><path codeLine="87" d="M740.02,329.03 C815.14,350.5 906.04,382.59 980,427 C1000.36,439.23 1019.95,457.05 1035.07,472.62 " fill="none" id="AnalyzerController-backto-ErrorController" style="stroke:#181818;stroke-width:1.0;"/><polygon fill="#181818" points="727.15,325.41,731.8451,330.8832,738.7031,328.6544,734.008,323.1811,727.15,325.41" style="stroke:#181818;stroke-width:1.0;"/></g><!--MD5=[6a745050073d8a8ad3fe23526c35f15b]
link AnalyzerController to ParserFactory--><g id="link_AnalyzerController_ParserFactory"><path codeLine="89" d="M633.52,413.26 C640.31,433.13 646.87,452.37 652.23,468.08 " fill="none" id="AnalyzerController-to-ParserFactory" style="stroke:#181818;stroke-width:1.0;stroke-dasharray:7.0,7.0;"/><polygon fill="#181818" points="653.86,472.84,654.7378,463.0303,652.2446,468.1081,647.1668,465.615,653.86,472.84" style="stroke:#181818;stroke-width:1.0;"/></g><!--MD5=[ef02f0b072705d9dc579a21d39d9a53c]
link AnalyzerController to ScannerFactory--><g id="link_AnalyzerController_ScannerFactory"><path codeLine="90" d="M458.7,346.03 C408.64,367.84 352.48,395.52 305,427 C286.83,439.05 268.7,454.88 253.81,469.17 " fill="none" id="AnalyzerController-to-ScannerFactory" style="stroke:#181818;stroke-width:1.0;stroke-dasharray:7.0,7.0;"/><polygon fill="#181818" points="250.1,472.76,259.3484,469.3738,253.6923,469.2822,253.7839,463.6261,250.1,472.76" style="stroke:#181818;stroke-width:1.0;"/></g><!--MD5=[41ec22335e8039bd08e708d24e562171]
link Scannable to Parseable--><g id="link_Scannable_Parseable"><path codeLine="92" d="M418.07,522.12 C434.95,525.05 451.84,525.27 468.72,522.8 " fill="none" id="Scannable-to-Parseable" style="stroke:#181818;stroke-width:1.0;"/><polygon fill="#181818" points="473.96,521.94,464.4295,519.4561,469.0265,522.7527,465.7299,527.3497,473.96,521.94" style="stroke:#181818;stroke-width:1.0;"/></g><!--MD5=[88f8ae98fe0f0b6effa2e70597d5c710]
reverse link Token to TypeToken--><g id="link_Token_TypeToken"><path codeLine="118" d="M541,849.72 C541,865.5 541,882.47 541,895.67 " fill="none" id="Token-backto-TypeToken" style="stroke:#181818;stroke-width:1.0;"/><polygon fill="#181818" points="541,836.29,537,842.29,541,848.29,545,842.29,541,836.29" style="stroke:#181818;stroke-width:1.0;"/></g><!--MD5=[f361c2e230ac2afb6f6de4194130d5f7]
reverse link SymbolTableController to SymbolTable--><g id="link_SymbolTableController_SymbolTable"><path codeLine="122" d="M862,553.27 C862,616.97 862,729.99 862,778.42 " fill="none" id="SymbolTableController-backto-SymbolTable" style="stroke:#181818;stroke-width:1.0;"/><polygon fill="#181818" points="862,540.09,858,546.09,862,552.09,866,546.09,862,540.09" style="stroke:#181818;stroke-width:1.0;"/></g><!--MD5=[55ae2b4f63e51689811284c9a3c41dc8]
reverse link ErrorController to Error--><g id="link_ErrorController_Error"><path codeLine="123" d="M1052.43,552.87 C1036.19,616.5 1007.27,729.89 994.89,778.42 " fill="none" id="ErrorController-backto-Error" style="stroke:#181818;stroke-width:1.0;"/><polygon fill="#181818" points="1055.69,540.09,1050.331,544.9151,1052.7238,551.7176,1058.0828,546.8926,1055.69,540.09" style="stroke:#181818;stroke-width:1.0;"/></g><!--MD5=[eaeeb6060fdbc891539ab6f133f436cf]
reverse link SyntaxTreeController to SyntaxTree--><g id="link_SyntaxTreeController_SyntaxTree"><path codeLine="125" d="M199.97,675.73 C218.38,691.08 241.2,706.77 265,715 C304.81,728.77 605.68,705.51 644,723 C669.07,734.45 689.14,759.43 701.46,778.16 " fill="none" id="SyntaxTreeController-backto-SyntaxTree" style="stroke:#181818;stroke-width:1.0;"/><polygon fill="#181818" points="189.95,667.04,191.8609,673.9933,199.0143,674.9037,197.1034,667.9504,189.95,667.04" style="stroke:#181818;stroke-width:1.0;"/></g><!--MD5=[1f26e4dd56045fd5f4c121d258164fe0]
link App to AnalyzerController--><g id="link_App_AnalyzerController"><path codeLine="134" d="M593,74.06 C593,98.52 593,133.7 593,168.71 " fill="none" id="App-to-AnalyzerController" style="stroke:#181818;stroke-width:1.0;stroke-dasharray:7.0,7.0;"/><polygon fill="#181818" points="593,173.87,597,164.87,593,168.87,589,164.87,593,173.87" style="stroke:#181818;stroke-width:1.0;"/></g><!--MD5=[1403a6ba203bb988bcd6cac1e58a4ded]
@startuml classdiagram


class App{
    +executeTestAnalysis()
}

package analyzer{

    package controller{

        class AnalyzerController{
            -Scanneable scanner
            -Parseable parser
            -SymbolTableController symbolTable
            -ErrorController error
            +setSource(String path): boolean
            +doAnalysis(): boolean
            +getSyntaxTree(): SyntaxTree
            +areErrors(): boolean
            +getErrors(): Error
            +getSymbolTable(): SymbolTable
        }

        class SymbolTableController{
            -SymbolTable symbolTable

        }

        class ErrorController{
            -Error error

        }


        package scanner{

            enum ScannerFactory{
                +getScanner()
            }


            class SyntaxTreeController{
                -SyntaxTree syntaxTree

            }

            interface Scannable{

            }

            class JSStackAutomat{

            }

            JSStackAutomat -up-|> Scannable
            Scannable *- - SyntaxTreeController

            ScannerFactory .right.> Scannable


        }

        package parser{

            enum ParserFactory{
                +getParser()
            }

            interface Parseable{

            }

            class JSFinitAutamt{

            }

            JSFinitAutamt -up-|> Parseable
            ParserFactory .left.> Parseable

        }



        AnalyzerController *- - Parseable
        AnalyzerController *- - Scannable
        AnalyzerController *- - SymbolTableController
        AnalyzerController *- - ErrorController

        AnalyzerController ..> ParserFactory
        AnalyzerController ..> ScannerFactory

        Scannable -right-> Parseable

    }


    package model{

        class Error{

        }

        class SyntaxTree{

        }

        class SymbolTable


        class Token{
            -TypeToken typeToken
        }

        enum TypeToken{

        }

        Token *- - TypeToken

    }

    SymbolTableController *- - SymbolTable
    ErrorController *- - Error

    SyntaxTreeController *- - SyntaxTree

    

    

}


App .down.> AnalyzerController



@enduml

PlantUML version 1.2022.7(Mon Aug 22 11:01:30 CST 2022)
(GPL source distribution)
Java Runtime: OpenJDK Runtime Environment
JVM: OpenJDK 64-Bit Server VM
Default Encoding: UTF-8
Language: en
Country: US
--></g></svg>