<?xml version="1.0" encoding="UTF-8" standalone="no"?><svg xmlns="http://www.w3.org/2000/svg" xmlns:xlink="http://www.w3.org/1999/xlink" contentStyleType="text/css" height="1067px" preserveAspectRatio="none" style="width:1695px;height:1067px;background:#FFFFFF;" version="1.1" viewBox="0 0 1695 1067" width="1695px" zoomAndPan="magnify"><defs/><g><!--MD5=[3bd817c1526d01a4e9c17d9a45a66e08]
cluster analyzer--><g id="cluster_analyzer"><path d="M8.5,109 L67.5,109 A3.75,3.75 0 0 1 70,111.5 L77,134.0679 L1685.5,134.0679 A2.5,2.5 0 0 1 1688,136.5679 L1688,1057.5 A2.5,2.5 0 0 1 1685.5,1060 L8.5,1060 A2.5,2.5 0 0 1 6,1057.5 L6,111.5 A2.5,2.5 0 0 1 8.5,109 " fill="none" style="stroke:#000000;stroke-width:1.5;"/><line style="stroke:#000000;stroke-width:1.5;" x1="6" x2="77" y1="134.0679" y2="134.0679"/><text fill="#000000" font-family="sans-serif" font-size="14" font-weight="bold" lengthAdjust="spacing" textLength="58" x="10" y="125.9659">analyzer</text></g><!--MD5=[10ea673caf457862023e152271927b45]
cluster controller--><g id="cluster_controller"><path d="M32.5,155 L101.5,155 A3.75,3.75 0 0 1 104,157.5 L111,180.0679 L1661.5,180.0679 A2.5,2.5 0 0 1 1664,182.5679 L1664,780.5 A2.5,2.5 0 0 1 1661.5,783 L32.5,783 A2.5,2.5 0 0 1 30,780.5 L30,157.5 A2.5,2.5 0 0 1 32.5,155 " fill="none" style="stroke:#000000;stroke-width:1.5;"/><line style="stroke:#000000;stroke-width:1.5;" x1="30" x2="111" y1="180.0679" y2="180.0679"/><text fill="#000000" font-family="sans-serif" font-size="14" font-weight="bold" lengthAdjust="spacing" textLength="68" x="34" y="171.9659">controller</text></g><!--MD5=[a43a0602824909ee7cb5f4554cd4a453]
cluster scanner--><g id="cluster_scanner"><path d="M56.5,454 L111.5,454 A3.75,3.75 0 0 1 114,456.5 L121,479.0679 L648.5,479.0679 A2.5,2.5 0 0 1 651,481.5679 L651,756.5 A2.5,2.5 0 0 1 648.5,759 L56.5,759 A2.5,2.5 0 0 1 54,756.5 L54,456.5 A2.5,2.5 0 0 1 56.5,454 " fill="none" style="stroke:#000000;stroke-width:1.5;"/><line style="stroke:#000000;stroke-width:1.5;" x1="54" x2="121" y1="479.0679" y2="479.0679"/><text fill="#000000" font-family="sans-serif" font-size="14" font-weight="bold" lengthAdjust="spacing" textLength="54" x="58" y="470.9659">scanner</text></g><!--MD5=[72fae8e1779ba7dedab19f6352fd74e8]
cluster parser--><g id="cluster_parser"><path d="M677.5,473 L722.5,473 A3.75,3.75 0 0 1 725,475.5 L732,498.0679 L1257.5,498.0679 A2.5,2.5 0 0 1 1260,500.5679 L1260,747 A2.5,2.5 0 0 1 1257.5,749.5 L677.5,749.5 A2.5,2.5 0 0 1 675,747 L675,475.5 A2.5,2.5 0 0 1 677.5,473 " fill="none" style="stroke:#000000;stroke-width:1.5;"/><line style="stroke:#000000;stroke-width:1.5;" x1="675" x2="732" y1="498.0679" y2="498.0679"/><text fill="#000000" font-family="sans-serif" font-size="14" font-weight="bold" lengthAdjust="spacing" textLength="44" x="679" y="489.9659">parser</text></g><!--MD5=[5d4cd377749310b66bf14896f5cd8d9b]
cluster model--><g id="cluster_model"><path d="M958.5,807 L1003.5,807 A3.75,3.75 0 0 1 1006,809.5 L1013,832.0679 L1552.5,832.0679 A2.5,2.5 0 0 1 1555,834.5679 L1555,1033.5 A2.5,2.5 0 0 1 1552.5,1036 L958.5,1036 A2.5,2.5 0 0 1 956,1033.5 L956,809.5 A2.5,2.5 0 0 1 958.5,807 " fill="none" style="stroke:#000000;stroke-width:1.5;"/><line style="stroke:#000000;stroke-width:1.5;" x1="956" x2="1013" y1="832.0679" y2="832.0679"/><text fill="#000000" font-family="sans-serif" font-size="14" font-weight="bold" lengthAdjust="spacing" textLength="44" x="960" y="823.9659">model</text></g><!--MD5=[30d8c28322589f84137aabb448e962ca]
class AnalyzerController--><g id="elem_AnalyzerController"><rect codeLine="12" fill="#F1F1F1" height="238.6792" id="AnalyzerController" rx="2.5" ry="2.5" style="stroke:#181818;stroke-width:0.5;" width="268" x="901" y="193"/><ellipse cx="968.25" cy="209" fill="#ADD1B2" rx="11" ry="11" style="stroke:#181818;stroke-width:1.0;"/><path d="M967.7188,215.9219 Q965.9688,215.9219 964.8281,215.1875 Q963.7031,214.4375 963.1406,213.0938 Q962.5938,211.7344 962.5938,209.9375 Q962.5938,207.9063 963.25,206.4531 Q963.9063,205 965.1875,204.2188 Q966.4688,203.4375 968.3438,203.4375 Q969.2344,203.4375 969.9063,203.625 Q970.5781,203.7969 971.2656,204.1406 L970.4531,206.1563 Q969.8281,205.8438 969.2813,205.7188 Q968.75,205.5938 968.2656,205.5938 Q967.0938,205.5938 966.3906,206.125 Q965.6875,206.6563 965.3906,207.6094 Q965.0938,208.5625 965.0938,209.8281 Q965.0938,211.8438 965.8125,212.8125 Q966.5313,213.7656 968.125,213.7656 Q968.7188,213.7656 969.3438,213.6094 Q969.9688,213.4531 970.7969,213.0781 L970.7969,215.2969 Q970.0625,215.6094 969.2656,215.7656 Q968.4844,215.9219 967.7188,215.9219 Z " fill="#000000"/><text fill="#000000" font-family="sans-serif" font-size="14" lengthAdjust="spacing" textLength="125" x="988.75" y="214.432">AnalyzerController</text><line style="stroke:#181818;stroke-width:0.5;" x1="902" x2="1168" y1="225" y2="225"/><rect fill="none" height="6" style="stroke:#C82930;stroke-width:1.0;" width="6" x="909" y="237.034"/><text fill="#000000" font-family="sans-serif" font-size="14" lengthAdjust="spacing" textLength="136" x="921" y="243.9659">Scanneable scanner</text><rect fill="none" height="6" style="stroke:#C82930;stroke-width:1.0;" width="6" x="909" y="256.1019"/><text fill="#000000" font-family="sans-serif" font-size="14" lengthAdjust="spacing" textLength="114" x="921" y="263.0339">Parseable parser</text><rect fill="none" height="6" style="stroke:#C82930;stroke-width:1.0;" width="6" x="909" y="275.1698"/><text fill="#000000" font-family="sans-serif" font-size="14" lengthAdjust="spacing" textLength="242" x="921" y="282.1018">SymbolTableController symbolTable</text><rect fill="none" height="6" style="stroke:#C82930;stroke-width:1.0;" width="6" x="909" y="294.2377"/><text fill="#000000" font-family="sans-serif" font-size="14" lengthAdjust="spacing" textLength="139" x="921" y="301.1697">ErrorController error</text><line style="stroke:#181818;stroke-width:0.5;" x1="902" x2="1168" y1="309.2717" y2="309.2717"/><ellipse cx="912" cy="324.3056" fill="#84BE84" rx="3" ry="3" style="stroke:#038048;stroke-width:1.0;"/><text fill="#000000" font-family="sans-serif" font-size="14" lengthAdjust="spacing" textLength="212" x="921" y="328.2376">setSource(String path): boolean</text><ellipse cx="912" cy="343.3735" fill="#84BE84" rx="3" ry="3" style="stroke:#038048;stroke-width:1.0;"/><text fill="#000000" font-family="sans-serif" font-size="14" lengthAdjust="spacing" textLength="142" x="921" y="347.3055">doAnalysis(): boolean</text><ellipse cx="912" cy="362.4415" fill="#84BE84" rx="3" ry="3" style="stroke:#038048;stroke-width:1.0;"/><text fill="#000000" font-family="sans-serif" font-size="14" lengthAdjust="spacing" textLength="186" x="921" y="366.3734">getSyntaxTree(): SyntaxTree</text><ellipse cx="912" cy="381.5094" fill="#84BE84" rx="3" ry="3" style="stroke:#038048;stroke-width:1.0;"/><text fill="#000000" font-family="sans-serif" font-size="14" lengthAdjust="spacing" textLength="133" x="921" y="385.4414">areErrors(): boolean</text><ellipse cx="912" cy="400.5773" fill="#84BE84" rx="3" ry="3" style="stroke:#038048;stroke-width:1.0;"/><text fill="#000000" font-family="sans-serif" font-size="14" lengthAdjust="spacing" textLength="113" x="921" y="404.5093">getErrors(): Error</text><ellipse cx="912" cy="419.6452" fill="#84BE84" rx="3" ry="3" style="stroke:#038048;stroke-width:1.0;"/><text fill="#000000" font-family="sans-serif" font-size="14" lengthAdjust="spacing" textLength="210" x="921" y="423.5772">getSymbolTable(): SymbolTable</text></g><!--MD5=[2bb698562f3043c7db240a641fae6128]
class SymbolTableController--><g id="elem_SymbolTableController"><rect codeLine="25" fill="#F1F1F1" height="67.0679" id="SymbolTableController" rx="2.5" ry="2.5" style="stroke:#181818;stroke-width:0.5;" width="201" x="1278.5" y="520.5"/><ellipse cx="1300.7" cy="536.5" fill="#ADD1B2" rx="11" ry="11" style="stroke:#181818;stroke-width:1.0;"/><path d="M1300.1688,543.4219 Q1298.4188,543.4219 1297.2781,542.6875 Q1296.1531,541.9375 1295.5906,540.5938 Q1295.0438,539.2344 1295.0438,537.4375 Q1295.0438,535.4063 1295.7,533.9531 Q1296.3563,532.5 1297.6375,531.7188 Q1298.9188,530.9375 1300.7938,530.9375 Q1301.6844,530.9375 1302.3563,531.125 Q1303.0281,531.2969 1303.7156,531.6406 L1302.9031,533.6563 Q1302.2781,533.3438 1301.7313,533.2188 Q1301.2,533.0938 1300.7156,533.0938 Q1299.5438,533.0938 1298.8406,533.625 Q1298.1375,534.1563 1297.8406,535.1094 Q1297.5438,536.0625 1297.5438,537.3281 Q1297.5438,539.3438 1298.2625,540.3125 Q1298.9813,541.2656 1300.575,541.2656 Q1301.1688,541.2656 1301.7938,541.1094 Q1302.4188,540.9531 1303.2469,540.5781 L1303.2469,542.7969 Q1302.5125,543.1094 1301.7156,543.2656 Q1300.9344,543.4219 1300.1688,543.4219 Z " fill="#000000"/><text fill="#000000" font-family="sans-serif" font-size="14" lengthAdjust="spacing" textLength="153" x="1316.3" y="541.932">SymbolTableController</text><line style="stroke:#181818;stroke-width:0.5;" x1="1279.5" x2="1478.5" y1="552.5" y2="552.5"/><rect fill="none" height="6" style="stroke:#C82930;stroke-width:1.0;" width="6" x="1286.5" y="564.534"/><text fill="#000000" font-family="sans-serif" font-size="14" lengthAdjust="spacing" textLength="175" x="1298.5" y="571.4659">SymbolTable symbolTable</text><line style="stroke:#181818;stroke-width:0.5;" x1="1279.5" x2="1478.5" y1="579.5679" y2="579.5679"/></g><!--MD5=[078efc812ec3517f16515a0cc8bfe76c]
class ErrorController--><g id="elem_ErrorController"><rect codeLine="30" fill="#F1F1F1" height="67.0679" id="ErrorController" rx="2.5" ry="2.5" style="stroke:#181818;stroke-width:0.5;" width="133" x="1514.5" y="520.5"/><ellipse cx="1529.5" cy="536.5" fill="#ADD1B2" rx="11" ry="11" style="stroke:#181818;stroke-width:1.0;"/><path d="M1528.9688,543.4219 Q1527.2188,543.4219 1526.0781,542.6875 Q1524.9531,541.9375 1524.3906,540.5938 Q1523.8438,539.2344 1523.8438,537.4375 Q1523.8438,535.4063 1524.5,533.9531 Q1525.1563,532.5 1526.4375,531.7188 Q1527.7188,530.9375 1529.5938,530.9375 Q1530.4844,530.9375 1531.1563,531.125 Q1531.8281,531.2969 1532.5156,531.6406 L1531.7031,533.6563 Q1531.0781,533.3438 1530.5313,533.2188 Q1530,533.0938 1529.5156,533.0938 Q1528.3438,533.0938 1527.6406,533.625 Q1526.9375,534.1563 1526.6406,535.1094 Q1526.3438,536.0625 1526.3438,537.3281 Q1526.3438,539.3438 1527.0625,540.3125 Q1527.7813,541.2656 1529.375,541.2656 Q1529.9688,541.2656 1530.5938,541.1094 Q1531.2188,540.9531 1532.0469,540.5781 L1532.0469,542.7969 Q1531.3125,543.1094 1530.5156,543.2656 Q1529.7344,543.4219 1528.9688,543.4219 Z " fill="#000000"/><text fill="#000000" font-family="sans-serif" font-size="14" lengthAdjust="spacing" textLength="101" x="1543.5" y="541.932">ErrorController</text><line style="stroke:#181818;stroke-width:0.5;" x1="1515.5" x2="1646.5" y1="552.5" y2="552.5"/><rect fill="none" height="6" style="stroke:#C82930;stroke-width:1.0;" width="6" x="1522.5" y="564.534"/><text fill="#000000" font-family="sans-serif" font-size="14" lengthAdjust="spacing" textLength="72" x="1534.5" y="571.4659">Error error</text><line style="stroke:#181818;stroke-width:0.5;" x1="1515.5" x2="1646.5" y1="579.5679" y2="579.5679"/></g><!--MD5=[3d180d7354bb209a2db0a5498088a200]
class ScannerFactory--><g id="elem_ScannerFactory"><rect codeLine="38" fill="#F1F1F1" height="67.0679" id="ScannerFactory" rx="2.5" ry="2.5" style="stroke:#181818;stroke-width:0.5;" width="135" x="70.5" y="520.5"/><ellipse cx="85.5" cy="536.5" fill="#EB937F" rx="11" ry="11" style="stroke:#181818;stroke-width:1.0;"/><path d="M81.8594,543 L81.8594,530.8594 L89.5156,530.8594 L89.5156,532.9844 L84.2344,532.9844 L84.2344,535.6406 L89.25,535.6406 L89.25,537.7656 L84.2344,537.7656 L84.2344,540.875 L89.5156,540.875 L89.5156,543 L81.8594,543 Z " fill="#000000"/><text fill="#000000" font-family="sans-serif" font-size="14" lengthAdjust="spacing" textLength="103" x="99.5" y="541.932">ScannerFactory</text><line style="stroke:#181818;stroke-width:0.5;" x1="71.5" x2="204.5" y1="552.5" y2="552.5"/><line style="stroke:#181818;stroke-width:0.5;" x1="71.5" x2="204.5" y1="560.5" y2="560.5"/><ellipse cx="81.5" cy="575.534" fill="#84BE84" rx="3" ry="3" style="stroke:#038048;stroke-width:1.0;"/><text fill="#000000" font-family="sans-serif" font-size="14" lengthAdjust="spacing" textLength="85" x="90.5" y="579.4659">getScanner()</text></g><!--MD5=[e0ef22b899b65320c18f22c727ea3624]
class SyntaxTreeController--><g id="elem_SyntaxTreeController"><rect codeLine="43" fill="#F1F1F1" height="67.0679" id="SyntaxTreeController" rx="2.5" ry="2.5" style="stroke:#181818;stroke-width:0.5;" width="177" x="286.5" y="676"/><ellipse cx="303.3" cy="692" fill="#ADD1B2" rx="11" ry="11" style="stroke:#181818;stroke-width:1.0;"/><path d="M302.7688,698.9219 Q301.0188,698.9219 299.8781,698.1875 Q298.7531,697.4375 298.1906,696.0938 Q297.6438,694.7344 297.6438,692.9375 Q297.6438,690.9063 298.3,689.4531 Q298.9563,688 300.2375,687.2188 Q301.5188,686.4375 303.3938,686.4375 Q304.2844,686.4375 304.9563,686.625 Q305.6281,686.7969 306.3156,687.1406 L305.5031,689.1563 Q304.8781,688.8438 304.3313,688.7188 Q303.8,688.5938 303.3156,688.5938 Q302.1438,688.5938 301.4406,689.125 Q300.7375,689.6563 300.4406,690.6094 Q300.1438,691.5625 300.1438,692.8281 Q300.1438,694.8438 300.8625,695.8125 Q301.5813,696.7656 303.175,696.7656 Q303.7688,696.7656 304.3938,696.6094 Q305.0188,696.4531 305.8469,696.0781 L305.8469,698.2969 Q305.1125,698.6094 304.3156,698.7656 Q303.5344,698.9219 302.7688,698.9219 Z " fill="#000000"/><text fill="#000000" font-family="sans-serif" font-size="14" lengthAdjust="spacing" textLength="141" x="317.7" y="697.432">SyntaxTreeController</text><line style="stroke:#181818;stroke-width:0.5;" x1="287.5" x2="462.5" y1="708" y2="708"/><rect fill="none" height="6" style="stroke:#C82930;stroke-width:1.0;" width="6" x="294.5" y="720.034"/><text fill="#000000" font-family="sans-serif" font-size="14" lengthAdjust="spacing" textLength="151" x="306.5" y="726.9659">SyntaxTree syntaxTree</text><line style="stroke:#181818;stroke-width:0.5;" x1="287.5" x2="462.5" y1="735.0679" y2="735.0679"/></g><!--MD5=[50ebd45f45accd13d980f986bd8af47d]
class Scannable--><g id="elem_Scannable"><rect codeLine="48" fill="#F1F1F1" height="124.2717" id="Scannable" rx="2.5" ry="2.5" style="stroke:#181818;stroke-width:0.5;" width="394" x="241" y="492"/><ellipse cx="401.75" cy="508" fill="#B4A7E5" rx="11" ry="11" style="stroke:#181818;stroke-width:1.0;"/><path d="M397.7813,514.5 L397.7813,512.7969 L400.1406,512.5313 L400.1406,504.3281 L397.7813,504.0625 L397.7813,502.3594 L404.9219,502.3594 L404.9219,504.0625 L402.5,504.3281 L402.5,512.5313 L404.9219,512.7969 L404.9219,514.5 L397.7813,514.5 Z " fill="#000000"/><text fill="#000000" font-family="sans-serif" font-size="14" font-style="italic" lengthAdjust="spacing" textLength="64" x="422.25" y="513.432">Scannable</text><line style="stroke:#181818;stroke-width:0.5;" x1="242" x2="634" y1="524" y2="524"/><line style="stroke:#181818;stroke-width:0.5;" x1="242" x2="634" y1="532" y2="532"/><ellipse cx="252" cy="547.034" fill="#84BE84" rx="3" ry="3" style="stroke:#038048;stroke-width:1.0;"/><text fill="#000000" font-family="sans-serif" font-size="14" font-style="italic" lengthAdjust="spacing" textLength="209" x="261" y="550.9659">void setParser(Parseable parser);</text><ellipse cx="252" cy="566.1019" fill="#84BE84" rx="3" ry="3" style="stroke:#038048;stroke-width:1.0;"/><text fill="#000000" font-family="sans-serif" font-size="14" font-style="italic" lengthAdjust="spacing" textLength="163" x="261" y="570.0339">boolean verifyGrammar();</text><ellipse cx="252" cy="585.1698" fill="#84BE84" rx="3" ry="3" style="stroke:#038048;stroke-width:1.0;"/><text fill="#000000" font-family="sans-serif" font-size="14" font-style="italic" lengthAdjust="spacing" textLength="368" x="261" y="589.1018">void setSymbolTable(SymbolTableController symbolTable);</text><ellipse cx="252" cy="604.2377" fill="#84BE84" rx="3" ry="3" style="stroke:#038048;stroke-width:1.0;"/><text fill="#000000" font-family="sans-serif" font-size="14" font-style="italic" lengthAdjust="spacing" textLength="174" x="261" y="608.1697">SyntaxTree getSyntaxTree();</text></g><!--MD5=[f2190b6eaa697b7e984707b7f24661eb]
class JSStackAutomat--><g id="elem_JSStackAutomat"><rect codeLine="55" fill="#F1F1F1" height="48" id="JSStackAutomat" rx="2.5" ry="2.5" style="stroke:#181818;stroke-width:0.5;" width="136" x="499" y="685.5"/><ellipse cx="514" cy="701.5" fill="#ADD1B2" rx="11" ry="11" style="stroke:#181818;stroke-width:1.0;"/><path d="M513.4688,708.4219 Q511.7188,708.4219 510.5781,707.6875 Q509.4531,706.9375 508.8906,705.5938 Q508.3438,704.2344 508.3438,702.4375 Q508.3438,700.4063 509,698.9531 Q509.6563,697.5 510.9375,696.7188 Q512.2188,695.9375 514.0938,695.9375 Q514.9844,695.9375 515.6563,696.125 Q516.3281,696.2969 517.0156,696.6406 L516.2031,698.6563 Q515.5781,698.3438 515.0313,698.2188 Q514.5,698.0938 514.0156,698.0938 Q512.8438,698.0938 512.1406,698.625 Q511.4375,699.1563 511.1406,700.1094 Q510.8438,701.0625 510.8438,702.3281 Q510.8438,704.3438 511.5625,705.3125 Q512.2813,706.2656 513.875,706.2656 Q514.4688,706.2656 515.0938,706.1094 Q515.7188,705.9531 516.5469,705.5781 L516.5469,707.7969 Q515.8125,708.1094 515.0156,708.2656 Q514.2344,708.4219 513.4688,708.4219 Z " fill="#000000"/><text fill="#000000" font-family="sans-serif" font-size="14" lengthAdjust="spacing" textLength="104" x="528" y="706.932">JSStackAutomat</text><line style="stroke:#181818;stroke-width:0.5;" x1="500" x2="634" y1="717.5" y2="717.5"/><line style="stroke:#181818;stroke-width:0.5;" x1="500" x2="634" y1="725.5" y2="725.5"/></g><!--MD5=[0478eee3cab6329f179af95997d0a1c7]
class ParserFactory--><g id="elem_ParserFactory"><rect codeLine="69" fill="#F1F1F1" height="67.0679" id="ParserFactory" rx="2.5" ry="2.5" style="stroke:#181818;stroke-width:0.5;" width="123" x="1120.5" y="520.5"/><ellipse cx="1135.5" cy="536.5" fill="#EB937F" rx="11" ry="11" style="stroke:#181818;stroke-width:1.0;"/><path d="M1131.8594,543 L1131.8594,530.8594 L1139.5156,530.8594 L1139.5156,532.9844 L1134.2344,532.9844 L1134.2344,535.6406 L1139.25,535.6406 L1139.25,537.7656 L1134.2344,537.7656 L1134.2344,540.875 L1139.5156,540.875 L1139.5156,543 L1131.8594,543 Z " fill="#000000"/><text fill="#000000" font-family="sans-serif" font-size="14" lengthAdjust="spacing" textLength="91" x="1149.5" y="541.932">ParserFactory</text><line style="stroke:#181818;stroke-width:0.5;" x1="1121.5" x2="1242.5" y1="552.5" y2="552.5"/><line style="stroke:#181818;stroke-width:0.5;" x1="1121.5" x2="1242.5" y1="560.5" y2="560.5"/><ellipse cx="1131.5" cy="575.534" fill="#84BE84" rx="3" ry="3" style="stroke:#038048;stroke-width:1.0;"/><text fill="#000000" font-family="sans-serif" font-size="14" lengthAdjust="spacing" textLength="73" x="1140.5" y="579.4659">getParser()</text></g><!--MD5=[d88cac1ca16930b80ad72f4d801b81da]
class Parseable--><g id="elem_Parseable"><rect codeLine="73" fill="#F1F1F1" height="86.1358" id="Parseable" rx="2.5" ry="2.5" style="stroke:#181818;stroke-width:0.5;" width="394" x="691" y="511"/><ellipse cx="852.75" cy="527" fill="#B4A7E5" rx="11" ry="11" style="stroke:#181818;stroke-width:1.0;"/><path d="M848.7813,533.5 L848.7813,531.7969 L851.1406,531.5313 L851.1406,523.3281 L848.7813,523.0625 L848.7813,521.3594 L855.9219,521.3594 L855.9219,523.0625 L853.5,523.3281 L853.5,531.5313 L855.9219,531.7969 L855.9219,533.5 L848.7813,533.5 Z " fill="#000000"/><text fill="#000000" font-family="sans-serif" font-size="14" font-style="italic" lengthAdjust="spacing" textLength="62" x="873.25" y="532.432">Parseable</text><line style="stroke:#181818;stroke-width:0.5;" x1="692" x2="1084" y1="543" y2="543"/><line style="stroke:#181818;stroke-width:0.5;" x1="692" x2="1084" y1="551" y2="551"/><ellipse cx="702" cy="566.034" fill="#84BE84" rx="3" ry="3" style="stroke:#038048;stroke-width:1.0;"/><text fill="#000000" font-family="sans-serif" font-size="14" font-style="italic" lengthAdjust="spacing" textLength="198" x="711" y="569.9659">boolean setSource(String path);</text><ellipse cx="702" cy="585.1019" fill="#84BE84" rx="3" ry="3" style="stroke:#038048;stroke-width:1.0;"/><text fill="#000000" font-family="sans-serif" font-size="14" font-style="italic" lengthAdjust="spacing" textLength="368" x="711" y="589.0339">void setSymbolTable(SymbolTableController symbolTable);</text></g><!--MD5=[81fd118214366e633a357d180763f423]
class JSFinitAutamt--><g id="elem_JSFinitAutamt"><rect codeLine="79" fill="#F1F1F1" height="48" id="JSFinitAutamt" rx="2.5" ry="2.5" style="stroke:#181818;stroke-width:0.5;" width="122" x="827" y="685.5"/><ellipse cx="842" cy="701.5" fill="#ADD1B2" rx="11" ry="11" style="stroke:#181818;stroke-width:1.0;"/><path d="M841.4688,708.4219 Q839.7188,708.4219 838.5781,707.6875 Q837.4531,706.9375 836.8906,705.5938 Q836.3438,704.2344 836.3438,702.4375 Q836.3438,700.4063 837,698.9531 Q837.6563,697.5 838.9375,696.7188 Q840.2188,695.9375 842.0938,695.9375 Q842.9844,695.9375 843.6563,696.125 Q844.3281,696.2969 845.0156,696.6406 L844.2031,698.6563 Q843.5781,698.3438 843.0313,698.2188 Q842.5,698.0938 842.0156,698.0938 Q840.8438,698.0938 840.1406,698.625 Q839.4375,699.1563 839.1406,700.1094 Q838.8438,701.0625 838.8438,702.3281 Q838.8438,704.3438 839.5625,705.3125 Q840.2813,706.2656 841.875,706.2656 Q842.4688,706.2656 843.0938,706.1094 Q843.7188,705.9531 844.5469,705.5781 L844.5469,707.7969 Q843.8125,708.1094 843.0156,708.2656 Q842.2344,708.4219 841.4688,708.4219 Z " fill="#000000"/><text fill="#000000" font-family="sans-serif" font-size="14" lengthAdjust="spacing" textLength="90" x="856" y="706.932">JSFinitAutamt</text><line style="stroke:#181818;stroke-width:0.5;" x1="828" x2="948" y1="717.5" y2="717.5"/><line style="stroke:#181818;stroke-width:0.5;" x1="828" x2="948" y1="725.5" y2="725.5"/></g><!--MD5=[b8cfd8c4119a3b0a7a46bfc5fc780f85]
class Error--><g id="elem_Error"><rect codeLine="105" fill="#F1F1F1" height="48" id="Error" rx="2.5" ry="2.5" style="stroke:#181818;stroke-width:0.5;" width="66" x="1473" y="854.5"/><ellipse cx="1488" cy="870.5" fill="#ADD1B2" rx="11" ry="11" style="stroke:#181818;stroke-width:1.0;"/><path d="M1487.4688,877.4219 Q1485.7188,877.4219 1484.5781,876.6875 Q1483.4531,875.9375 1482.8906,874.5938 Q1482.3438,873.2344 1482.3438,871.4375 Q1482.3438,869.4063 1483,867.9531 Q1483.6563,866.5 1484.9375,865.7188 Q1486.2188,864.9375 1488.0938,864.9375 Q1488.9844,864.9375 1489.6563,865.125 Q1490.3281,865.2969 1491.0156,865.6406 L1490.2031,867.6563 Q1489.5781,867.3438 1489.0313,867.2188 Q1488.5,867.0938 1488.0156,867.0938 Q1486.8438,867.0938 1486.1406,867.625 Q1485.4375,868.1563 1485.1406,869.1094 Q1484.8438,870.0625 1484.8438,871.3281 Q1484.8438,873.3438 1485.5625,874.3125 Q1486.2813,875.2656 1487.875,875.2656 Q1488.4688,875.2656 1489.0938,875.1094 Q1489.7188,874.9531 1490.5469,874.5781 L1490.5469,876.7969 Q1489.8125,877.1094 1489.0156,877.2656 Q1488.2344,877.4219 1487.4688,877.4219 Z " fill="#000000"/><text fill="#000000" font-family="sans-serif" font-size="14" lengthAdjust="spacing" textLength="34" x="1502" y="875.932">Error</text><line style="stroke:#181818;stroke-width:0.5;" x1="1474" x2="1538" y1="886.5" y2="886.5"/><line style="stroke:#181818;stroke-width:0.5;" x1="1474" x2="1538" y1="894.5" y2="894.5"/></g><!--MD5=[738e4f512b46f6d893f36a61ba8cff5e]
class SyntaxTree--><g id="elem_SyntaxTree"><rect codeLine="109" fill="#F1F1F1" height="48" id="SyntaxTree" rx="2.5" ry="2.5" style="stroke:#181818;stroke-width:0.5;" width="106" x="1179" y="854.5"/><ellipse cx="1194" cy="870.5" fill="#ADD1B2" rx="11" ry="11" style="stroke:#181818;stroke-width:1.0;"/><path d="M1193.4688,877.4219 Q1191.7188,877.4219 1190.5781,876.6875 Q1189.4531,875.9375 1188.8906,874.5938 Q1188.3438,873.2344 1188.3438,871.4375 Q1188.3438,869.4063 1189,867.9531 Q1189.6563,866.5 1190.9375,865.7188 Q1192.2188,864.9375 1194.0938,864.9375 Q1194.9844,864.9375 1195.6563,865.125 Q1196.3281,865.2969 1197.0156,865.6406 L1196.2031,867.6563 Q1195.5781,867.3438 1195.0313,867.2188 Q1194.5,867.0938 1194.0156,867.0938 Q1192.8438,867.0938 1192.1406,867.625 Q1191.4375,868.1563 1191.1406,869.1094 Q1190.8438,870.0625 1190.8438,871.3281 Q1190.8438,873.3438 1191.5625,874.3125 Q1192.2813,875.2656 1193.875,875.2656 Q1194.4688,875.2656 1195.0938,875.1094 Q1195.7188,874.9531 1196.5469,874.5781 L1196.5469,876.7969 Q1195.8125,877.1094 1195.0156,877.2656 Q1194.2344,877.4219 1193.4688,877.4219 Z " fill="#000000"/><text fill="#000000" font-family="sans-serif" font-size="14" lengthAdjust="spacing" textLength="74" x="1208" y="875.932">SyntaxTree</text><line style="stroke:#181818;stroke-width:0.5;" x1="1180" x2="1284" y1="886.5" y2="886.5"/><line style="stroke:#181818;stroke-width:0.5;" x1="1180" x2="1284" y1="894.5" y2="894.5"/></g><!--MD5=[6585dc51e3fc1f40fb4eab6b6c55514c]
class SymbolTable--><g id="elem_SymbolTable"><rect codeLine="113" fill="#F1F1F1" height="48" id="SymbolTable" rx="2.5" ry="2.5" style="stroke:#181818;stroke-width:0.5;" width="118" x="1320" y="854.5"/><ellipse cx="1335" cy="870.5" fill="#ADD1B2" rx="11" ry="11" style="stroke:#181818;stroke-width:1.0;"/><path d="M1334.4688,877.4219 Q1332.7188,877.4219 1331.5781,876.6875 Q1330.4531,875.9375 1329.8906,874.5938 Q1329.3438,873.2344 1329.3438,871.4375 Q1329.3438,869.4063 1330,867.9531 Q1330.6563,866.5 1331.9375,865.7188 Q1333.2188,864.9375 1335.0938,864.9375 Q1335.9844,864.9375 1336.6563,865.125 Q1337.3281,865.2969 1338.0156,865.6406 L1337.2031,867.6563 Q1336.5781,867.3438 1336.0313,867.2188 Q1335.5,867.0938 1335.0156,867.0938 Q1333.8438,867.0938 1333.1406,867.625 Q1332.4375,868.1563 1332.1406,869.1094 Q1331.8438,870.0625 1331.8438,871.3281 Q1331.8438,873.3438 1332.5625,874.3125 Q1333.2813,875.2656 1334.875,875.2656 Q1335.4688,875.2656 1336.0938,875.1094 Q1336.7188,874.9531 1337.5469,874.5781 L1337.5469,876.7969 Q1336.8125,877.1094 1336.0156,877.2656 Q1335.2344,877.4219 1334.4688,877.4219 Z " fill="#000000"/><text fill="#000000" font-family="sans-serif" font-size="14" lengthAdjust="spacing" textLength="86" x="1349" y="875.932">SymbolTable</text><line style="stroke:#181818;stroke-width:0.5;" x1="1321" x2="1437" y1="886.5" y2="886.5"/><line style="stroke:#181818;stroke-width:0.5;" x1="1321" x2="1437" y1="894.5" y2="894.5"/></g><!--MD5=[d8c8cfd5ca149094f5b67f9f607a5ec7]
class Token--><g id="elem_Token"><rect codeLine="116" fill="#F1F1F1" height="67.0679" id="Token" rx="2.5" ry="2.5" style="stroke:#181818;stroke-width:0.5;" width="171" x="972.5" y="845"/><ellipse cx="1033.75" cy="861" fill="#ADD1B2" rx="11" ry="11" style="stroke:#181818;stroke-width:1.0;"/><path d="M1033.2188,867.9219 Q1031.4688,867.9219 1030.3281,867.1875 Q1029.2031,866.4375 1028.6406,865.0938 Q1028.0938,863.7344 1028.0938,861.9375 Q1028.0938,859.9063 1028.75,858.4531 Q1029.4063,857 1030.6875,856.2188 Q1031.9688,855.4375 1033.8438,855.4375 Q1034.7344,855.4375 1035.4063,855.625 Q1036.0781,855.7969 1036.7656,856.1406 L1035.9531,858.1563 Q1035.3281,857.8438 1034.7813,857.7188 Q1034.25,857.5938 1033.7656,857.5938 Q1032.5938,857.5938 1031.8906,858.125 Q1031.1875,858.6563 1030.8906,859.6094 Q1030.5938,860.5625 1030.5938,861.8281 Q1030.5938,863.8438 1031.3125,864.8125 Q1032.0313,865.7656 1033.625,865.7656 Q1034.2188,865.7656 1034.8438,865.6094 Q1035.4688,865.4531 1036.2969,865.0781 L1036.2969,867.2969 Q1035.5625,867.6094 1034.7656,867.7656 Q1033.9844,867.9219 1033.2188,867.9219 Z " fill="#000000"/><text fill="#000000" font-family="sans-serif" font-size="14" lengthAdjust="spacing" textLength="40" x="1054.25" y="866.432">Token</text><line style="stroke:#181818;stroke-width:0.5;" x1="973.5" x2="1142.5" y1="877" y2="877"/><rect fill="none" height="6" style="stroke:#C82930;stroke-width:1.0;" width="6" x="980.5" y="889.034"/><text fill="#000000" font-family="sans-serif" font-size="14" lengthAdjust="spacing" textLength="145" x="992.5" y="895.9659">TypeToken typeToken</text><line style="stroke:#181818;stroke-width:0.5;" x1="973.5" x2="1142.5" y1="904.0679" y2="904.0679"/></g><!--MD5=[1147ad1d3bd68c3cc5ba8629663b3aad]
class TypeToken--><g id="elem_TypeToken"><rect codeLine="120" fill="#F1F1F1" height="48" id="TypeToken" rx="2.5" ry="2.5" style="stroke:#181818;stroke-width:0.5;" width="104" x="1006" y="972"/><ellipse cx="1021" cy="988" fill="#EB937F" rx="11" ry="11" style="stroke:#181818;stroke-width:1.0;"/><path d="M1017.3594,994.5 L1017.3594,982.3594 L1025.0156,982.3594 L1025.0156,984.4844 L1019.7344,984.4844 L1019.7344,987.1406 L1024.75,987.1406 L1024.75,989.2656 L1019.7344,989.2656 L1019.7344,992.375 L1025.0156,992.375 L1025.0156,994.5 L1017.3594,994.5 Z " fill="#000000"/><text fill="#000000" font-family="sans-serif" font-size="14" lengthAdjust="spacing" textLength="72" x="1035" y="993.432">TypeToken</text><line style="stroke:#181818;stroke-width:0.5;" x1="1007" x2="1109" y1="1004" y2="1004"/><line style="stroke:#181818;stroke-width:0.5;" x1="1007" x2="1109" y1="1012" y2="1012"/></g><!--MD5=[335f4d9be48430461c68bf6d6fdba145]
class App--><g id="elem_App"><rect codeLine="3" fill="#F1F1F1" height="86.1358" id="App" rx="2.5" ry="2.5" style="stroke:#181818;stroke-width:0.5;" width="352" x="859" y="7"/><ellipse cx="1017.25" cy="23" fill="#ADD1B2" rx="11" ry="11" style="stroke:#181818;stroke-width:1.0;"/><path d="M1016.7188,29.9219 Q1014.9688,29.9219 1013.8281,29.1875 Q1012.7031,28.4375 1012.1406,27.0938 Q1011.5938,25.7344 1011.5938,23.9375 Q1011.5938,21.9063 1012.25,20.4531 Q1012.9063,19 1014.1875,18.2188 Q1015.4688,17.4375 1017.3438,17.4375 Q1018.2344,17.4375 1018.9063,17.625 Q1019.5781,17.7969 1020.2656,18.1406 L1019.4531,20.1563 Q1018.8281,19.8438 1018.2813,19.7188 Q1017.75,19.5938 1017.2656,19.5938 Q1016.0938,19.5938 1015.3906,20.125 Q1014.6875,20.6563 1014.3906,21.6094 Q1014.0938,22.5625 1014.0938,23.8281 Q1014.0938,25.8438 1014.8125,26.8125 Q1015.5313,27.7656 1017.125,27.7656 Q1017.7188,27.7656 1018.3438,27.6094 Q1018.9688,27.4531 1019.7969,27.0781 L1019.7969,29.2969 Q1019.0625,29.6094 1018.2656,29.7656 Q1017.4844,29.9219 1016.7188,29.9219 Z " fill="#000000"/><text fill="#000000" font-family="sans-serif" font-size="14" lengthAdjust="spacing" textLength="27" x="1037.75" y="28.432">App</text><line style="stroke:#181818;stroke-width:0.5;" x1="860" x2="1210" y1="39" y2="39"/><line style="stroke:#181818;stroke-width:0.5;" x1="860" x2="1210" y1="47" y2="47"/><ellipse cx="870" cy="62.034" fill="#84BE84" rx="3" ry="3" style="stroke:#038048;stroke-width:1.0;"/><text fill="#000000" font-family="sans-serif" font-size="14" lengthAdjust="spacing" textLength="143" x="879" y="65.9659">executeTestAnalysis()</text><ellipse cx="870" cy="81.1019" fill="#84BE84" rx="3" ry="3" style="stroke:#038048;stroke-width:1.0;"/><text fill="#000000" font-family="sans-serif" font-size="14" lengthAdjust="spacing" textLength="326" x="879" y="85.0339">showAnalysisResult(AnalyzerController analyzer)</text></g><!--MD5=[223764f63b6e1da79287bebdf7722b07]
reverse link Scannable to JSStackAutomat--><g id="link_Scannable_JSStackAutomat"><path codeLine="59" d="M502.41,631.65 C518.8,651.14 535.19,670.65 547.36,685.13 " fill="none" id="Scannable-backto-JSStackAutomat" style="stroke:#181818;stroke-width:1.0;"/><polygon fill="none" points="496.86,635.92,489.35,616.11,507.58,626.92,496.86,635.92" style="stroke:#181818;stroke-width:1.0;"/></g><!--MD5=[5823bbcc66672bb446f0f50de649013c]
reverse link Scannable to SyntaxTreeController--><g id="link_Scannable_SyntaxTreeController"><path codeLine="60" d="M407.96,628.19 C401.1,644.9 394.15,661.84 388.41,675.83 " fill="none" id="Scannable-backto-SyntaxTreeController" style="stroke:#181818;stroke-width:1.0;"/><polygon fill="#181818" points="412.92,616.11,406.9438,620.1454,408.3702,627.214,414.3465,623.1786,412.92,616.11" style="stroke:#181818;stroke-width:1.0;"/></g><!--MD5=[ccab6bf38fddf60d4ce77c5d5b46e960]
link ScannerFactory to Scannable--><g id="link_ScannerFactory_Scannable"><path codeLine="62" d="M205.68,554 C215.59,554 225.51,554 235.43,554 " fill="none" id="ScannerFactory-to-Scannable" style="stroke:#181818;stroke-width:1.0;stroke-dasharray:7.0,7.0;"/><polygon fill="#181818" points="240.62,554,231.62,550,235.62,554,231.62,558,240.62,554" style="stroke:#181818;stroke-width:1.0;"/></g><!--MD5=[f1b1822539abd30b2950c1725ba36fa9]
reverse link Parseable to JSFinitAutamt--><g id="link_Parseable_JSFinitAutamt"><path codeLine="83" d="M888,617.63 C888,641.53 888,667.33 888,685.31 " fill="none" id="Parseable-backto-JSFinitAutamt" style="stroke:#181818;stroke-width:1.0;"/><polygon fill="none" points="881,617.35,888,597.35,895,617.35,881,617.35" style="stroke:#181818;stroke-width:1.0;"/></g><!--MD5=[9f498e688cfa9190767d180e4c53e7ac]
reverse link Parseable to ParserFactory--><g id="link_Parseable_ParserFactory"><path codeLine="84" d="M1090.46,554 C1100.44,554 1110.42,554 1120.39,554 " fill="none" id="Parseable-backto-ParserFactory" style="stroke:#181818;stroke-width:1.0;stroke-dasharray:7.0,7.0;"/><polygon fill="#181818" points="1085.24,554,1094.24,558,1090.24,554,1094.24,550,1085.24,554" style="stroke:#181818;stroke-width:1.0;"/></g><!--MD5=[6b597b2deda4ed8e1708e6c37241ce76]
reverse link AnalyzerController to Parseable--><g id="link_AnalyzerController_Parseable"><path codeLine="90" d="M955.25,443.43 C940.27,467.84 925.64,491.67 913.87,510.85 " fill="none" id="AnalyzerController-backto-Parseable" style="stroke:#181818;stroke-width:1.0;"/><polygon fill="#181818" points="962.15,432.2,955.6014,435.2192,955.8697,442.4253,962.4183,439.4061,962.15,432.2" style="stroke:#181818;stroke-width:1.0;"/></g><!--MD5=[4c1a00ab1f0200fca7cfd475469a2b5a]
reverse link AnalyzerController to Scannable--><g id="link_AnalyzerController_Scannable"><path codeLine="91" d="M888.24,364.83 C822.59,388.48 744.49,417.57 675,446 C640.32,460.19 603.22,476.43 568.9,491.89 " fill="none" id="AnalyzerController-backto-Scannable" style="stroke:#181818;stroke-width:1.0;"/><polygon fill="#181818" points="900.77,360.33,893.7707,358.595,889.4772,364.3886,896.4764,366.1236,900.77,360.33" style="stroke:#181818;stroke-width:1.0;"/></g><!--MD5=[02858fff888d069e05a94abd63ac7f9d]
reverse link AnalyzerController to SymbolTableController--><g id="link_AnalyzerController_SymbolTableController"><path codeLine="92" d="M1180.44,393.36 C1207.51,409.83 1235.09,427.75 1260,446 C1291.04,468.74 1323.33,498.19 1346.42,520.44 " fill="none" id="AnalyzerController-backto-SymbolTableController" style="stroke:#181818;stroke-width:1.0;"/><polygon fill="#181818" points="1169.29,386.64,1172.3647,393.1627,1179.5683,392.8333,1176.4936,386.3106,1169.29,386.64" style="stroke:#181818;stroke-width:1.0;"/></g><!--MD5=[a26dbdaa274815370b1f65887ae10721]
reverse link AnalyzerController to ErrorController--><g id="link_AnalyzerController_ErrorController"><path codeLine="93" d="M1182.31,331.79 C1278.35,349.21 1402.85,382.65 1497,446 C1525.22,464.98 1548.27,496.47 1563.04,520.38 " fill="none" id="AnalyzerController-backto-ErrorController" style="stroke:#181818;stroke-width:1.0;"/><polygon fill="#181818" points="1169.25,329.49,1174.4642,334.4712,1181.0677,331.5739,1175.8535,326.5927,1169.25,329.49" style="stroke:#181818;stroke-width:1.0;"/></g><!--MD5=[6a745050073d8a8ad3fe23526c35f15b]
link AnalyzerController to ParserFactory--><g id="link_AnalyzerController_ParserFactory"><path codeLine="95" d="M1107.85,432.2 C1126.53,462.63 1145.27,493.16 1159.24,515.91 " fill="none" id="AnalyzerController-to-ParserFactory" style="stroke:#181818;stroke-width:1.0;stroke-dasharray:7.0,7.0;"/><polygon fill="#181818" points="1161.96,520.36,1160.6589,510.5975,1159.3435,516.0993,1153.8417,514.7839,1161.96,520.36" style="stroke:#181818;stroke-width:1.0;"/></g><!--MD5=[ef02f0b072705d9dc579a21d39d9a53c]
link AnalyzerController to ScannerFactory--><g id="link_AnalyzerController_ScannerFactory"><path codeLine="96" d="M900.64,323.78 C700.74,341.01 336.46,380.43 224,446 C195.7,462.5 173,492.13 158.04,516.03 " fill="none" id="AnalyzerController-to-ScannerFactory" style="stroke:#181818;stroke-width:1.0;stroke-dasharray:7.0,7.0;"/><polygon fill="#181818" points="155.34,520.42,163.4718,514.8636,157.9669,516.1656,156.6648,510.6607,155.34,520.42" style="stroke:#181818;stroke-width:1.0;"/></g><!--MD5=[41ec22335e8039bd08e708d24e562171]
link Scannable to Parseable--><g id="link_Scannable_Parseable"><path codeLine="98" d="M635.31,599.8 C663.35,601.22 691.38,600.48 719.41,597.58 " fill="none" id="Scannable-to-Parseable" style="stroke:#181818;stroke-width:1.0;"/><polygon fill="#181818" points="724.64,597.01,715.259,594.0106,719.6695,597.5528,716.1274,601.9633,724.64,597.01" style="stroke:#181818;stroke-width:1.0;"/></g><!--MD5=[88f8ae98fe0f0b6effa2e70597d5c710]
reverse link Token to TypeToken--><g id="link_Token_TypeToken"><path codeLine="124" d="M1058,925.72 C1058,941.5 1058,958.47 1058,971.67 " fill="none" id="Token-backto-TypeToken" style="stroke:#181818;stroke-width:1.0;"/><polygon fill="#181818" points="1058,912.29,1054,918.29,1058,924.29,1062,918.29,1058,912.29" style="stroke:#181818;stroke-width:1.0;"/></g><!--MD5=[f361c2e230ac2afb6f6de4194130d5f7]
reverse link SymbolTableController to SymbolTable--><g id="link_SymbolTableController_SymbolTable"><path codeLine="128" d="M1379,600.81 C1379,670.61 1379,801.09 1379,854.16 " fill="none" id="SymbolTableController-backto-SymbolTable" style="stroke:#181818;stroke-width:1.0;"/><polygon fill="#181818" points="1379,587.7,1375,593.7,1379,599.7,1383,593.7,1379,587.7" style="stroke:#181818;stroke-width:1.0;"/></g><!--MD5=[55ae2b4f63e51689811284c9a3c41dc8]
reverse link ErrorController to Error--><g id="link_ErrorController_Error"><path codeLine="129" d="M1570.45,600.37 C1554.24,670.07 1523.79,800.98 1511.43,854.16 " fill="none" id="ErrorController-backto-Error" style="stroke:#181818;stroke-width:1.0;"/><polygon fill="#181818" points="1573.4,587.7,1568.1451,592.6383,1570.6824,599.3882,1575.9373,594.45,1573.4,587.7" style="stroke:#181818;stroke-width:1.0;"/></g><!--MD5=[eaeeb6060fdbc891539ab6f133f436cf]
reverse link SyntaxTreeController to SyntaxTree--><g id="link_SyntaxTreeController_SyntaxTree"><path codeLine="131" d="M416.94,751.84 C435.34,767.21 458.16,782.88 482,791 C517.71,803.17 1126.61,783.49 1161,799 C1186.29,810.41 1206.45,835.67 1218.73,854.47 " fill="none" id="SyntaxTreeController-backto-SyntaxTree" style="stroke:#181818;stroke-width:1.0;"/><polygon fill="#181818" points="406.92,743.14,408.8252,750.0949,415.9778,751.0112,414.0726,744.0563,406.92,743.14" style="stroke:#181818;stroke-width:1.0;"/></g><!--MD5=[1f26e4dd56045fd5f4c121d258164fe0]
link App to AnalyzerController--><g id="link_App_AnalyzerController"><path codeLine="140" d="M1035,93.14 C1035,119.08 1035,153.8 1035,187.91 " fill="none" id="App-to-AnalyzerController" style="stroke:#181818;stroke-width:1.0;stroke-dasharray:7.0,7.0;"/><polygon fill="#181818" points="1035,192.93,1039,183.93,1035,187.93,1031,183.93,1035,192.93" style="stroke:#181818;stroke-width:1.0;"/></g><!--MD5=[ea7b9c31a4bc8d700087b0416a9cc630]
@startuml classdiagram


class App{
    +executeTestAnalysis()
    +showAnalysisResult(AnalyzerController analyzer)
}

package analyzer{

    package controller{

        class AnalyzerController{
            -Scanneable scanner
            -Parseable parser
            -SymbolTableController symbolTable
            -ErrorController error
            +setSource(String path): boolean
            +doAnalysis(): boolean
            +getSyntaxTree(): SyntaxTree
            +areErrors(): boolean
            +getErrors(): Error
            +getSymbolTable(): SymbolTable
        }

        class SymbolTableController{
            -SymbolTable symbolTable

        }

        class ErrorController{
            -Error error

        }


        package scanner{

            enum ScannerFactory{
                +getScanner()
            }


            class SyntaxTreeController{
                -SyntaxTree syntaxTree

            }

            interface Scannable{
                +{abstract}void setParser(Parseable parser);
                +{abstract}boolean verifyGrammar();
                +{abstract}void setSymbolTable(SymbolTableController symbolTable);
                +{abstract}SyntaxTree getSyntaxTree();
            }

            class JSStackAutomat{

            }

            JSStackAutomat -up-|> Scannable
            Scannable *- - SyntaxTreeController

            ScannerFactory .right.> Scannable


        }

        package parser{

            enum ParserFactory{
                +getParser()
            }

            interface Parseable{
                +{abstract} boolean setSource(String path);
                +{abstract} void setSymbolTable(SymbolTableController symbolTable);

            }

            class JSFinitAutamt{

            }

            JSFinitAutamt -up-|> Parseable
            ParserFactory .left.> Parseable

        }



        AnalyzerController *- - Parseable
        AnalyzerController *- - Scannable
        AnalyzerController *- - SymbolTableController
        AnalyzerController *- - ErrorController

        AnalyzerController ..> ParserFactory
        AnalyzerController ..> ScannerFactory

        Scannable -right-> Parseable

    }


    package model{

        class Error{

        }

        class SyntaxTree{

        }

        class SymbolTable


        class Token{
            -TypeToken typeToken
        }

        enum TypeToken{

        }

        Token *- - TypeToken

    }

    SymbolTableController *- - SymbolTable
    ErrorController *- - Error

    SyntaxTreeController *- - SyntaxTree





}


App .down.> AnalyzerController



@enduml

PlantUML version 1.2022.7(Mon Aug 22 11:01:30 CST 2022)
(GPL source distribution)
Java Runtime: OpenJDK Runtime Environment
JVM: OpenJDK 64-Bit Server VM
Default Encoding: UTF-8
Language: en
Country: US
--></g></svg>